%TF.GenerationSoftware,KiCad,Pcbnew,(5.1.6)-1*%
%TF.CreationDate,2020-08-27T20:14:33+02:00*%
%TF.ProjectId,ESP32_TFT_Board,45535033-325f-4544-9654-5f426f617264,rev?*%
%TF.SameCoordinates,Original*%
%TF.FileFunction,Copper,L1,Top*%
%TF.FilePolarity,Positive*%
%FSLAX46Y46*%
G04 Gerber Fmt 4.6, Leading zero omitted, Abs format (unit mm)*
G04 Created by KiCad (PCBNEW (5.1.6)-1) date 2020-08-27 20:14:33*
%MOMM*%
%LPD*%
G01*
G04 APERTURE LIST*
%TA.AperFunction,ComponentPad*%
%ADD10O,1.000000X1.000000*%
%TD*%
%TA.AperFunction,ComponentPad*%
%ADD11R,1.000000X1.000000*%
%TD*%
%TA.AperFunction,ComponentPad*%
%ADD12O,1.700000X1.700000*%
%TD*%
%TA.AperFunction,ComponentPad*%
%ADD13R,1.700000X1.700000*%
%TD*%
%TA.AperFunction,SMDPad,CuDef*%
%ADD14R,1.500000X1.500000*%
%TD*%
%TA.AperFunction,SMDPad,CuDef*%
%ADD15R,1.500000X2.000000*%
%TD*%
%TA.AperFunction,SMDPad,CuDef*%
%ADD16R,2.000000X1.500000*%
%TD*%
%TA.AperFunction,SMDPad,CuDef*%
%ADD17R,2.000000X3.800000*%
%TD*%
%TA.AperFunction,SMDPad,CuDef*%
%ADD18R,1.100000X1.050000*%
%TD*%
%TA.AperFunction,SMDPad,CuDef*%
%ADD19R,2.250000X1.100000*%
%TD*%
%TA.AperFunction,ComponentPad*%
%ADD20C,0.650000*%
%TD*%
%TA.AperFunction,ComponentPad*%
%ADD21O,1.400000X0.800000*%
%TD*%
%TA.AperFunction,ViaPad*%
%ADD22C,0.600000*%
%TD*%
%TA.AperFunction,ViaPad*%
%ADD23C,0.800000*%
%TD*%
%TA.AperFunction,Conductor*%
%ADD24C,0.400000*%
%TD*%
%TA.AperFunction,Conductor*%
%ADD25C,0.350000*%
%TD*%
%TA.AperFunction,Conductor*%
%ADD26C,0.250000*%
%TD*%
%TA.AperFunction,Conductor*%
%ADD27C,1.000000*%
%TD*%
%TA.AperFunction,Conductor*%
%ADD28C,0.254000*%
%TD*%
G04 APERTURE END LIST*
D10*
%TO.P,J7,2*%
%TO.N,RXD*%
X93446600Y-76428600D03*
D11*
%TO.P,J7,1*%
%TO.N,TXD*%
X93446600Y-75158600D03*
%TD*%
D12*
%TO.P,J5,5*%
%TO.N,GND*%
X89715340Y-89733120D03*
%TO.P,J5,4*%
%TO.N,ESP_SDA*%
X89715340Y-87193120D03*
%TO.P,J5,3*%
%TO.N,ESP_SCL*%
X89715340Y-84653120D03*
%TO.P,J5,2*%
%TO.N,GND*%
X89715340Y-82113120D03*
D13*
%TO.P,J5,1*%
%TO.N,+3V3*%
X89715340Y-79573120D03*
%TD*%
D12*
%TO.P,J4,6*%
%TO.N,IO5*%
X89662000Y-76962000D03*
%TO.P,J4,5*%
%TO.N,IO27*%
X89662000Y-74422000D03*
%TO.P,J4,4*%
%TO.N,ESP_SDA*%
X89662000Y-71882000D03*
%TO.P,J4,3*%
%TO.N,ESP_SCL*%
X89662000Y-69342000D03*
%TO.P,J4,2*%
%TO.N,GND*%
X89662000Y-66802000D03*
D13*
%TO.P,J4,1*%
%TO.N,+3V3*%
X89662000Y-64262000D03*
%TD*%
D10*
%TO.P,J6,3*%
%TO.N,+3V3*%
X101473000Y-62103000D03*
%TO.P,J6,2*%
%TO.N,LED*%
X102743000Y-62103000D03*
D11*
%TO.P,J6,1*%
%TO.N,TFT_LED*%
X104013000Y-62103000D03*
%TD*%
%TO.P,R6,2*%
%TO.N,FLASH*%
%TA.AperFunction,SMDPad,CuDef*%
G36*
G01*
X116147001Y-68511000D02*
X115246999Y-68511000D01*
G75*
G02*
X114997000Y-68261001I0J249999D01*
G01*
X114997000Y-67610999D01*
G75*
G02*
X115246999Y-67361000I249999J0D01*
G01*
X116147001Y-67361000D01*
G75*
G02*
X116397000Y-67610999I0J-249999D01*
G01*
X116397000Y-68261001D01*
G75*
G02*
X116147001Y-68511000I-249999J0D01*
G01*
G37*
%TD.AperFunction*%
%TO.P,R6,1*%
%TO.N,Net-(Q2-Pad3)*%
%TA.AperFunction,SMDPad,CuDef*%
G36*
G01*
X116147001Y-70561000D02*
X115246999Y-70561000D01*
G75*
G02*
X114997000Y-70311001I0J249999D01*
G01*
X114997000Y-69660999D01*
G75*
G02*
X115246999Y-69411000I249999J0D01*
G01*
X116147001Y-69411000D01*
G75*
G02*
X116397000Y-69660999I0J-249999D01*
G01*
X116397000Y-70311001D01*
G75*
G02*
X116147001Y-70561000I-249999J0D01*
G01*
G37*
%TD.AperFunction*%
%TD*%
D14*
%TO.P,SW2,2*%
%TO.N,GND*%
X130646000Y-86360000D03*
%TO.P,SW2,1*%
%TO.N,FLASH*%
X122846000Y-86360000D03*
%TD*%
%TO.P,SW1,2*%
%TO.N,RST*%
X119978000Y-86360000D03*
%TO.P,SW1,1*%
%TO.N,GND*%
X112178000Y-86360000D03*
%TD*%
D15*
%TO.P,U4,1*%
%TO.N,GND*%
X111902000Y-64517000D03*
%TO.P,U4,2*%
%TO.N,ESP_MISO*%
X109902000Y-64517000D03*
%TO.P,U4,3*%
%TO.N,ESP_MOSI*%
X107902000Y-64517000D03*
%TO.P,U4,4*%
%TO.N,ESP_SCK*%
X105902000Y-64517000D03*
%TO.P,U4,5*%
%TO.N,LoRa_NSS*%
X103902000Y-64517000D03*
%TO.P,U4,6*%
%TO.N,LoRa_RST*%
X101902000Y-64517000D03*
%TO.P,U4,7*%
%TO.N,Net-(U4-Pad7)*%
X99902000Y-64517000D03*
%TO.P,U4,8*%
%TO.N,GND*%
X97902000Y-64517000D03*
%TO.P,U4,9*%
%TO.N,Net-(J2-Pad3)*%
X97902000Y-80517000D03*
%TO.P,U4,10*%
%TO.N,GND*%
X99902000Y-80517000D03*
%TO.P,U4,11*%
%TO.N,Net-(U4-Pad11)*%
X101902000Y-80517000D03*
%TO.P,U4,12*%
%TO.N,Net-(U4-Pad12)*%
X103902000Y-80517000D03*
%TO.P,U4,13*%
%TO.N,+3V3*%
X105902000Y-80517000D03*
%TO.P,U4,14*%
%TO.N,LoRa_INT*%
X107902000Y-80517000D03*
%TO.P,U4,15*%
X109902000Y-80517000D03*
%TO.P,U4,16*%
%TO.N,Net-(U4-Pad16)*%
X111902000Y-80517000D03*
%TD*%
D16*
%TO.P,U1,1*%
%TO.N,GND*%
X123850000Y-75297000D03*
%TO.P,U1,3*%
%TO.N,Net-(C4-Pad1)*%
X123850000Y-79897000D03*
%TO.P,U1,2*%
%TO.N,+3V3*%
X123850000Y-77597000D03*
D17*
X130150000Y-77597000D03*
%TD*%
%TO.P,R10,2*%
%TO.N,Net-(R10-Pad2)*%
%TA.AperFunction,SMDPad,CuDef*%
G36*
G01*
X119830001Y-68257000D02*
X118929999Y-68257000D01*
G75*
G02*
X118680000Y-68007001I0J249999D01*
G01*
X118680000Y-67356999D01*
G75*
G02*
X118929999Y-67107000I249999J0D01*
G01*
X119830001Y-67107000D01*
G75*
G02*
X120080000Y-67356999I0J-249999D01*
G01*
X120080000Y-68007001D01*
G75*
G02*
X119830001Y-68257000I-249999J0D01*
G01*
G37*
%TD.AperFunction*%
%TO.P,R10,1*%
%TO.N,Net-(D2-Pad2)*%
%TA.AperFunction,SMDPad,CuDef*%
G36*
G01*
X119830001Y-70307000D02*
X118929999Y-70307000D01*
G75*
G02*
X118680000Y-70057001I0J249999D01*
G01*
X118680000Y-69406999D01*
G75*
G02*
X118929999Y-69157000I249999J0D01*
G01*
X119830001Y-69157000D01*
G75*
G02*
X120080000Y-69406999I0J-249999D01*
G01*
X120080000Y-70057001D01*
G75*
G02*
X119830001Y-70307000I-249999J0D01*
G01*
G37*
%TD.AperFunction*%
%TD*%
%TO.P,R8,2*%
%TO.N,FLASH*%
%TA.AperFunction,SMDPad,CuDef*%
G36*
G01*
X115385001Y-73083000D02*
X114484999Y-73083000D01*
G75*
G02*
X114235000Y-72833001I0J249999D01*
G01*
X114235000Y-72182999D01*
G75*
G02*
X114484999Y-71933000I249999J0D01*
G01*
X115385001Y-71933000D01*
G75*
G02*
X115635000Y-72182999I0J-249999D01*
G01*
X115635000Y-72833001D01*
G75*
G02*
X115385001Y-73083000I-249999J0D01*
G01*
G37*
%TD.AperFunction*%
%TO.P,R8,1*%
%TO.N,+3V3*%
%TA.AperFunction,SMDPad,CuDef*%
G36*
G01*
X115385001Y-75133000D02*
X114484999Y-75133000D01*
G75*
G02*
X114235000Y-74883001I0J249999D01*
G01*
X114235000Y-74232999D01*
G75*
G02*
X114484999Y-73983000I249999J0D01*
G01*
X115385001Y-73983000D01*
G75*
G02*
X115635000Y-74232999I0J-249999D01*
G01*
X115635000Y-74883001D01*
G75*
G02*
X115385001Y-75133000I-249999J0D01*
G01*
G37*
%TD.AperFunction*%
%TD*%
%TO.P,R7,2*%
%TO.N,RST*%
%TA.AperFunction,SMDPad,CuDef*%
G36*
G01*
X116889000Y-80956999D02*
X116889000Y-81857001D01*
G75*
G02*
X116639001Y-82107000I-249999J0D01*
G01*
X115988999Y-82107000D01*
G75*
G02*
X115739000Y-81857001I0J249999D01*
G01*
X115739000Y-80956999D01*
G75*
G02*
X115988999Y-80707000I249999J0D01*
G01*
X116639001Y-80707000D01*
G75*
G02*
X116889000Y-80956999I0J-249999D01*
G01*
G37*
%TD.AperFunction*%
%TO.P,R7,1*%
%TO.N,+3V3*%
%TA.AperFunction,SMDPad,CuDef*%
G36*
G01*
X118939000Y-80956999D02*
X118939000Y-81857001D01*
G75*
G02*
X118689001Y-82107000I-249999J0D01*
G01*
X118038999Y-82107000D01*
G75*
G02*
X117789000Y-81857001I0J249999D01*
G01*
X117789000Y-80956999D01*
G75*
G02*
X118038999Y-80707000I249999J0D01*
G01*
X118689001Y-80707000D01*
G75*
G02*
X118939000Y-80956999I0J-249999D01*
G01*
G37*
%TD.AperFunction*%
%TD*%
%TO.P,R5,2*%
%TO.N,Net-(Q1-Pad3)*%
%TA.AperFunction,SMDPad,CuDef*%
G36*
G01*
X117798000Y-79825001D02*
X117798000Y-78924999D01*
G75*
G02*
X118047999Y-78675000I249999J0D01*
G01*
X118698001Y-78675000D01*
G75*
G02*
X118948000Y-78924999I0J-249999D01*
G01*
X118948000Y-79825001D01*
G75*
G02*
X118698001Y-80075000I-249999J0D01*
G01*
X118047999Y-80075000D01*
G75*
G02*
X117798000Y-79825001I0J249999D01*
G01*
G37*
%TD.AperFunction*%
%TO.P,R5,1*%
%TO.N,RST*%
%TA.AperFunction,SMDPad,CuDef*%
G36*
G01*
X115748000Y-79825001D02*
X115748000Y-78924999D01*
G75*
G02*
X115997999Y-78675000I249999J0D01*
G01*
X116648001Y-78675000D01*
G75*
G02*
X116898000Y-78924999I0J-249999D01*
G01*
X116898000Y-79825001D01*
G75*
G02*
X116648001Y-80075000I-249999J0D01*
G01*
X115997999Y-80075000D01*
G75*
G02*
X115748000Y-79825001I0J249999D01*
G01*
G37*
%TD.AperFunction*%
%TD*%
D13*
%TO.P,J3,1*%
%TO.N,+3V3*%
X90424000Y-59817000D03*
D12*
%TO.P,J3,2*%
%TO.N,GND*%
X92964000Y-59817000D03*
%TO.P,J3,3*%
%TO.N,TFT_CS*%
X95504000Y-59817000D03*
%TO.P,J3,4*%
%TO.N,TFT_RESET*%
X98044000Y-59817000D03*
%TO.P,J3,5*%
%TO.N,TFT_DC*%
X100584000Y-59817000D03*
%TO.P,J3,6*%
%TO.N,ESP_MOSI*%
X103124000Y-59817000D03*
%TO.P,J3,7*%
%TO.N,ESP_SCK*%
X105664000Y-59817000D03*
%TO.P,J3,8*%
%TO.N,LED*%
X108204000Y-59817000D03*
%TO.P,J3,9*%
%TO.N,ESP_MISO*%
X110744000Y-59817000D03*
%TO.P,J3,10*%
%TO.N,ESP_SCK*%
X113284000Y-59817000D03*
%TO.P,J3,11*%
%TO.N,TOUCH_CS*%
X115824000Y-59817000D03*
%TO.P,J3,12*%
%TO.N,ESP_MOSI*%
X118364000Y-59817000D03*
%TO.P,J3,13*%
%TO.N,ESP_MISO*%
X120904000Y-59817000D03*
%TO.P,J3,14*%
%TO.N,Net-(J3-Pad14)*%
X123444000Y-59817000D03*
%TD*%
D18*
%TO.P,J2,3*%
%TO.N,Net-(J2-Pad3)*%
X94895000Y-80518000D03*
D19*
%TO.P,J2,2*%
%TO.N,GND*%
X93345000Y-79043000D03*
%TO.P,J2,1*%
X93345000Y-81993000D03*
%TD*%
D20*
%TO.P,J1,B11*%
%TO.N,Net-(J1-PadB11)*%
X124498000Y-65545000D03*
%TO.P,J1,B10*%
%TO.N,Net-(J1-PadB10)*%
X124498000Y-66345000D03*
%TO.P,J1,B8*%
%TO.N,Net-(J1-PadB8)*%
X124498000Y-67145000D03*
%TO.P,J1,B5*%
%TO.N,Net-(J1-PadB5)*%
X124498000Y-68745000D03*
%TO.P,J1,B3*%
%TO.N,Net-(J1-PadB3)*%
X124498000Y-69545000D03*
%TO.P,J1,B2*%
%TO.N,Net-(J1-PadB2)*%
X124498000Y-70345000D03*
%TO.P,J1,B12*%
%TO.N,GND*%
X123798000Y-65145000D03*
%TO.P,J1,B9*%
%TO.N,VBUS*%
X123798000Y-66745000D03*
%TO.P,J1,B7*%
%TO.N,D-*%
X123798000Y-67545000D03*
%TO.P,J1,B6*%
%TO.N,D+*%
X123798000Y-68345000D03*
%TO.P,J1,B4*%
%TO.N,VBUS*%
X123798000Y-69145000D03*
%TO.P,J1,B1*%
%TO.N,GND*%
X123798000Y-70745000D03*
D21*
%TO.P,J1,S1*%
X130348000Y-63455000D03*
X130348000Y-72435000D03*
X124398000Y-72075000D03*
X124398000Y-63815000D03*
%TD*%
%TO.P,D2,2*%
%TO.N,Net-(D2-Pad2)*%
%TA.AperFunction,SMDPad,CuDef*%
G36*
G01*
X118628000Y-72323000D02*
X118628000Y-73473000D01*
G75*
G02*
X118378000Y-73723000I-250000J0D01*
G01*
X117278000Y-73723000D01*
G75*
G02*
X117028000Y-73473000I0J250000D01*
G01*
X117028000Y-72323000D01*
G75*
G02*
X117278000Y-72073000I250000J0D01*
G01*
X118378000Y-72073000D01*
G75*
G02*
X118628000Y-72323000I0J-250000D01*
G01*
G37*
%TD.AperFunction*%
%TO.P,D2,1*%
%TO.N,GND*%
%TA.AperFunction,SMDPad,CuDef*%
G36*
G01*
X121478000Y-72323000D02*
X121478000Y-73473000D01*
G75*
G02*
X121228000Y-73723000I-250000J0D01*
G01*
X120128000Y-73723000D01*
G75*
G02*
X119878000Y-73473000I0J250000D01*
G01*
X119878000Y-72323000D01*
G75*
G02*
X120128000Y-72073000I250000J0D01*
G01*
X121228000Y-72073000D01*
G75*
G02*
X121478000Y-72323000I0J-250000D01*
G01*
G37*
%TD.AperFunction*%
%TD*%
%TO.P,C4,2*%
%TO.N,GND*%
%TA.AperFunction,SMDPad,CuDef*%
G36*
G01*
X121989001Y-77909000D02*
X121088999Y-77909000D01*
G75*
G02*
X120839000Y-77659001I0J249999D01*
G01*
X120839000Y-77008999D01*
G75*
G02*
X121088999Y-76759000I249999J0D01*
G01*
X121989001Y-76759000D01*
G75*
G02*
X122239000Y-77008999I0J-249999D01*
G01*
X122239000Y-77659001D01*
G75*
G02*
X121989001Y-77909000I-249999J0D01*
G01*
G37*
%TD.AperFunction*%
%TO.P,C4,1*%
%TO.N,Net-(C4-Pad1)*%
%TA.AperFunction,SMDPad,CuDef*%
G36*
G01*
X121989001Y-79959000D02*
X121088999Y-79959000D01*
G75*
G02*
X120839000Y-79709001I0J249999D01*
G01*
X120839000Y-79058999D01*
G75*
G02*
X121088999Y-78809000I249999J0D01*
G01*
X121989001Y-78809000D01*
G75*
G02*
X122239000Y-79058999I0J-249999D01*
G01*
X122239000Y-79709001D01*
G75*
G02*
X121989001Y-79959000I-249999J0D01*
G01*
G37*
%TD.AperFunction*%
%TD*%
%TO.P,C1,2*%
%TO.N,GND*%
%TA.AperFunction,SMDPad,CuDef*%
G36*
G01*
X121343000Y-81972999D02*
X121343000Y-82873001D01*
G75*
G02*
X121093001Y-83123000I-249999J0D01*
G01*
X120442999Y-83123000D01*
G75*
G02*
X120193000Y-82873001I0J249999D01*
G01*
X120193000Y-81972999D01*
G75*
G02*
X120442999Y-81723000I249999J0D01*
G01*
X121093001Y-81723000D01*
G75*
G02*
X121343000Y-81972999I0J-249999D01*
G01*
G37*
%TD.AperFunction*%
%TO.P,C1,1*%
%TO.N,Net-(C1-Pad1)*%
%TA.AperFunction,SMDPad,CuDef*%
G36*
G01*
X123393000Y-81972999D02*
X123393000Y-82873001D01*
G75*
G02*
X123143001Y-83123000I-249999J0D01*
G01*
X122492999Y-83123000D01*
G75*
G02*
X122243000Y-82873001I0J249999D01*
G01*
X122243000Y-81972999D01*
G75*
G02*
X122492999Y-81723000I249999J0D01*
G01*
X123143001Y-81723000D01*
G75*
G02*
X123393000Y-81972999I0J-249999D01*
G01*
G37*
%TD.AperFunction*%
%TD*%
D22*
%TO.N,GND*%
X110744000Y-84455000D03*
X125730000Y-74930000D03*
X98679000Y-66548000D03*
X99314000Y-78232000D03*
X120777000Y-71247000D03*
X125603000Y-78740000D03*
X119634000Y-76581000D03*
X112395000Y-82804000D03*
X112395000Y-84328000D03*
X130810000Y-80264000D03*
X91861640Y-84503260D03*
%TO.N,Net-(C1-Pad1)*%
X120142000Y-83820000D03*
%TO.N,Net-(C4-Pad1)*%
X119761000Y-79121000D03*
%TO.N,+3V3*%
X130556000Y-73406000D03*
X105918000Y-82169000D03*
%TO.N,VBUS*%
X120468000Y-66222000D03*
X121285000Y-69215000D03*
X116332000Y-72390000D03*
X115697000Y-84709000D03*
%TO.N,Net-(J1-PadB5)*%
X121539000Y-70104000D03*
%TO.N,D-*%
X126619000Y-67818000D03*
X129603500Y-67881500D03*
%TO.N,D+*%
X121412000Y-68072000D03*
X131699000Y-84582000D03*
%TO.N,ESP_MISO*%
X111126330Y-73023670D03*
%TO.N,ESP_MOSI*%
X108585000Y-66548000D03*
%TO.N,ESP_SCK*%
X105918000Y-62738000D03*
X106807000Y-67183000D03*
%TO.N,TFT_LED*%
X98171000Y-69215000D03*
%TO.N,TFT_DC*%
X93980000Y-69850000D03*
%TO.N,TFT_RESET*%
X94361000Y-66675000D03*
%TO.N,ESP_SCL*%
X110617000Y-78380000D03*
D23*
X93573600Y-72898000D03*
D22*
X93573600Y-71323200D03*
%TO.N,ESP_SDA*%
X110617000Y-75565000D03*
%TO.N,Net-(Q1-Pad3)*%
X120142000Y-80137000D03*
%TO.N,Net-(Q1-Pad2)*%
X128778000Y-84836000D03*
X118364000Y-88900000D03*
%TO.N,Net-(Q2-Pad3)*%
X116586000Y-71374000D03*
X127889000Y-73279000D03*
X128524000Y-76454000D03*
%TO.N,Net-(Q2-Pad2)*%
X127127000Y-78486000D03*
X119634000Y-88900000D03*
%TO.N,RST*%
X114427000Y-88900000D03*
X117221000Y-83439000D03*
%TO.N,FLASH*%
X114554000Y-65405000D03*
%TO.N,Net-(R10-Pad2)*%
X111379000Y-66548000D03*
%TO.N,RXD*%
X108870799Y-77704999D03*
%TO.N,TXD*%
X114554000Y-77597000D03*
X115633500Y-83248500D03*
X108864400Y-76835000D03*
%TO.N,LoRa_NSS*%
X110744000Y-67945000D03*
%TO.N,LoRa_RST*%
X110744000Y-69215000D03*
%TO.N,LoRa_INT*%
X110490000Y-70993000D03*
%TO.N,IO5*%
X111252000Y-70482700D03*
X92710000Y-69980002D03*
%TD*%
D24*
%TO.N,*%
X122174000Y-80645000D02*
X122174000Y-80691002D01*
%TO.N,GND*%
X124598000Y-74930000D02*
X124231000Y-75297000D01*
X125730000Y-74930000D02*
X124598000Y-74930000D01*
X92964000Y-59817000D02*
X92964000Y-63500000D01*
X93345000Y-81993000D02*
X93345000Y-79043000D01*
X99902000Y-80517000D02*
X99902000Y-78820000D01*
X99902000Y-78820000D02*
X99314000Y-78232000D01*
X99314000Y-78232000D02*
X99314000Y-78232000D01*
X97902000Y-64517000D02*
X97902000Y-65771000D01*
X97902000Y-65771000D02*
X98679000Y-66548000D01*
X98679000Y-66548000D02*
X98679000Y-66548000D01*
X111902000Y-64517000D02*
X113427000Y-62992000D01*
X124202999Y-63619999D02*
X124398000Y-63815000D01*
X122801999Y-63619999D02*
X124202999Y-63619999D01*
X122174000Y-62992000D02*
X122801999Y-63619999D01*
X113427000Y-62992000D02*
X122174000Y-62992000D01*
X125170001Y-81047001D02*
X122682000Y-81047001D01*
X122422532Y-81291012D02*
X121925468Y-81291012D01*
X122682000Y-81047001D02*
X122666543Y-81047001D01*
X122666543Y-81047001D02*
X122422532Y-81291012D01*
X121925468Y-81291012D02*
X121790228Y-81155772D01*
X121790228Y-81155772D02*
X121726728Y-81092272D01*
X121790228Y-81155772D02*
X121541772Y-81155772D01*
X121541772Y-81155772D02*
X121158000Y-80772000D01*
X112395000Y-82804000D02*
X112395000Y-84201000D01*
X112395000Y-84201000D02*
X112395000Y-84328000D01*
X112395000Y-84328000D02*
X112395000Y-84455000D01*
X130646000Y-86360000D02*
X130556000Y-86360000D01*
X126653990Y-90262010D02*
X113249010Y-90262010D01*
X130556000Y-86360000D02*
X126653990Y-90262010D01*
X113249010Y-90262010D02*
X111633000Y-88646000D01*
X130646000Y-80428000D02*
X130810000Y-80264000D01*
X130646000Y-86360000D02*
X130646000Y-80428000D01*
D25*
X91861640Y-83185514D02*
X91861640Y-84503260D01*
X93054154Y-81993000D02*
X91861640Y-83185514D01*
X93345000Y-81993000D02*
X93054154Y-81993000D01*
X89715340Y-89733120D02*
X91267280Y-89733120D01*
X91267280Y-89733120D02*
X91998800Y-89001600D01*
D24*
%TO.N,Net-(C1-Pad1)*%
X122818000Y-82423000D02*
X122818000Y-83430000D01*
X122818000Y-83430000D02*
X122301000Y-83947000D01*
X120269000Y-83947000D02*
X120142000Y-83820000D01*
X122301000Y-83947000D02*
X120269000Y-83947000D01*
%TO.N,Net-(C4-Pad1)*%
X121421000Y-79502000D02*
X121539000Y-79384000D01*
X123718000Y-79384000D02*
X124231000Y-79897000D01*
X121539000Y-79384000D02*
X123718000Y-79384000D01*
X121539000Y-79384000D02*
X121539000Y-79248000D01*
X121412000Y-79121000D02*
X119761000Y-79121000D01*
X121539000Y-79248000D02*
X121412000Y-79121000D01*
%TO.N,+3V3*%
X123981000Y-77597000D02*
X124231000Y-77597000D01*
X124231000Y-77597000D02*
X126111000Y-77597000D01*
X118364000Y-81407000D02*
X118364000Y-83693000D01*
X130556000Y-74422000D02*
X130556000Y-73406000D01*
X130531000Y-74447000D02*
X130556000Y-74422000D01*
X130531000Y-77597000D02*
X130531000Y-74447000D01*
X118364000Y-84201000D02*
X118364000Y-83693000D01*
X118364000Y-84201000D02*
X119486998Y-84201000D01*
X119888000Y-84602002D02*
X124693998Y-84602002D01*
X119486998Y-84201000D02*
X119888000Y-84602002D01*
X89535000Y-60706000D02*
X90424000Y-59817000D01*
X89535000Y-64389000D02*
X89535000Y-60706000D01*
X123496256Y-77597000D02*
X123850000Y-77597000D01*
X114935000Y-74558000D02*
X114935000Y-74803000D01*
X105902000Y-82153000D02*
X105918000Y-82169000D01*
X105902000Y-80517000D02*
X105902000Y-82153000D01*
X108839000Y-82169000D02*
X105918000Y-82169000D01*
X109220000Y-82550000D02*
X108839000Y-82169000D01*
X124693998Y-86634002D02*
X123317000Y-88011000D01*
X123317000Y-88011000D02*
X116713000Y-88011000D01*
X113726999Y-89469999D02*
X113726999Y-85790001D01*
X113665000Y-85728002D02*
X113665000Y-85344000D01*
X115062000Y-89662000D02*
X113919000Y-89662000D01*
X124693998Y-84602002D02*
X124693998Y-86634002D01*
X113919000Y-89662000D02*
X113726999Y-89469999D01*
X116713000Y-88011000D02*
X115062000Y-89662000D01*
X113726999Y-85790001D02*
X113665000Y-85728002D01*
X110871000Y-82550000D02*
X109220000Y-82550000D01*
X89535000Y-79629000D02*
X88519000Y-79629000D01*
X88519000Y-79629000D02*
X87884000Y-78994000D01*
X87884000Y-78994000D02*
X87884000Y-65151000D01*
X88646000Y-64389000D02*
X89535000Y-64389000D01*
X87884000Y-65151000D02*
X88646000Y-64389000D01*
X124693998Y-84602002D02*
X125709998Y-84602002D01*
X125709998Y-84602002D02*
X126426999Y-83885001D01*
X126111000Y-77597000D02*
X126746000Y-77597000D01*
X126426999Y-77916001D02*
X126746000Y-77597000D01*
X126426999Y-83885001D02*
X126426999Y-77916001D01*
X126746000Y-77597000D02*
X130531000Y-77597000D01*
X115772980Y-74558000D02*
X114935000Y-74558000D01*
X115908980Y-74422000D02*
X115772980Y-74558000D01*
X122350990Y-78309010D02*
X120092010Y-78309010D01*
X123850000Y-77597000D02*
X123063000Y-77597000D01*
X123063000Y-77597000D02*
X122350990Y-78309010D01*
X118110000Y-76327000D02*
X118110000Y-74422000D01*
X120092010Y-78309010D02*
X118110000Y-76327000D01*
X118110000Y-74422000D02*
X115908980Y-74422000D01*
X110871000Y-83000298D02*
X110998000Y-83127298D01*
X110871000Y-82550000D02*
X110871000Y-83000298D01*
X110998000Y-83127298D02*
X110998000Y-83566000D01*
X110998000Y-83566000D02*
X111506000Y-84074000D01*
X111506000Y-84074000D02*
X111506000Y-84963000D01*
X111506000Y-84963000D02*
X111633000Y-85090000D01*
X113411000Y-85090000D02*
X113665000Y-85344000D01*
X111633000Y-85090000D02*
X113411000Y-85090000D01*
%TO.N,VBUS*%
X120468000Y-66222000D02*
X120480010Y-66234010D01*
X120904000Y-69215000D02*
X121285000Y-69215000D01*
X121285000Y-69215000D02*
X121285000Y-69215000D01*
X116332000Y-72390000D02*
X116332000Y-73279000D01*
X116127990Y-73483010D02*
X113742010Y-73483010D01*
X116332000Y-73279000D02*
X116127990Y-73483010D01*
X113742010Y-73483010D02*
X113742010Y-82754010D01*
X113742010Y-82754010D02*
X115697000Y-84709000D01*
X115697000Y-84709000D02*
X115697000Y-84709000D01*
X120468000Y-66222000D02*
X120468000Y-66620000D01*
X120711999Y-66863999D02*
X120711999Y-68514999D01*
X120468000Y-66620000D02*
X120711999Y-66863999D01*
X120904000Y-68707000D02*
X120904000Y-69215000D01*
X120711999Y-68514999D02*
X120904000Y-68707000D01*
%TO.N,Net-(D2-Pad2)*%
X117828000Y-71284000D02*
X119380000Y-69732000D01*
X117828000Y-72898000D02*
X117828000Y-71284000D01*
D26*
%TO.N,Net-(J1-PadB5)*%
X124957619Y-68745000D02*
X125730000Y-69517381D01*
X124498000Y-68745000D02*
X124957619Y-68745000D01*
X125730000Y-69517381D02*
X125730000Y-72517000D01*
X125446990Y-72800010D02*
X122965010Y-72800010D01*
X125730000Y-72517000D02*
X125446990Y-72800010D01*
X122965010Y-72800010D02*
X122428000Y-72263000D01*
X122428000Y-72263000D02*
X122428000Y-70104000D01*
X122428000Y-70104000D02*
X121539000Y-70104000D01*
X121539000Y-70104000D02*
X121539000Y-70104000D01*
D24*
%TO.N,D-*%
X126682500Y-67881500D02*
X126619000Y-67818000D01*
X129603500Y-67881500D02*
X126682500Y-67881500D01*
D26*
%TO.N,D+*%
X121685000Y-68345000D02*
X121412000Y-68072000D01*
X123798000Y-68345000D02*
X121685000Y-68345000D01*
X123798000Y-68345000D02*
X123935998Y-68345000D01*
X124185999Y-68094999D02*
X126006999Y-68094999D01*
X123935998Y-68345000D02*
X124185999Y-68094999D01*
X126006999Y-68094999D02*
X126619000Y-68707000D01*
X126619000Y-68707000D02*
X126619000Y-68707000D01*
D24*
X126619000Y-68707000D02*
X129032000Y-68707000D01*
X129667000Y-68707000D02*
X131699000Y-70739000D01*
X129032000Y-68707000D02*
X129667000Y-68707000D01*
X131699000Y-70739000D02*
X131699000Y-81407000D01*
X131699000Y-81407000D02*
X131699000Y-84582000D01*
X131699000Y-84582000D02*
X131699000Y-84582000D01*
D27*
%TO.N,Net-(J2-Pad3)*%
X94896000Y-80517000D02*
X94895000Y-80518000D01*
X97902000Y-80517000D02*
X94896000Y-80517000D01*
D24*
%TO.N,ESP_MISO*%
X109902000Y-60659000D02*
X110744000Y-59817000D01*
X109902000Y-64517000D02*
X109902000Y-60659000D01*
X111126330Y-73023670D02*
X112014000Y-72136000D01*
X109902000Y-66066998D02*
X109902000Y-64517000D01*
X112014000Y-68178998D02*
X109902000Y-66066998D01*
X112014000Y-72136000D02*
X112014000Y-68178998D01*
X110744000Y-59817000D02*
X110744000Y-60960000D01*
X110744000Y-60960000D02*
X111252000Y-61468000D01*
X111252000Y-61468000D02*
X120269000Y-61468000D01*
X120904000Y-60833000D02*
X120904000Y-59817000D01*
X120269000Y-61468000D02*
X120904000Y-60833000D01*
%TO.N,ESP_MOSI*%
X107902000Y-62690000D02*
X107902000Y-64517000D01*
X107442000Y-62230000D02*
X107902000Y-62690000D01*
X103124000Y-59817000D02*
X103124000Y-60706000D01*
X103124000Y-60706000D02*
X103505000Y-61087000D01*
X116840000Y-58293000D02*
X118364000Y-59817000D01*
X104140000Y-58293000D02*
X116840000Y-58293000D01*
X103124000Y-59817000D02*
X103124000Y-59309000D01*
X103124000Y-59309000D02*
X104140000Y-58293000D01*
X107902000Y-64517000D02*
X107902000Y-65865000D01*
X107902000Y-65865000D02*
X108585000Y-66548000D01*
X108585000Y-66548000D02*
X108585000Y-66548000D01*
D25*
X107188000Y-61976000D02*
X107442000Y-62230000D01*
X103505000Y-61087000D02*
X104902000Y-61087000D01*
X105791000Y-61976000D02*
X107188000Y-61976000D01*
X104902000Y-61087000D02*
X105791000Y-61976000D01*
D24*
%TO.N,ESP_SCK*%
X105918000Y-64501000D02*
X105902000Y-64517000D01*
X105918000Y-62738000D02*
X105918000Y-64501000D01*
X105902000Y-66278000D02*
X106807000Y-67183000D01*
X105902000Y-64517000D02*
X105902000Y-66278000D01*
%TO.N,TFT_LED*%
X100203000Y-62865000D02*
X97028000Y-62865000D01*
X97028000Y-62865000D02*
X96139000Y-63754000D01*
X96139000Y-63754000D02*
X96139000Y-67183000D01*
X96139000Y-67183000D02*
X98171000Y-69215000D01*
X98171000Y-69215000D02*
X98171000Y-69215000D01*
D25*
X100316001Y-62978001D02*
X100824001Y-62978001D01*
X100203000Y-62865000D02*
X100316001Y-62978001D01*
X100824001Y-62978001D02*
X100838000Y-62992000D01*
X100838000Y-62992000D02*
X103759000Y-62992000D01*
X104013000Y-62738000D02*
X104013000Y-62103000D01*
X103759000Y-62992000D02*
X104013000Y-62738000D01*
D24*
%TO.N,TFT_DC*%
X100584000Y-59817000D02*
X99060000Y-61341000D01*
X96479542Y-62230000D02*
X95971542Y-62738000D01*
X96774000Y-62230000D02*
X96479542Y-62230000D01*
X95971542Y-62738000D02*
X95504000Y-62738000D01*
X95504000Y-62738000D02*
X95250000Y-62992000D01*
X95250000Y-66822002D02*
X94488000Y-67584002D01*
X95250000Y-62992000D02*
X95250000Y-66822002D01*
X94488000Y-69342000D02*
X93980000Y-69850000D01*
X94488000Y-67584002D02*
X94488000Y-69342000D01*
D25*
X98171000Y-62230000D02*
X99060000Y-61341000D01*
X96774000Y-62230000D02*
X98171000Y-62230000D01*
D24*
%TO.N,TFT_RESET*%
X98044000Y-59817000D02*
X96012000Y-61849000D01*
X96012000Y-61849000D02*
X94742000Y-61849000D01*
X94361000Y-62230000D02*
X94361000Y-66675000D01*
X94742000Y-61849000D02*
X94361000Y-62230000D01*
%TO.N,ESP_SCL*%
X110617000Y-78380000D02*
X110617000Y-77597000D01*
D25*
X93980000Y-72898000D02*
X93980000Y-72898000D01*
X91676220Y-71356220D02*
X89662000Y-69342000D01*
X91683840Y-71348600D02*
X91676220Y-71356220D01*
X93548200Y-71348600D02*
X91683840Y-71348600D01*
X110744000Y-76240001D02*
X110744000Y-77470000D01*
X96665832Y-72898000D02*
X97681832Y-71882000D01*
X93573600Y-72898000D02*
X96665832Y-72898000D01*
X97681832Y-71882000D02*
X105079800Y-71882000D01*
X110744000Y-77470000D02*
X110617000Y-77597000D01*
X105079800Y-71882000D02*
X109437801Y-76240001D01*
X109437801Y-76240001D02*
X110744000Y-76240001D01*
X89662000Y-84582000D02*
X91777820Y-82466180D01*
X92227400Y-72898000D02*
X93573600Y-72898000D01*
X91777820Y-73347580D02*
X92227400Y-72898000D01*
X91777820Y-82466180D02*
X91777820Y-73347580D01*
D24*
%TO.N,ESP_SDA*%
X89662000Y-71882000D02*
X89535000Y-72009000D01*
X110617000Y-75565000D02*
X109855000Y-75565000D01*
X109855000Y-75565000D02*
X105475001Y-71185001D01*
D25*
X96663003Y-72122999D02*
X97601001Y-71185001D01*
X89662000Y-71882000D02*
X89902999Y-72122999D01*
X97601001Y-71185001D02*
X105475001Y-71185001D01*
X89902999Y-72122999D02*
X96663003Y-72122999D01*
X89662000Y-87122000D02*
X88145620Y-85605620D01*
X88145620Y-81745378D02*
X89091058Y-80799940D01*
X88145620Y-85605620D02*
X88145620Y-81745378D01*
X90739062Y-80799940D02*
X91094560Y-80444442D01*
X89091058Y-80799940D02*
X90739062Y-80799940D01*
X91094560Y-73314560D02*
X89662000Y-71882000D01*
X91094560Y-80444442D02*
X91094560Y-73314560D01*
D24*
%TO.N,Net-(Q1-Pad3)*%
X118373000Y-79375000D02*
X118373000Y-79384000D01*
X119135000Y-80137000D02*
X120142000Y-80137000D01*
X118373000Y-79375000D02*
X119135000Y-80137000D01*
%TO.N,Net-(Q1-Pad2)*%
X118556001Y-89600001D02*
X118364000Y-89408000D01*
X125885998Y-88900000D02*
X125857000Y-88900000D01*
X118364000Y-89408000D02*
X118364000Y-88900000D01*
X125857000Y-88900000D02*
X125156999Y-89600001D01*
X125156999Y-89600001D02*
X118556001Y-89600001D01*
X128778000Y-85979000D02*
X128778000Y-84836000D01*
X125857000Y-88900000D02*
X128778000Y-85979000D01*
%TO.N,Net-(Q2-Pad3)*%
X115697000Y-69986000D02*
X115697000Y-70485000D01*
X115697000Y-70485000D02*
X116586000Y-71374000D01*
X116586000Y-71374000D02*
X116586000Y-71374000D01*
X127889000Y-73279000D02*
X127889000Y-75819000D01*
X127889000Y-75819000D02*
X128524000Y-76454000D01*
X128524000Y-76454000D02*
X128524000Y-76454000D01*
%TO.N,Net-(Q2-Pad2)*%
X124587000Y-88900000D02*
X119634000Y-88900000D01*
X127127000Y-86360000D02*
X124587000Y-88900000D01*
X127127000Y-78486000D02*
X127127000Y-86360000D01*
%TO.N,RST*%
X116323000Y-81398000D02*
X116314000Y-81407000D01*
X116323000Y-79375000D02*
X116323000Y-81398000D01*
X116967000Y-86360000D02*
X114427000Y-88900000D01*
X119978000Y-86360000D02*
X116967000Y-86360000D01*
X116314000Y-81407000D02*
X116314000Y-82532000D01*
X116314000Y-82532000D02*
X117221000Y-83439000D01*
X117221000Y-83439000D02*
X117221000Y-83439000D01*
%TO.N,FLASH*%
X115697000Y-67936000D02*
X114944000Y-67936000D01*
X114596990Y-68283010D02*
X114596990Y-71797990D01*
X114944000Y-67936000D02*
X114596990Y-68283010D01*
X115307000Y-72508000D02*
X115443000Y-72508000D01*
X114596990Y-71797990D02*
X115307000Y-72508000D01*
X114554000Y-66167000D02*
X114554000Y-65405000D01*
X115697000Y-67691000D02*
X115697000Y-67310000D01*
X115697000Y-67310000D02*
X114554000Y-66167000D01*
X113868478Y-72508000D02*
X113030000Y-73346478D01*
X113030000Y-79174998D02*
X113142000Y-79286998D01*
X113030000Y-73346478D02*
X113030000Y-79174998D01*
X114935000Y-72508000D02*
X113868478Y-72508000D01*
X121695999Y-85209999D02*
X122846000Y-86360000D01*
X113142000Y-83002542D02*
X113157000Y-83017542D01*
X113142000Y-79286998D02*
X113142000Y-83002542D01*
X114808000Y-85471000D02*
X117856000Y-85471000D01*
X113157000Y-83017542D02*
X113157000Y-83820000D01*
X113157000Y-83820000D02*
X114808000Y-85471000D01*
X117856000Y-85471000D02*
X118117001Y-85209999D01*
X118117001Y-85209999D02*
X121695999Y-85209999D01*
%TO.N,Net-(R10-Pad2)*%
X113411000Y-66294000D02*
X113157000Y-66548000D01*
X113157000Y-66548000D02*
X111379000Y-66548000D01*
X111379000Y-66548000D02*
X111379000Y-66548000D01*
X113411000Y-66294000D02*
X113411000Y-64897000D01*
X116402999Y-64704999D02*
X119380000Y-67682000D01*
X113603001Y-64704999D02*
X116402999Y-64704999D01*
X113411000Y-64897000D02*
X113603001Y-64704999D01*
D25*
%TO.N,RXD*%
X94403010Y-77385010D02*
X93446600Y-76428600D01*
X99508410Y-77385010D02*
X94403010Y-77385010D01*
X99828399Y-77704999D02*
X99508410Y-77385010D01*
X108870799Y-77704999D02*
X99828399Y-77704999D01*
D24*
%TO.N,TXD*%
X114554000Y-82169000D02*
X115633500Y-83248500D01*
X114554000Y-77597000D02*
X114554000Y-82169000D01*
D25*
X95123000Y-76835000D02*
X93446600Y-75158600D01*
X108864400Y-76835000D02*
X95123000Y-76835000D01*
D24*
%TO.N,LoRa_NSS*%
X103902000Y-65917000D02*
X105549000Y-67564000D01*
X103902000Y-64517000D02*
X103902000Y-65917000D01*
X105549000Y-67564000D02*
X105549000Y-67576000D01*
X105549000Y-67576000D02*
X105918000Y-67945000D01*
X105918000Y-67945000D02*
X110744000Y-67945000D01*
X110744000Y-67945000D02*
X110744000Y-67945000D01*
%TO.N,LoRa_RST*%
X101902000Y-65917000D02*
X105200000Y-69215000D01*
X101902000Y-64517000D02*
X101902000Y-65917000D01*
X105200000Y-69215000D02*
X110744000Y-69215000D01*
X110744000Y-69215000D02*
X110744000Y-69215000D01*
%TO.N,LoRa_INT*%
X110490000Y-74168000D02*
X110744000Y-74168000D01*
X110744000Y-74168000D02*
X111506000Y-74930000D01*
X111506000Y-78527002D02*
X110658002Y-79375000D01*
X111506000Y-74930000D02*
X111506000Y-78527002D01*
X110658002Y-79375000D02*
X110109000Y-79375000D01*
X109902000Y-79582000D02*
X109902000Y-80517000D01*
X110109000Y-79375000D02*
X109902000Y-79582000D01*
X110236000Y-73914000D02*
X110490000Y-74168000D01*
X110236000Y-71247000D02*
X110236000Y-73914000D01*
X110490000Y-70993000D02*
X110236000Y-71247000D01*
D27*
X107902000Y-80517000D02*
X109902000Y-80517000D01*
D24*
%TO.N,IO5*%
X111252000Y-70482700D02*
X110873300Y-70104000D01*
X110873300Y-70104000D02*
X97917000Y-70104000D01*
X97470999Y-70550001D02*
X93283001Y-70550001D01*
X97917000Y-70104000D02*
X97470999Y-70550001D01*
X93279999Y-70550001D02*
X92710000Y-69980002D01*
X93283001Y-70550001D02*
X93279999Y-70550001D01*
X92710000Y-69980002D02*
X92710000Y-69980002D01*
%TD*%
D28*
%TO.N,GND*%
G36*
X128511928Y-79497000D02*
G01*
X128524188Y-79621482D01*
X128560498Y-79741180D01*
X128619463Y-79851494D01*
X128698815Y-79948185D01*
X128795506Y-80027537D01*
X128905820Y-80086502D01*
X129025518Y-80122812D01*
X129150000Y-80135072D01*
X130864001Y-80135072D01*
X130864001Y-81365972D01*
X130864000Y-81365982D01*
X130864001Y-84154594D01*
X130799932Y-84309271D01*
X130764000Y-84489911D01*
X130764000Y-84674089D01*
X130799932Y-84854729D01*
X130870414Y-85024889D01*
X130874999Y-85031751D01*
X130773000Y-85133750D01*
X130773000Y-86233000D01*
X130793000Y-86233000D01*
X130793000Y-86487000D01*
X130773000Y-86487000D01*
X130773000Y-87586250D01*
X130931750Y-87745000D01*
X131396000Y-87748072D01*
X131520482Y-87735812D01*
X131640180Y-87699502D01*
X131674001Y-87681424D01*
X131674001Y-89631801D01*
X131653674Y-89839113D01*
X131602240Y-90009472D01*
X131518689Y-90166607D01*
X131406213Y-90304515D01*
X131269094Y-90417950D01*
X131112554Y-90502591D01*
X130942546Y-90555217D01*
X130737195Y-90576800D01*
X90926167Y-90581572D01*
X90986981Y-90500040D01*
X91112165Y-90237219D01*
X91156816Y-90090010D01*
X91035495Y-89860120D01*
X89842340Y-89860120D01*
X89842340Y-89880120D01*
X89588340Y-89880120D01*
X89588340Y-89860120D01*
X88395185Y-89860120D01*
X88273864Y-90090010D01*
X88318515Y-90237219D01*
X88443699Y-90500040D01*
X88504730Y-90581862D01*
X88297239Y-90581887D01*
X88171797Y-90569588D01*
X88082145Y-90542520D01*
X87999456Y-90498553D01*
X87926886Y-90439367D01*
X87867190Y-90367207D01*
X87822646Y-90284825D01*
X87794955Y-90195367D01*
X87782000Y-90072113D01*
X87782000Y-86387512D01*
X88265349Y-86870861D01*
X88230340Y-87046860D01*
X88230340Y-87339380D01*
X88287408Y-87626278D01*
X88399350Y-87896531D01*
X88561865Y-88139752D01*
X88768708Y-88346595D01*
X88950874Y-88468315D01*
X88833985Y-88537942D01*
X88617752Y-88732851D01*
X88443699Y-88966200D01*
X88318515Y-89229021D01*
X88273864Y-89376230D01*
X88395185Y-89606120D01*
X89588340Y-89606120D01*
X89588340Y-89586120D01*
X89842340Y-89586120D01*
X89842340Y-89606120D01*
X91035495Y-89606120D01*
X91156816Y-89376230D01*
X91112165Y-89229021D01*
X90986981Y-88966200D01*
X90812928Y-88732851D01*
X90596695Y-88537942D01*
X90479806Y-88468315D01*
X90661972Y-88346595D01*
X90868815Y-88139752D01*
X91031330Y-87896531D01*
X91143272Y-87626278D01*
X91200340Y-87339380D01*
X91200340Y-87046860D01*
X91143272Y-86759962D01*
X91031330Y-86489709D01*
X90868815Y-86246488D01*
X90661972Y-86039645D01*
X90487580Y-85923120D01*
X90661972Y-85806595D01*
X90868815Y-85599752D01*
X91031330Y-85356531D01*
X91143272Y-85086278D01*
X91200340Y-84799380D01*
X91200340Y-84506860D01*
X91147632Y-84241881D01*
X92209477Y-83180036D01*
X92220000Y-83181072D01*
X92329000Y-83180673D01*
X92329000Y-89598500D01*
X92331353Y-89622835D01*
X92338496Y-89646684D01*
X92350154Y-89668683D01*
X92365880Y-89687984D01*
X92385069Y-89703846D01*
X92406983Y-89715660D01*
X92430782Y-89722971D01*
X92455550Y-89725499D01*
X110362550Y-89788999D01*
X110387776Y-89786560D01*
X110411601Y-89779333D01*
X110433557Y-89767597D01*
X110452803Y-89751803D01*
X110468597Y-89732557D01*
X110480333Y-89710601D01*
X110487560Y-89686776D01*
X110490000Y-89662000D01*
X110490000Y-87110000D01*
X110789928Y-87110000D01*
X110802188Y-87234482D01*
X110838498Y-87354180D01*
X110897463Y-87464494D01*
X110976815Y-87561185D01*
X111073506Y-87640537D01*
X111183820Y-87699502D01*
X111303518Y-87735812D01*
X111428000Y-87748072D01*
X111892250Y-87745000D01*
X112051000Y-87586250D01*
X112051000Y-86487000D01*
X110951750Y-86487000D01*
X110793000Y-86645750D01*
X110789928Y-87110000D01*
X110490000Y-87110000D01*
X110490000Y-84238867D01*
X110671000Y-84419867D01*
X110671000Y-84921982D01*
X110666960Y-84963000D01*
X110683082Y-85126688D01*
X110730828Y-85284086D01*
X110806106Y-85424920D01*
X110808365Y-85429146D01*
X110816340Y-85438864D01*
X110802188Y-85485518D01*
X110789928Y-85610000D01*
X110793000Y-86074250D01*
X110951750Y-86233000D01*
X112051000Y-86233000D01*
X112051000Y-86213000D01*
X112305000Y-86213000D01*
X112305000Y-86233000D01*
X112325000Y-86233000D01*
X112325000Y-86487000D01*
X112305000Y-86487000D01*
X112305000Y-87586250D01*
X112463750Y-87745000D01*
X112891999Y-87747834D01*
X112891999Y-89428980D01*
X112887959Y-89469999D01*
X112891999Y-89511017D01*
X112904081Y-89633687D01*
X112951827Y-89791085D01*
X113029363Y-89936144D01*
X113133708Y-90063290D01*
X113165578Y-90089445D01*
X113299554Y-90223421D01*
X113325709Y-90255291D01*
X113452854Y-90359636D01*
X113597913Y-90437172D01*
X113755311Y-90484918D01*
X113877981Y-90497000D01*
X113877991Y-90497000D01*
X113918999Y-90501039D01*
X113960007Y-90497000D01*
X115020982Y-90497000D01*
X115062000Y-90501040D01*
X115103018Y-90497000D01*
X115103019Y-90497000D01*
X115225689Y-90484918D01*
X115383087Y-90437172D01*
X115528146Y-90359636D01*
X115655291Y-90255291D01*
X115681446Y-90223421D01*
X117058869Y-88846000D01*
X117429000Y-88846000D01*
X117429000Y-88992089D01*
X117464932Y-89172729D01*
X117529000Y-89327404D01*
X117529000Y-89366982D01*
X117524960Y-89408000D01*
X117529000Y-89449018D01*
X117541082Y-89571688D01*
X117588828Y-89729086D01*
X117666364Y-89874145D01*
X117770709Y-90001291D01*
X117802579Y-90027446D01*
X117936555Y-90161422D01*
X117962710Y-90193292D01*
X118089855Y-90297637D01*
X118234914Y-90375173D01*
X118392312Y-90422919D01*
X118514982Y-90435001D01*
X118514992Y-90435001D01*
X118556000Y-90439040D01*
X118597008Y-90435001D01*
X125115981Y-90435001D01*
X125156999Y-90439041D01*
X125198017Y-90435001D01*
X125198018Y-90435001D01*
X125320688Y-90422919D01*
X125478086Y-90375173D01*
X125623145Y-90297637D01*
X125750290Y-90193292D01*
X125776444Y-90161423D01*
X126326555Y-89611314D01*
X126352144Y-89597636D01*
X126479289Y-89493291D01*
X126583634Y-89366146D01*
X126597313Y-89340554D01*
X129260793Y-86677076D01*
X129257928Y-87110000D01*
X129270188Y-87234482D01*
X129306498Y-87354180D01*
X129365463Y-87464494D01*
X129444815Y-87561185D01*
X129541506Y-87640537D01*
X129651820Y-87699502D01*
X129771518Y-87735812D01*
X129896000Y-87748072D01*
X130360250Y-87745000D01*
X130519000Y-87586250D01*
X130519000Y-86487000D01*
X130499000Y-86487000D01*
X130499000Y-86233000D01*
X130519000Y-86233000D01*
X130519000Y-85133750D01*
X130360250Y-84975000D01*
X129896000Y-84971928D01*
X129771518Y-84984188D01*
X129697367Y-85006682D01*
X129713000Y-84928089D01*
X129713000Y-84743911D01*
X129677068Y-84563271D01*
X129606586Y-84393111D01*
X129504262Y-84239972D01*
X129374028Y-84109738D01*
X129220889Y-84007414D01*
X129050729Y-83936932D01*
X128870089Y-83901000D01*
X128685911Y-83901000D01*
X128505271Y-83936932D01*
X128335111Y-84007414D01*
X128181972Y-84109738D01*
X128051738Y-84239972D01*
X127962000Y-84374275D01*
X127962000Y-78913404D01*
X128026068Y-78758729D01*
X128062000Y-78578089D01*
X128062000Y-78432000D01*
X128511928Y-78432000D01*
X128511928Y-79497000D01*
G37*
X128511928Y-79497000D02*
X128524188Y-79621482D01*
X128560498Y-79741180D01*
X128619463Y-79851494D01*
X128698815Y-79948185D01*
X128795506Y-80027537D01*
X128905820Y-80086502D01*
X129025518Y-80122812D01*
X129150000Y-80135072D01*
X130864001Y-80135072D01*
X130864001Y-81365972D01*
X130864000Y-81365982D01*
X130864001Y-84154594D01*
X130799932Y-84309271D01*
X130764000Y-84489911D01*
X130764000Y-84674089D01*
X130799932Y-84854729D01*
X130870414Y-85024889D01*
X130874999Y-85031751D01*
X130773000Y-85133750D01*
X130773000Y-86233000D01*
X130793000Y-86233000D01*
X130793000Y-86487000D01*
X130773000Y-86487000D01*
X130773000Y-87586250D01*
X130931750Y-87745000D01*
X131396000Y-87748072D01*
X131520482Y-87735812D01*
X131640180Y-87699502D01*
X131674001Y-87681424D01*
X131674001Y-89631801D01*
X131653674Y-89839113D01*
X131602240Y-90009472D01*
X131518689Y-90166607D01*
X131406213Y-90304515D01*
X131269094Y-90417950D01*
X131112554Y-90502591D01*
X130942546Y-90555217D01*
X130737195Y-90576800D01*
X90926167Y-90581572D01*
X90986981Y-90500040D01*
X91112165Y-90237219D01*
X91156816Y-90090010D01*
X91035495Y-89860120D01*
X89842340Y-89860120D01*
X89842340Y-89880120D01*
X89588340Y-89880120D01*
X89588340Y-89860120D01*
X88395185Y-89860120D01*
X88273864Y-90090010D01*
X88318515Y-90237219D01*
X88443699Y-90500040D01*
X88504730Y-90581862D01*
X88297239Y-90581887D01*
X88171797Y-90569588D01*
X88082145Y-90542520D01*
X87999456Y-90498553D01*
X87926886Y-90439367D01*
X87867190Y-90367207D01*
X87822646Y-90284825D01*
X87794955Y-90195367D01*
X87782000Y-90072113D01*
X87782000Y-86387512D01*
X88265349Y-86870861D01*
X88230340Y-87046860D01*
X88230340Y-87339380D01*
X88287408Y-87626278D01*
X88399350Y-87896531D01*
X88561865Y-88139752D01*
X88768708Y-88346595D01*
X88950874Y-88468315D01*
X88833985Y-88537942D01*
X88617752Y-88732851D01*
X88443699Y-88966200D01*
X88318515Y-89229021D01*
X88273864Y-89376230D01*
X88395185Y-89606120D01*
X89588340Y-89606120D01*
X89588340Y-89586120D01*
X89842340Y-89586120D01*
X89842340Y-89606120D01*
X91035495Y-89606120D01*
X91156816Y-89376230D01*
X91112165Y-89229021D01*
X90986981Y-88966200D01*
X90812928Y-88732851D01*
X90596695Y-88537942D01*
X90479806Y-88468315D01*
X90661972Y-88346595D01*
X90868815Y-88139752D01*
X91031330Y-87896531D01*
X91143272Y-87626278D01*
X91200340Y-87339380D01*
X91200340Y-87046860D01*
X91143272Y-86759962D01*
X91031330Y-86489709D01*
X90868815Y-86246488D01*
X90661972Y-86039645D01*
X90487580Y-85923120D01*
X90661972Y-85806595D01*
X90868815Y-85599752D01*
X91031330Y-85356531D01*
X91143272Y-85086278D01*
X91200340Y-84799380D01*
X91200340Y-84506860D01*
X91147632Y-84241881D01*
X92209477Y-83180036D01*
X92220000Y-83181072D01*
X92329000Y-83180673D01*
X92329000Y-89598500D01*
X92331353Y-89622835D01*
X92338496Y-89646684D01*
X92350154Y-89668683D01*
X92365880Y-89687984D01*
X92385069Y-89703846D01*
X92406983Y-89715660D01*
X92430782Y-89722971D01*
X92455550Y-89725499D01*
X110362550Y-89788999D01*
X110387776Y-89786560D01*
X110411601Y-89779333D01*
X110433557Y-89767597D01*
X110452803Y-89751803D01*
X110468597Y-89732557D01*
X110480333Y-89710601D01*
X110487560Y-89686776D01*
X110490000Y-89662000D01*
X110490000Y-87110000D01*
X110789928Y-87110000D01*
X110802188Y-87234482D01*
X110838498Y-87354180D01*
X110897463Y-87464494D01*
X110976815Y-87561185D01*
X111073506Y-87640537D01*
X111183820Y-87699502D01*
X111303518Y-87735812D01*
X111428000Y-87748072D01*
X111892250Y-87745000D01*
X112051000Y-87586250D01*
X112051000Y-86487000D01*
X110951750Y-86487000D01*
X110793000Y-86645750D01*
X110789928Y-87110000D01*
X110490000Y-87110000D01*
X110490000Y-84238867D01*
X110671000Y-84419867D01*
X110671000Y-84921982D01*
X110666960Y-84963000D01*
X110683082Y-85126688D01*
X110730828Y-85284086D01*
X110806106Y-85424920D01*
X110808365Y-85429146D01*
X110816340Y-85438864D01*
X110802188Y-85485518D01*
X110789928Y-85610000D01*
X110793000Y-86074250D01*
X110951750Y-86233000D01*
X112051000Y-86233000D01*
X112051000Y-86213000D01*
X112305000Y-86213000D01*
X112305000Y-86233000D01*
X112325000Y-86233000D01*
X112325000Y-86487000D01*
X112305000Y-86487000D01*
X112305000Y-87586250D01*
X112463750Y-87745000D01*
X112891999Y-87747834D01*
X112891999Y-89428980D01*
X112887959Y-89469999D01*
X112891999Y-89511017D01*
X112904081Y-89633687D01*
X112951827Y-89791085D01*
X113029363Y-89936144D01*
X113133708Y-90063290D01*
X113165578Y-90089445D01*
X113299554Y-90223421D01*
X113325709Y-90255291D01*
X113452854Y-90359636D01*
X113597913Y-90437172D01*
X113755311Y-90484918D01*
X113877981Y-90497000D01*
X113877991Y-90497000D01*
X113918999Y-90501039D01*
X113960007Y-90497000D01*
X115020982Y-90497000D01*
X115062000Y-90501040D01*
X115103018Y-90497000D01*
X115103019Y-90497000D01*
X115225689Y-90484918D01*
X115383087Y-90437172D01*
X115528146Y-90359636D01*
X115655291Y-90255291D01*
X115681446Y-90223421D01*
X117058869Y-88846000D01*
X117429000Y-88846000D01*
X117429000Y-88992089D01*
X117464932Y-89172729D01*
X117529000Y-89327404D01*
X117529000Y-89366982D01*
X117524960Y-89408000D01*
X117529000Y-89449018D01*
X117541082Y-89571688D01*
X117588828Y-89729086D01*
X117666364Y-89874145D01*
X117770709Y-90001291D01*
X117802579Y-90027446D01*
X117936555Y-90161422D01*
X117962710Y-90193292D01*
X118089855Y-90297637D01*
X118234914Y-90375173D01*
X118392312Y-90422919D01*
X118514982Y-90435001D01*
X118514992Y-90435001D01*
X118556000Y-90439040D01*
X118597008Y-90435001D01*
X125115981Y-90435001D01*
X125156999Y-90439041D01*
X125198017Y-90435001D01*
X125198018Y-90435001D01*
X125320688Y-90422919D01*
X125478086Y-90375173D01*
X125623145Y-90297637D01*
X125750290Y-90193292D01*
X125776444Y-90161423D01*
X126326555Y-89611314D01*
X126352144Y-89597636D01*
X126479289Y-89493291D01*
X126583634Y-89366146D01*
X126597313Y-89340554D01*
X129260793Y-86677076D01*
X129257928Y-87110000D01*
X129270188Y-87234482D01*
X129306498Y-87354180D01*
X129365463Y-87464494D01*
X129444815Y-87561185D01*
X129541506Y-87640537D01*
X129651820Y-87699502D01*
X129771518Y-87735812D01*
X129896000Y-87748072D01*
X130360250Y-87745000D01*
X130519000Y-87586250D01*
X130519000Y-86487000D01*
X130499000Y-86487000D01*
X130499000Y-86233000D01*
X130519000Y-86233000D01*
X130519000Y-85133750D01*
X130360250Y-84975000D01*
X129896000Y-84971928D01*
X129771518Y-84984188D01*
X129697367Y-85006682D01*
X129713000Y-84928089D01*
X129713000Y-84743911D01*
X129677068Y-84563271D01*
X129606586Y-84393111D01*
X129504262Y-84239972D01*
X129374028Y-84109738D01*
X129220889Y-84007414D01*
X129050729Y-83936932D01*
X128870089Y-83901000D01*
X128685911Y-83901000D01*
X128505271Y-83936932D01*
X128335111Y-84007414D01*
X128181972Y-84109738D01*
X128051738Y-84239972D01*
X127962000Y-84374275D01*
X127962000Y-78913404D01*
X128026068Y-78758729D01*
X128062000Y-78578089D01*
X128062000Y-78432000D01*
X128511928Y-78432000D01*
X128511928Y-79497000D01*
G36*
X112381828Y-84141086D02*
G01*
X112442717Y-84255000D01*
X112341000Y-84255000D01*
X112341000Y-84115007D01*
X112345039Y-84073999D01*
X112341000Y-84032991D01*
X112341000Y-84032981D01*
X112337137Y-83993759D01*
X112381828Y-84141086D01*
G37*
X112381828Y-84141086D02*
X112442717Y-84255000D01*
X112341000Y-84255000D01*
X112341000Y-84115007D01*
X112345039Y-84073999D01*
X112341000Y-84032991D01*
X112341000Y-84032981D01*
X112337137Y-83993759D01*
X112381828Y-84141086D01*
G36*
X112307001Y-82961514D02*
G01*
X112302960Y-83002542D01*
X112319082Y-83166230D01*
X112322000Y-83175849D01*
X112322000Y-83778982D01*
X112317960Y-83820000D01*
X112325863Y-83900240D01*
X112281172Y-83752913D01*
X112203636Y-83607854D01*
X112099291Y-83480709D01*
X112067422Y-83454555D01*
X111833000Y-83220133D01*
X111833000Y-83168316D01*
X111837040Y-83127297D01*
X111828572Y-83041317D01*
X111820918Y-82963609D01*
X111773172Y-82806211D01*
X111706000Y-82680542D01*
X111706000Y-82591019D01*
X111710040Y-82550000D01*
X111696178Y-82409252D01*
X111693918Y-82386311D01*
X111646172Y-82228913D01*
X111606703Y-82155072D01*
X112307001Y-82155072D01*
X112307001Y-82961514D01*
G37*
X112307001Y-82961514D02*
X112302960Y-83002542D01*
X112319082Y-83166230D01*
X112322000Y-83175849D01*
X112322000Y-83778982D01*
X112317960Y-83820000D01*
X112325863Y-83900240D01*
X112281172Y-83752913D01*
X112203636Y-83607854D01*
X112099291Y-83480709D01*
X112067422Y-83454555D01*
X111833000Y-83220133D01*
X111833000Y-83168316D01*
X111837040Y-83127297D01*
X111828572Y-83041317D01*
X111820918Y-82963609D01*
X111773172Y-82806211D01*
X111706000Y-82680542D01*
X111706000Y-82591019D01*
X111710040Y-82550000D01*
X111696178Y-82409252D01*
X111693918Y-82386311D01*
X111646172Y-82228913D01*
X111606703Y-82155072D01*
X112307001Y-82155072D01*
X112307001Y-82961514D01*
G36*
X125591999Y-83539133D02*
G01*
X125364130Y-83767002D01*
X124735016Y-83767002D01*
X124693998Y-83762962D01*
X124652979Y-83767002D01*
X123584665Y-83767002D01*
X123593172Y-83751087D01*
X123635381Y-83611943D01*
X123636387Y-83611405D01*
X123770962Y-83500962D01*
X123881405Y-83366387D01*
X123963472Y-83212851D01*
X124014008Y-83046255D01*
X124031072Y-82873001D01*
X124031072Y-81972999D01*
X124014008Y-81799745D01*
X123963472Y-81633149D01*
X123881405Y-81479613D01*
X123770962Y-81345038D01*
X123697893Y-81285072D01*
X124850000Y-81285072D01*
X124974482Y-81272812D01*
X125094180Y-81236502D01*
X125204494Y-81177537D01*
X125301185Y-81098185D01*
X125380537Y-81001494D01*
X125439502Y-80891180D01*
X125475812Y-80771482D01*
X125488072Y-80647000D01*
X125488072Y-79147000D01*
X125475812Y-79022518D01*
X125439502Y-78902820D01*
X125380537Y-78792506D01*
X125343191Y-78747000D01*
X125380537Y-78701494D01*
X125439502Y-78591180D01*
X125475812Y-78471482D01*
X125479701Y-78432000D01*
X125592000Y-78432000D01*
X125591999Y-83539133D01*
G37*
X125591999Y-83539133D02*
X125364130Y-83767002D01*
X124735016Y-83767002D01*
X124693998Y-83762962D01*
X124652979Y-83767002D01*
X123584665Y-83767002D01*
X123593172Y-83751087D01*
X123635381Y-83611943D01*
X123636387Y-83611405D01*
X123770962Y-83500962D01*
X123881405Y-83366387D01*
X123963472Y-83212851D01*
X124014008Y-83046255D01*
X124031072Y-82873001D01*
X124031072Y-81972999D01*
X124014008Y-81799745D01*
X123963472Y-81633149D01*
X123881405Y-81479613D01*
X123770962Y-81345038D01*
X123697893Y-81285072D01*
X124850000Y-81285072D01*
X124974482Y-81272812D01*
X125094180Y-81236502D01*
X125204494Y-81177537D01*
X125301185Y-81098185D01*
X125380537Y-81001494D01*
X125439502Y-80891180D01*
X125475812Y-80771482D01*
X125488072Y-80647000D01*
X125488072Y-79147000D01*
X125475812Y-79022518D01*
X125439502Y-78902820D01*
X125380537Y-78792506D01*
X125343191Y-78747000D01*
X125380537Y-78701494D01*
X125439502Y-78591180D01*
X125475812Y-78471482D01*
X125479701Y-78432000D01*
X125592000Y-78432000D01*
X125591999Y-83539133D01*
G36*
X121088999Y-80597072D02*
G01*
X121339681Y-80597072D01*
X121339000Y-80603982D01*
X121339000Y-80732021D01*
X121351082Y-80854691D01*
X121398828Y-81012089D01*
X121443027Y-81094779D01*
X121343000Y-81084928D01*
X121053750Y-81088000D01*
X120895000Y-81246750D01*
X120895000Y-82296000D01*
X120915000Y-82296000D01*
X120915000Y-82550000D01*
X120895000Y-82550000D01*
X120895000Y-82570000D01*
X120641000Y-82570000D01*
X120641000Y-82550000D01*
X119716750Y-82550000D01*
X119558000Y-82708750D01*
X119555191Y-83087578D01*
X119545972Y-83093738D01*
X119415738Y-83223972D01*
X119320838Y-83366000D01*
X119199000Y-83366000D01*
X119199000Y-82581771D01*
X119316962Y-82484962D01*
X119427405Y-82350387D01*
X119509472Y-82196851D01*
X119557273Y-82039270D01*
X119558000Y-82137250D01*
X119716750Y-82296000D01*
X120641000Y-82296000D01*
X120641000Y-81246750D01*
X120482250Y-81088000D01*
X120193000Y-81084928D01*
X120068518Y-81097188D01*
X119948820Y-81133498D01*
X119838506Y-81192463D01*
X119741815Y-81271815D01*
X119662463Y-81368506D01*
X119603498Y-81478820D01*
X119577072Y-81565935D01*
X119577072Y-80972000D01*
X119714596Y-80972000D01*
X119869271Y-81036068D01*
X120049911Y-81072000D01*
X120234089Y-81072000D01*
X120414729Y-81036068D01*
X120584889Y-80965586D01*
X120738028Y-80863262D01*
X120868262Y-80733028D01*
X120967125Y-80585068D01*
X121088999Y-80597072D01*
G37*
X121088999Y-80597072D02*
X121339681Y-80597072D01*
X121339000Y-80603982D01*
X121339000Y-80732021D01*
X121351082Y-80854691D01*
X121398828Y-81012089D01*
X121443027Y-81094779D01*
X121343000Y-81084928D01*
X121053750Y-81088000D01*
X120895000Y-81246750D01*
X120895000Y-82296000D01*
X120915000Y-82296000D01*
X120915000Y-82550000D01*
X120895000Y-82550000D01*
X120895000Y-82570000D01*
X120641000Y-82570000D01*
X120641000Y-82550000D01*
X119716750Y-82550000D01*
X119558000Y-82708750D01*
X119555191Y-83087578D01*
X119545972Y-83093738D01*
X119415738Y-83223972D01*
X119320838Y-83366000D01*
X119199000Y-83366000D01*
X119199000Y-82581771D01*
X119316962Y-82484962D01*
X119427405Y-82350387D01*
X119509472Y-82196851D01*
X119557273Y-82039270D01*
X119558000Y-82137250D01*
X119716750Y-82296000D01*
X120641000Y-82296000D01*
X120641000Y-81246750D01*
X120482250Y-81088000D01*
X120193000Y-81084928D01*
X120068518Y-81097188D01*
X119948820Y-81133498D01*
X119838506Y-81192463D01*
X119741815Y-81271815D01*
X119662463Y-81368506D01*
X119603498Y-81478820D01*
X119577072Y-81565935D01*
X119577072Y-80972000D01*
X119714596Y-80972000D01*
X119869271Y-81036068D01*
X120049911Y-81072000D01*
X120234089Y-81072000D01*
X120414729Y-81036068D01*
X120584889Y-80965586D01*
X120738028Y-80863262D01*
X120868262Y-80733028D01*
X120967125Y-80585068D01*
X121088999Y-80597072D01*
G36*
X92723080Y-77310212D02*
G01*
X92908976Y-77434424D01*
X93115533Y-77519983D01*
X93334812Y-77563600D01*
X93436087Y-77563600D01*
X93730123Y-77857636D01*
X93630750Y-77858000D01*
X93472000Y-78016750D01*
X93472000Y-78916000D01*
X94946250Y-78916000D01*
X95105000Y-78757250D01*
X95108072Y-78493000D01*
X95095812Y-78368518D01*
X95059502Y-78248820D01*
X95030739Y-78195010D01*
X99172898Y-78195010D01*
X99227499Y-78249611D01*
X99252871Y-78280527D01*
X99376210Y-78381748D01*
X99516926Y-78456962D01*
X99669611Y-78503279D01*
X99788608Y-78514999D01*
X99788611Y-78514999D01*
X99828399Y-78518918D01*
X99868187Y-78514999D01*
X108400094Y-78514999D01*
X108427910Y-78533585D01*
X108598070Y-78604067D01*
X108778710Y-78639999D01*
X108962888Y-78639999D01*
X109143528Y-78604067D01*
X109313688Y-78533585D01*
X109466827Y-78431261D01*
X109597061Y-78301027D01*
X109699385Y-78147888D01*
X109769867Y-77977728D01*
X109782000Y-77916732D01*
X109782000Y-77952596D01*
X109717932Y-78107271D01*
X109682000Y-78287911D01*
X109682000Y-78472089D01*
X109715146Y-78638723D01*
X109642854Y-78677364D01*
X109515709Y-78781709D01*
X109489554Y-78813579D01*
X109424205Y-78878928D01*
X109152000Y-78878928D01*
X109027518Y-78891188D01*
X108907820Y-78927498D01*
X108902000Y-78930609D01*
X108896180Y-78927498D01*
X108776482Y-78891188D01*
X108652000Y-78878928D01*
X107152000Y-78878928D01*
X107027518Y-78891188D01*
X106907820Y-78927498D01*
X106902000Y-78930609D01*
X106896180Y-78927498D01*
X106776482Y-78891188D01*
X106652000Y-78878928D01*
X105152000Y-78878928D01*
X105027518Y-78891188D01*
X104907820Y-78927498D01*
X104902000Y-78930609D01*
X104896180Y-78927498D01*
X104776482Y-78891188D01*
X104652000Y-78878928D01*
X103152000Y-78878928D01*
X103027518Y-78891188D01*
X102907820Y-78927498D01*
X102902000Y-78930609D01*
X102896180Y-78927498D01*
X102776482Y-78891188D01*
X102652000Y-78878928D01*
X101152000Y-78878928D01*
X101027518Y-78891188D01*
X100907820Y-78927498D01*
X100902000Y-78930609D01*
X100896180Y-78927498D01*
X100776482Y-78891188D01*
X100652000Y-78878928D01*
X100187750Y-78882000D01*
X100029000Y-79040750D01*
X100029000Y-80390000D01*
X100049000Y-80390000D01*
X100049000Y-80644000D01*
X100029000Y-80644000D01*
X100029000Y-81993250D01*
X100187750Y-82152000D01*
X100652000Y-82155072D01*
X100776482Y-82142812D01*
X100896180Y-82106502D01*
X100902000Y-82103391D01*
X100907820Y-82106502D01*
X101027518Y-82142812D01*
X101152000Y-82155072D01*
X102652000Y-82155072D01*
X102776482Y-82142812D01*
X102896180Y-82106502D01*
X102902000Y-82103391D01*
X102907820Y-82106502D01*
X103027518Y-82142812D01*
X103152000Y-82155072D01*
X104652000Y-82155072D01*
X104776482Y-82142812D01*
X104896180Y-82106502D01*
X104902000Y-82103391D01*
X104907820Y-82106502D01*
X104983000Y-82129308D01*
X104983000Y-82261089D01*
X105018932Y-82441729D01*
X105089414Y-82611889D01*
X105191738Y-82765028D01*
X105321972Y-82895262D01*
X105475111Y-82997586D01*
X105580015Y-83041038D01*
X94910197Y-83003202D01*
X94921185Y-82994185D01*
X95000537Y-82897494D01*
X95059502Y-82787180D01*
X95095812Y-82667482D01*
X95108072Y-82543000D01*
X95105000Y-82278750D01*
X94946250Y-82120000D01*
X93472000Y-82120000D01*
X93472000Y-82140000D01*
X93218000Y-82140000D01*
X93218000Y-82120000D01*
X93198000Y-82120000D01*
X93198000Y-81866000D01*
X93218000Y-81866000D01*
X93218000Y-80966750D01*
X93059250Y-80808000D01*
X92587820Y-80806274D01*
X92587820Y-80229726D01*
X93059250Y-80228000D01*
X93218000Y-80069250D01*
X93218000Y-79170000D01*
X93472000Y-79170000D01*
X93472000Y-80069250D01*
X93630750Y-80228000D01*
X93706928Y-80228279D01*
X93706928Y-80807721D01*
X93630750Y-80808000D01*
X93472000Y-80966750D01*
X93472000Y-81866000D01*
X94946250Y-81866000D01*
X95105000Y-81707250D01*
X95105304Y-81681072D01*
X95445000Y-81681072D01*
X95569482Y-81668812D01*
X95624904Y-81652000D01*
X96529379Y-81652000D01*
X96562498Y-81761180D01*
X96621463Y-81871494D01*
X96700815Y-81968185D01*
X96797506Y-82047537D01*
X96907820Y-82106502D01*
X97027518Y-82142812D01*
X97152000Y-82155072D01*
X98652000Y-82155072D01*
X98776482Y-82142812D01*
X98896180Y-82106502D01*
X98902000Y-82103391D01*
X98907820Y-82106502D01*
X99027518Y-82142812D01*
X99152000Y-82155072D01*
X99616250Y-82152000D01*
X99775000Y-81993250D01*
X99775000Y-80644000D01*
X99755000Y-80644000D01*
X99755000Y-80390000D01*
X99775000Y-80390000D01*
X99775000Y-79040750D01*
X99616250Y-78882000D01*
X99152000Y-78878928D01*
X99027518Y-78891188D01*
X98907820Y-78927498D01*
X98902000Y-78930609D01*
X98896180Y-78927498D01*
X98776482Y-78891188D01*
X98652000Y-78878928D01*
X97152000Y-78878928D01*
X97027518Y-78891188D01*
X96907820Y-78927498D01*
X96797506Y-78986463D01*
X96700815Y-79065815D01*
X96621463Y-79162506D01*
X96562498Y-79272820D01*
X96529379Y-79382000D01*
X95618311Y-79382000D01*
X95569482Y-79367188D01*
X95445000Y-79354928D01*
X95105304Y-79354928D01*
X95105000Y-79328750D01*
X94946250Y-79170000D01*
X93472000Y-79170000D01*
X93218000Y-79170000D01*
X93198000Y-79170000D01*
X93198000Y-78916000D01*
X93218000Y-78916000D01*
X93218000Y-78016750D01*
X93059250Y-77858000D01*
X92587820Y-77856274D01*
X92587820Y-77174952D01*
X92723080Y-77310212D01*
G37*
X92723080Y-77310212D02*
X92908976Y-77434424D01*
X93115533Y-77519983D01*
X93334812Y-77563600D01*
X93436087Y-77563600D01*
X93730123Y-77857636D01*
X93630750Y-77858000D01*
X93472000Y-78016750D01*
X93472000Y-78916000D01*
X94946250Y-78916000D01*
X95105000Y-78757250D01*
X95108072Y-78493000D01*
X95095812Y-78368518D01*
X95059502Y-78248820D01*
X95030739Y-78195010D01*
X99172898Y-78195010D01*
X99227499Y-78249611D01*
X99252871Y-78280527D01*
X99376210Y-78381748D01*
X99516926Y-78456962D01*
X99669611Y-78503279D01*
X99788608Y-78514999D01*
X99788611Y-78514999D01*
X99828399Y-78518918D01*
X99868187Y-78514999D01*
X108400094Y-78514999D01*
X108427910Y-78533585D01*
X108598070Y-78604067D01*
X108778710Y-78639999D01*
X108962888Y-78639999D01*
X109143528Y-78604067D01*
X109313688Y-78533585D01*
X109466827Y-78431261D01*
X109597061Y-78301027D01*
X109699385Y-78147888D01*
X109769867Y-77977728D01*
X109782000Y-77916732D01*
X109782000Y-77952596D01*
X109717932Y-78107271D01*
X109682000Y-78287911D01*
X109682000Y-78472089D01*
X109715146Y-78638723D01*
X109642854Y-78677364D01*
X109515709Y-78781709D01*
X109489554Y-78813579D01*
X109424205Y-78878928D01*
X109152000Y-78878928D01*
X109027518Y-78891188D01*
X108907820Y-78927498D01*
X108902000Y-78930609D01*
X108896180Y-78927498D01*
X108776482Y-78891188D01*
X108652000Y-78878928D01*
X107152000Y-78878928D01*
X107027518Y-78891188D01*
X106907820Y-78927498D01*
X106902000Y-78930609D01*
X106896180Y-78927498D01*
X106776482Y-78891188D01*
X106652000Y-78878928D01*
X105152000Y-78878928D01*
X105027518Y-78891188D01*
X104907820Y-78927498D01*
X104902000Y-78930609D01*
X104896180Y-78927498D01*
X104776482Y-78891188D01*
X104652000Y-78878928D01*
X103152000Y-78878928D01*
X103027518Y-78891188D01*
X102907820Y-78927498D01*
X102902000Y-78930609D01*
X102896180Y-78927498D01*
X102776482Y-78891188D01*
X102652000Y-78878928D01*
X101152000Y-78878928D01*
X101027518Y-78891188D01*
X100907820Y-78927498D01*
X100902000Y-78930609D01*
X100896180Y-78927498D01*
X100776482Y-78891188D01*
X100652000Y-78878928D01*
X100187750Y-78882000D01*
X100029000Y-79040750D01*
X100029000Y-80390000D01*
X100049000Y-80390000D01*
X100049000Y-80644000D01*
X100029000Y-80644000D01*
X100029000Y-81993250D01*
X100187750Y-82152000D01*
X100652000Y-82155072D01*
X100776482Y-82142812D01*
X100896180Y-82106502D01*
X100902000Y-82103391D01*
X100907820Y-82106502D01*
X101027518Y-82142812D01*
X101152000Y-82155072D01*
X102652000Y-82155072D01*
X102776482Y-82142812D01*
X102896180Y-82106502D01*
X102902000Y-82103391D01*
X102907820Y-82106502D01*
X103027518Y-82142812D01*
X103152000Y-82155072D01*
X104652000Y-82155072D01*
X104776482Y-82142812D01*
X104896180Y-82106502D01*
X104902000Y-82103391D01*
X104907820Y-82106502D01*
X104983000Y-82129308D01*
X104983000Y-82261089D01*
X105018932Y-82441729D01*
X105089414Y-82611889D01*
X105191738Y-82765028D01*
X105321972Y-82895262D01*
X105475111Y-82997586D01*
X105580015Y-83041038D01*
X94910197Y-83003202D01*
X94921185Y-82994185D01*
X95000537Y-82897494D01*
X95059502Y-82787180D01*
X95095812Y-82667482D01*
X95108072Y-82543000D01*
X95105000Y-82278750D01*
X94946250Y-82120000D01*
X93472000Y-82120000D01*
X93472000Y-82140000D01*
X93218000Y-82140000D01*
X93218000Y-82120000D01*
X93198000Y-82120000D01*
X93198000Y-81866000D01*
X93218000Y-81866000D01*
X93218000Y-80966750D01*
X93059250Y-80808000D01*
X92587820Y-80806274D01*
X92587820Y-80229726D01*
X93059250Y-80228000D01*
X93218000Y-80069250D01*
X93218000Y-79170000D01*
X93472000Y-79170000D01*
X93472000Y-80069250D01*
X93630750Y-80228000D01*
X93706928Y-80228279D01*
X93706928Y-80807721D01*
X93630750Y-80808000D01*
X93472000Y-80966750D01*
X93472000Y-81866000D01*
X94946250Y-81866000D01*
X95105000Y-81707250D01*
X95105304Y-81681072D01*
X95445000Y-81681072D01*
X95569482Y-81668812D01*
X95624904Y-81652000D01*
X96529379Y-81652000D01*
X96562498Y-81761180D01*
X96621463Y-81871494D01*
X96700815Y-81968185D01*
X96797506Y-82047537D01*
X96907820Y-82106502D01*
X97027518Y-82142812D01*
X97152000Y-82155072D01*
X98652000Y-82155072D01*
X98776482Y-82142812D01*
X98896180Y-82106502D01*
X98902000Y-82103391D01*
X98907820Y-82106502D01*
X99027518Y-82142812D01*
X99152000Y-82155072D01*
X99616250Y-82152000D01*
X99775000Y-81993250D01*
X99775000Y-80644000D01*
X99755000Y-80644000D01*
X99755000Y-80390000D01*
X99775000Y-80390000D01*
X99775000Y-79040750D01*
X99616250Y-78882000D01*
X99152000Y-78878928D01*
X99027518Y-78891188D01*
X98907820Y-78927498D01*
X98902000Y-78930609D01*
X98896180Y-78927498D01*
X98776482Y-78891188D01*
X98652000Y-78878928D01*
X97152000Y-78878928D01*
X97027518Y-78891188D01*
X96907820Y-78927498D01*
X96797506Y-78986463D01*
X96700815Y-79065815D01*
X96621463Y-79162506D01*
X96562498Y-79272820D01*
X96529379Y-79382000D01*
X95618311Y-79382000D01*
X95569482Y-79367188D01*
X95445000Y-79354928D01*
X95105304Y-79354928D01*
X95105000Y-79328750D01*
X94946250Y-79170000D01*
X93472000Y-79170000D01*
X93218000Y-79170000D01*
X93198000Y-79170000D01*
X93198000Y-78916000D01*
X93218000Y-78916000D01*
X93218000Y-78016750D01*
X93059250Y-77858000D01*
X92587820Y-77856274D01*
X92587820Y-77174952D01*
X92723080Y-77310212D01*
G36*
X89842340Y-81986120D02*
G01*
X89862340Y-81986120D01*
X89862340Y-82240120D01*
X89842340Y-82240120D01*
X89842340Y-82260120D01*
X89588340Y-82260120D01*
X89588340Y-82240120D01*
X89568340Y-82240120D01*
X89568340Y-81986120D01*
X89588340Y-81986120D01*
X89588340Y-81966120D01*
X89842340Y-81966120D01*
X89842340Y-81986120D01*
G37*
X89842340Y-81986120D02*
X89862340Y-81986120D01*
X89862340Y-82240120D01*
X89842340Y-82240120D01*
X89842340Y-82260120D01*
X89588340Y-82260120D01*
X89588340Y-82240120D01*
X89568340Y-82240120D01*
X89568340Y-81986120D01*
X89588340Y-81986120D01*
X89588340Y-81966120D01*
X89842340Y-81966120D01*
X89842340Y-81986120D01*
G36*
X126577981Y-69542000D02*
G01*
X129321133Y-69542000D01*
X130864000Y-71084869D01*
X130864000Y-71419928D01*
X130775000Y-71400000D01*
X130475000Y-71400000D01*
X130475000Y-72308000D01*
X130495000Y-72308000D01*
X130495000Y-72471000D01*
X130463911Y-72471000D01*
X130283271Y-72506932D01*
X130150324Y-72562000D01*
X129181002Y-72562000D01*
X129053334Y-72721123D01*
X129116872Y-72904418D01*
X129226342Y-73077052D01*
X129367388Y-73225013D01*
X129534590Y-73342614D01*
X129621000Y-73380853D01*
X129621000Y-73498089D01*
X129656932Y-73678729D01*
X129721001Y-73833405D01*
X129721000Y-74240726D01*
X129708082Y-74283312D01*
X129691960Y-74447000D01*
X129696001Y-74488028D01*
X129696001Y-75058928D01*
X129150000Y-75058928D01*
X129025518Y-75071188D01*
X128905820Y-75107498D01*
X128795506Y-75166463D01*
X128724000Y-75225146D01*
X128724000Y-73706404D01*
X128788068Y-73551729D01*
X128824000Y-73371089D01*
X128824000Y-73186911D01*
X128788068Y-73006271D01*
X128717586Y-72836111D01*
X128615262Y-72682972D01*
X128485028Y-72552738D01*
X128331889Y-72450414D01*
X128161729Y-72379932D01*
X127981089Y-72344000D01*
X127796911Y-72344000D01*
X127616271Y-72379932D01*
X127446111Y-72450414D01*
X127292972Y-72552738D01*
X127162738Y-72682972D01*
X127060414Y-72836111D01*
X126989932Y-73006271D01*
X126954000Y-73186911D01*
X126954000Y-73371089D01*
X126989932Y-73551729D01*
X127054000Y-73706405D01*
X127054001Y-75777972D01*
X127049960Y-75819000D01*
X127066082Y-75982688D01*
X127113828Y-76140086D01*
X127191364Y-76285145D01*
X127195660Y-76290380D01*
X127295710Y-76412291D01*
X127327573Y-76438441D01*
X127631346Y-76742214D01*
X127639542Y-76762000D01*
X126787018Y-76762000D01*
X126746000Y-76757960D01*
X126704982Y-76762000D01*
X125479701Y-76762000D01*
X125475812Y-76722518D01*
X125439502Y-76602820D01*
X125380537Y-76492506D01*
X125343191Y-76447000D01*
X125380537Y-76401494D01*
X125439502Y-76291180D01*
X125475812Y-76171482D01*
X125488072Y-76047000D01*
X125485000Y-75582750D01*
X125326250Y-75424000D01*
X123977000Y-75424000D01*
X123977000Y-75444000D01*
X123723000Y-75444000D01*
X123723000Y-75424000D01*
X122373750Y-75424000D01*
X122215000Y-75582750D01*
X122211928Y-76047000D01*
X122219223Y-76121075D01*
X121824750Y-76124000D01*
X121666000Y-76282750D01*
X121666000Y-77207000D01*
X121686000Y-77207000D01*
X121686000Y-77461000D01*
X121666000Y-77461000D01*
X121666000Y-77474010D01*
X121412000Y-77474010D01*
X121412000Y-77461000D01*
X121392000Y-77461000D01*
X121392000Y-77207000D01*
X121412000Y-77207000D01*
X121412000Y-76282750D01*
X121253250Y-76124000D01*
X120839000Y-76120928D01*
X120714518Y-76133188D01*
X120594820Y-76169498D01*
X120484506Y-76228463D01*
X120387815Y-76307815D01*
X120308463Y-76404506D01*
X120249498Y-76514820D01*
X120213188Y-76634518D01*
X120200928Y-76759000D01*
X120204000Y-77048250D01*
X120362748Y-77206998D01*
X120204000Y-77206998D01*
X120204000Y-77240132D01*
X118945000Y-75981133D01*
X118945000Y-74547000D01*
X122211928Y-74547000D01*
X122215000Y-75011250D01*
X122373750Y-75170000D01*
X123723000Y-75170000D01*
X123723000Y-74070750D01*
X123977000Y-74070750D01*
X123977000Y-75170000D01*
X125326250Y-75170000D01*
X125485000Y-75011250D01*
X125488072Y-74547000D01*
X125475812Y-74422518D01*
X125439502Y-74302820D01*
X125380537Y-74192506D01*
X125301185Y-74095815D01*
X125204494Y-74016463D01*
X125094180Y-73957498D01*
X124974482Y-73921188D01*
X124850000Y-73908928D01*
X124135750Y-73912000D01*
X123977000Y-74070750D01*
X123723000Y-74070750D01*
X123564250Y-73912000D01*
X122850000Y-73908928D01*
X122725518Y-73921188D01*
X122605820Y-73957498D01*
X122495506Y-74016463D01*
X122398815Y-74095815D01*
X122319463Y-74192506D01*
X122260498Y-74302820D01*
X122224188Y-74422518D01*
X122211928Y-74547000D01*
X118945000Y-74547000D01*
X118945000Y-74463018D01*
X118949040Y-74422000D01*
X118932918Y-74258311D01*
X118909260Y-74180322D01*
X119005962Y-74100962D01*
X119116405Y-73966386D01*
X119198472Y-73812850D01*
X119240200Y-73675291D01*
X119239928Y-73723000D01*
X119252188Y-73847482D01*
X119288498Y-73967180D01*
X119347463Y-74077494D01*
X119426815Y-74174185D01*
X119523506Y-74253537D01*
X119633820Y-74312502D01*
X119753518Y-74348812D01*
X119878000Y-74361072D01*
X120392250Y-74358000D01*
X120551000Y-74199250D01*
X120551000Y-73025000D01*
X120531000Y-73025000D01*
X120531000Y-72771000D01*
X120551000Y-72771000D01*
X120551000Y-71596750D01*
X120392250Y-71438000D01*
X119878000Y-71434928D01*
X119753518Y-71447188D01*
X119633820Y-71483498D01*
X119523506Y-71542463D01*
X119426815Y-71621815D01*
X119347463Y-71718506D01*
X119288498Y-71828820D01*
X119252188Y-71948518D01*
X119239928Y-72073000D01*
X119240200Y-72120709D01*
X119198472Y-71983150D01*
X119116405Y-71829614D01*
X119005962Y-71695038D01*
X118871386Y-71584595D01*
X118765089Y-71527778D01*
X119347796Y-70945072D01*
X119830001Y-70945072D01*
X120003255Y-70928008D01*
X120169851Y-70877472D01*
X120323387Y-70795405D01*
X120457962Y-70684962D01*
X120568405Y-70550387D01*
X120649230Y-70399175D01*
X120710414Y-70546889D01*
X120812738Y-70700028D01*
X120942972Y-70830262D01*
X121096111Y-70932586D01*
X121266271Y-71003068D01*
X121446911Y-71039000D01*
X121631089Y-71039000D01*
X121668001Y-71031658D01*
X121668000Y-71467063D01*
X121602482Y-71447188D01*
X121478000Y-71434928D01*
X120963750Y-71438000D01*
X120805000Y-71596750D01*
X120805000Y-72771000D01*
X120825000Y-72771000D01*
X120825000Y-73025000D01*
X120805000Y-73025000D01*
X120805000Y-74199250D01*
X120963750Y-74358000D01*
X121478000Y-74361072D01*
X121602482Y-74348812D01*
X121722180Y-74312502D01*
X121832494Y-74253537D01*
X121929185Y-74174185D01*
X122008537Y-74077494D01*
X122067502Y-73967180D01*
X122103812Y-73847482D01*
X122116072Y-73723000D01*
X122113000Y-73183750D01*
X121954252Y-73025002D01*
X122113000Y-73025002D01*
X122113000Y-73022801D01*
X122401210Y-73311012D01*
X122425009Y-73340011D01*
X122540734Y-73434984D01*
X122672763Y-73505556D01*
X122816024Y-73549013D01*
X122927677Y-73560010D01*
X122927687Y-73560010D01*
X122965010Y-73563686D01*
X123002333Y-73560010D01*
X125409668Y-73560010D01*
X125446990Y-73563686D01*
X125484312Y-73560010D01*
X125484323Y-73560010D01*
X125595976Y-73549013D01*
X125739237Y-73505556D01*
X125871266Y-73434984D01*
X125986991Y-73340011D01*
X126010794Y-73311007D01*
X126240997Y-73080804D01*
X126270001Y-73057001D01*
X126364974Y-72941276D01*
X126435546Y-72809247D01*
X126479003Y-72665986D01*
X126490000Y-72554333D01*
X126493677Y-72517000D01*
X126490000Y-72479667D01*
X126490000Y-72148877D01*
X129053334Y-72148877D01*
X129181002Y-72308000D01*
X130221000Y-72308000D01*
X130221000Y-71400000D01*
X129921000Y-71400000D01*
X129721522Y-71444664D01*
X129534590Y-71527386D01*
X129367388Y-71644987D01*
X129226342Y-71792948D01*
X129116872Y-71965582D01*
X129053334Y-72148877D01*
X126490000Y-72148877D01*
X126490000Y-69554706D01*
X126492085Y-69533540D01*
X126577981Y-69542000D01*
G37*
X126577981Y-69542000D02*
X129321133Y-69542000D01*
X130864000Y-71084869D01*
X130864000Y-71419928D01*
X130775000Y-71400000D01*
X130475000Y-71400000D01*
X130475000Y-72308000D01*
X130495000Y-72308000D01*
X130495000Y-72471000D01*
X130463911Y-72471000D01*
X130283271Y-72506932D01*
X130150324Y-72562000D01*
X129181002Y-72562000D01*
X129053334Y-72721123D01*
X129116872Y-72904418D01*
X129226342Y-73077052D01*
X129367388Y-73225013D01*
X129534590Y-73342614D01*
X129621000Y-73380853D01*
X129621000Y-73498089D01*
X129656932Y-73678729D01*
X129721001Y-73833405D01*
X129721000Y-74240726D01*
X129708082Y-74283312D01*
X129691960Y-74447000D01*
X129696001Y-74488028D01*
X129696001Y-75058928D01*
X129150000Y-75058928D01*
X129025518Y-75071188D01*
X128905820Y-75107498D01*
X128795506Y-75166463D01*
X128724000Y-75225146D01*
X128724000Y-73706404D01*
X128788068Y-73551729D01*
X128824000Y-73371089D01*
X128824000Y-73186911D01*
X128788068Y-73006271D01*
X128717586Y-72836111D01*
X128615262Y-72682972D01*
X128485028Y-72552738D01*
X128331889Y-72450414D01*
X128161729Y-72379932D01*
X127981089Y-72344000D01*
X127796911Y-72344000D01*
X127616271Y-72379932D01*
X127446111Y-72450414D01*
X127292972Y-72552738D01*
X127162738Y-72682972D01*
X127060414Y-72836111D01*
X126989932Y-73006271D01*
X126954000Y-73186911D01*
X126954000Y-73371089D01*
X126989932Y-73551729D01*
X127054000Y-73706405D01*
X127054001Y-75777972D01*
X127049960Y-75819000D01*
X127066082Y-75982688D01*
X127113828Y-76140086D01*
X127191364Y-76285145D01*
X127195660Y-76290380D01*
X127295710Y-76412291D01*
X127327573Y-76438441D01*
X127631346Y-76742214D01*
X127639542Y-76762000D01*
X126787018Y-76762000D01*
X126746000Y-76757960D01*
X126704982Y-76762000D01*
X125479701Y-76762000D01*
X125475812Y-76722518D01*
X125439502Y-76602820D01*
X125380537Y-76492506D01*
X125343191Y-76447000D01*
X125380537Y-76401494D01*
X125439502Y-76291180D01*
X125475812Y-76171482D01*
X125488072Y-76047000D01*
X125485000Y-75582750D01*
X125326250Y-75424000D01*
X123977000Y-75424000D01*
X123977000Y-75444000D01*
X123723000Y-75444000D01*
X123723000Y-75424000D01*
X122373750Y-75424000D01*
X122215000Y-75582750D01*
X122211928Y-76047000D01*
X122219223Y-76121075D01*
X121824750Y-76124000D01*
X121666000Y-76282750D01*
X121666000Y-77207000D01*
X121686000Y-77207000D01*
X121686000Y-77461000D01*
X121666000Y-77461000D01*
X121666000Y-77474010D01*
X121412000Y-77474010D01*
X121412000Y-77461000D01*
X121392000Y-77461000D01*
X121392000Y-77207000D01*
X121412000Y-77207000D01*
X121412000Y-76282750D01*
X121253250Y-76124000D01*
X120839000Y-76120928D01*
X120714518Y-76133188D01*
X120594820Y-76169498D01*
X120484506Y-76228463D01*
X120387815Y-76307815D01*
X120308463Y-76404506D01*
X120249498Y-76514820D01*
X120213188Y-76634518D01*
X120200928Y-76759000D01*
X120204000Y-77048250D01*
X120362748Y-77206998D01*
X120204000Y-77206998D01*
X120204000Y-77240132D01*
X118945000Y-75981133D01*
X118945000Y-74547000D01*
X122211928Y-74547000D01*
X122215000Y-75011250D01*
X122373750Y-75170000D01*
X123723000Y-75170000D01*
X123723000Y-74070750D01*
X123977000Y-74070750D01*
X123977000Y-75170000D01*
X125326250Y-75170000D01*
X125485000Y-75011250D01*
X125488072Y-74547000D01*
X125475812Y-74422518D01*
X125439502Y-74302820D01*
X125380537Y-74192506D01*
X125301185Y-74095815D01*
X125204494Y-74016463D01*
X125094180Y-73957498D01*
X124974482Y-73921188D01*
X124850000Y-73908928D01*
X124135750Y-73912000D01*
X123977000Y-74070750D01*
X123723000Y-74070750D01*
X123564250Y-73912000D01*
X122850000Y-73908928D01*
X122725518Y-73921188D01*
X122605820Y-73957498D01*
X122495506Y-74016463D01*
X122398815Y-74095815D01*
X122319463Y-74192506D01*
X122260498Y-74302820D01*
X122224188Y-74422518D01*
X122211928Y-74547000D01*
X118945000Y-74547000D01*
X118945000Y-74463018D01*
X118949040Y-74422000D01*
X118932918Y-74258311D01*
X118909260Y-74180322D01*
X119005962Y-74100962D01*
X119116405Y-73966386D01*
X119198472Y-73812850D01*
X119240200Y-73675291D01*
X119239928Y-73723000D01*
X119252188Y-73847482D01*
X119288498Y-73967180D01*
X119347463Y-74077494D01*
X119426815Y-74174185D01*
X119523506Y-74253537D01*
X119633820Y-74312502D01*
X119753518Y-74348812D01*
X119878000Y-74361072D01*
X120392250Y-74358000D01*
X120551000Y-74199250D01*
X120551000Y-73025000D01*
X120531000Y-73025000D01*
X120531000Y-72771000D01*
X120551000Y-72771000D01*
X120551000Y-71596750D01*
X120392250Y-71438000D01*
X119878000Y-71434928D01*
X119753518Y-71447188D01*
X119633820Y-71483498D01*
X119523506Y-71542463D01*
X119426815Y-71621815D01*
X119347463Y-71718506D01*
X119288498Y-71828820D01*
X119252188Y-71948518D01*
X119239928Y-72073000D01*
X119240200Y-72120709D01*
X119198472Y-71983150D01*
X119116405Y-71829614D01*
X119005962Y-71695038D01*
X118871386Y-71584595D01*
X118765089Y-71527778D01*
X119347796Y-70945072D01*
X119830001Y-70945072D01*
X120003255Y-70928008D01*
X120169851Y-70877472D01*
X120323387Y-70795405D01*
X120457962Y-70684962D01*
X120568405Y-70550387D01*
X120649230Y-70399175D01*
X120710414Y-70546889D01*
X120812738Y-70700028D01*
X120942972Y-70830262D01*
X121096111Y-70932586D01*
X121266271Y-71003068D01*
X121446911Y-71039000D01*
X121631089Y-71039000D01*
X121668001Y-71031658D01*
X121668000Y-71467063D01*
X121602482Y-71447188D01*
X121478000Y-71434928D01*
X120963750Y-71438000D01*
X120805000Y-71596750D01*
X120805000Y-72771000D01*
X120825000Y-72771000D01*
X120825000Y-73025000D01*
X120805000Y-73025000D01*
X120805000Y-74199250D01*
X120963750Y-74358000D01*
X121478000Y-74361072D01*
X121602482Y-74348812D01*
X121722180Y-74312502D01*
X121832494Y-74253537D01*
X121929185Y-74174185D01*
X122008537Y-74077494D01*
X122067502Y-73967180D01*
X122103812Y-73847482D01*
X122116072Y-73723000D01*
X122113000Y-73183750D01*
X121954252Y-73025002D01*
X122113000Y-73025002D01*
X122113000Y-73022801D01*
X122401210Y-73311012D01*
X122425009Y-73340011D01*
X122540734Y-73434984D01*
X122672763Y-73505556D01*
X122816024Y-73549013D01*
X122927677Y-73560010D01*
X122927687Y-73560010D01*
X122965010Y-73563686D01*
X123002333Y-73560010D01*
X125409668Y-73560010D01*
X125446990Y-73563686D01*
X125484312Y-73560010D01*
X125484323Y-73560010D01*
X125595976Y-73549013D01*
X125739237Y-73505556D01*
X125871266Y-73434984D01*
X125986991Y-73340011D01*
X126010794Y-73311007D01*
X126240997Y-73080804D01*
X126270001Y-73057001D01*
X126364974Y-72941276D01*
X126435546Y-72809247D01*
X126479003Y-72665986D01*
X126490000Y-72554333D01*
X126493677Y-72517000D01*
X126490000Y-72479667D01*
X126490000Y-72148877D01*
X129053334Y-72148877D01*
X129181002Y-72308000D01*
X130221000Y-72308000D01*
X130221000Y-71400000D01*
X129921000Y-71400000D01*
X129721522Y-71444664D01*
X129534590Y-71527386D01*
X129367388Y-71644987D01*
X129226342Y-71792948D01*
X129116872Y-71965582D01*
X129053334Y-72148877D01*
X126490000Y-72148877D01*
X126490000Y-69554706D01*
X126492085Y-69533540D01*
X126577981Y-69542000D01*
G36*
X93091000Y-59690000D02*
G01*
X93111000Y-59690000D01*
X93111000Y-59944000D01*
X93091000Y-59944000D01*
X93091000Y-61137155D01*
X93320890Y-61258476D01*
X93468099Y-61213825D01*
X93730920Y-61088641D01*
X93964269Y-60914588D01*
X94159178Y-60698355D01*
X94228805Y-60581466D01*
X94350525Y-60763632D01*
X94557368Y-60970475D01*
X94632589Y-61020736D01*
X94578311Y-61026082D01*
X94420913Y-61073828D01*
X94275854Y-61151364D01*
X94148709Y-61255709D01*
X94122554Y-61287579D01*
X93799579Y-61610554D01*
X93767709Y-61636709D01*
X93663451Y-61763749D01*
X93663364Y-61763855D01*
X93585828Y-61908914D01*
X93538082Y-62066312D01*
X93521960Y-62230000D01*
X93526000Y-62271019D01*
X93526001Y-66247594D01*
X93461932Y-66402271D01*
X93426000Y-66582911D01*
X93426000Y-66767089D01*
X93461932Y-66947729D01*
X93532414Y-67117889D01*
X93634738Y-67271028D01*
X93692765Y-67329055D01*
X93665082Y-67420314D01*
X93648960Y-67584002D01*
X93653000Y-67625021D01*
X93653001Y-68973411D01*
X93537111Y-69021414D01*
X93383972Y-69123738D01*
X93274821Y-69232889D01*
X93152889Y-69151416D01*
X92982729Y-69080934D01*
X92802089Y-69045002D01*
X92617911Y-69045002D01*
X92437271Y-69080934D01*
X92267111Y-69151416D01*
X92113972Y-69253740D01*
X91983738Y-69383974D01*
X91881414Y-69537113D01*
X91810932Y-69707273D01*
X91775000Y-69887913D01*
X91775000Y-70072091D01*
X91810932Y-70252731D01*
X91876472Y-70410959D01*
X91114941Y-69649429D01*
X91147000Y-69488260D01*
X91147000Y-69195740D01*
X91089932Y-68908842D01*
X90977990Y-68638589D01*
X90815475Y-68395368D01*
X90608632Y-68188525D01*
X90426466Y-68066805D01*
X90543355Y-67997178D01*
X90759588Y-67802269D01*
X90933641Y-67568920D01*
X91058825Y-67306099D01*
X91103476Y-67158890D01*
X90982155Y-66929000D01*
X89789000Y-66929000D01*
X89789000Y-66949000D01*
X89535000Y-66949000D01*
X89535000Y-66929000D01*
X89515000Y-66929000D01*
X89515000Y-66675000D01*
X89535000Y-66675000D01*
X89535000Y-66655000D01*
X89789000Y-66655000D01*
X89789000Y-66675000D01*
X90982155Y-66675000D01*
X91103476Y-66445110D01*
X91058825Y-66297901D01*
X90933641Y-66035080D01*
X90759588Y-65801731D01*
X90675534Y-65725966D01*
X90756180Y-65701502D01*
X90866494Y-65642537D01*
X90963185Y-65563185D01*
X91042537Y-65466494D01*
X91101502Y-65356180D01*
X91137812Y-65236482D01*
X91150072Y-65112000D01*
X91150072Y-63412000D01*
X91137812Y-63287518D01*
X91101502Y-63167820D01*
X91042537Y-63057506D01*
X90963185Y-62960815D01*
X90866494Y-62881463D01*
X90756180Y-62822498D01*
X90636482Y-62786188D01*
X90512000Y-62773928D01*
X90370000Y-62773928D01*
X90370000Y-61305072D01*
X91274000Y-61305072D01*
X91398482Y-61292812D01*
X91518180Y-61256502D01*
X91628494Y-61197537D01*
X91725185Y-61118185D01*
X91804537Y-61021494D01*
X91863502Y-60911180D01*
X91887966Y-60830534D01*
X91963731Y-60914588D01*
X92197080Y-61088641D01*
X92459901Y-61213825D01*
X92607110Y-61258476D01*
X92837000Y-61137155D01*
X92837000Y-59944000D01*
X92817000Y-59944000D01*
X92817000Y-59690000D01*
X92837000Y-59690000D01*
X92837000Y-59670000D01*
X93091000Y-59670000D01*
X93091000Y-59690000D01*
G37*
X93091000Y-59690000D02*
X93111000Y-59690000D01*
X93111000Y-59944000D01*
X93091000Y-59944000D01*
X93091000Y-61137155D01*
X93320890Y-61258476D01*
X93468099Y-61213825D01*
X93730920Y-61088641D01*
X93964269Y-60914588D01*
X94159178Y-60698355D01*
X94228805Y-60581466D01*
X94350525Y-60763632D01*
X94557368Y-60970475D01*
X94632589Y-61020736D01*
X94578311Y-61026082D01*
X94420913Y-61073828D01*
X94275854Y-61151364D01*
X94148709Y-61255709D01*
X94122554Y-61287579D01*
X93799579Y-61610554D01*
X93767709Y-61636709D01*
X93663451Y-61763749D01*
X93663364Y-61763855D01*
X93585828Y-61908914D01*
X93538082Y-62066312D01*
X93521960Y-62230000D01*
X93526000Y-62271019D01*
X93526001Y-66247594D01*
X93461932Y-66402271D01*
X93426000Y-66582911D01*
X93426000Y-66767089D01*
X93461932Y-66947729D01*
X93532414Y-67117889D01*
X93634738Y-67271028D01*
X93692765Y-67329055D01*
X93665082Y-67420314D01*
X93648960Y-67584002D01*
X93653000Y-67625021D01*
X93653001Y-68973411D01*
X93537111Y-69021414D01*
X93383972Y-69123738D01*
X93274821Y-69232889D01*
X93152889Y-69151416D01*
X92982729Y-69080934D01*
X92802089Y-69045002D01*
X92617911Y-69045002D01*
X92437271Y-69080934D01*
X92267111Y-69151416D01*
X92113972Y-69253740D01*
X91983738Y-69383974D01*
X91881414Y-69537113D01*
X91810932Y-69707273D01*
X91775000Y-69887913D01*
X91775000Y-70072091D01*
X91810932Y-70252731D01*
X91876472Y-70410959D01*
X91114941Y-69649429D01*
X91147000Y-69488260D01*
X91147000Y-69195740D01*
X91089932Y-68908842D01*
X90977990Y-68638589D01*
X90815475Y-68395368D01*
X90608632Y-68188525D01*
X90426466Y-68066805D01*
X90543355Y-67997178D01*
X90759588Y-67802269D01*
X90933641Y-67568920D01*
X91058825Y-67306099D01*
X91103476Y-67158890D01*
X90982155Y-66929000D01*
X89789000Y-66929000D01*
X89789000Y-66949000D01*
X89535000Y-66949000D01*
X89535000Y-66929000D01*
X89515000Y-66929000D01*
X89515000Y-66675000D01*
X89535000Y-66675000D01*
X89535000Y-66655000D01*
X89789000Y-66655000D01*
X89789000Y-66675000D01*
X90982155Y-66675000D01*
X91103476Y-66445110D01*
X91058825Y-66297901D01*
X90933641Y-66035080D01*
X90759588Y-65801731D01*
X90675534Y-65725966D01*
X90756180Y-65701502D01*
X90866494Y-65642537D01*
X90963185Y-65563185D01*
X91042537Y-65466494D01*
X91101502Y-65356180D01*
X91137812Y-65236482D01*
X91150072Y-65112000D01*
X91150072Y-63412000D01*
X91137812Y-63287518D01*
X91101502Y-63167820D01*
X91042537Y-63057506D01*
X90963185Y-62960815D01*
X90866494Y-62881463D01*
X90756180Y-62822498D01*
X90636482Y-62786188D01*
X90512000Y-62773928D01*
X90370000Y-62773928D01*
X90370000Y-61305072D01*
X91274000Y-61305072D01*
X91398482Y-61292812D01*
X91518180Y-61256502D01*
X91628494Y-61197537D01*
X91725185Y-61118185D01*
X91804537Y-61021494D01*
X91863502Y-60911180D01*
X91887966Y-60830534D01*
X91963731Y-60914588D01*
X92197080Y-61088641D01*
X92459901Y-61213825D01*
X92607110Y-61258476D01*
X92837000Y-61137155D01*
X92837000Y-59944000D01*
X92817000Y-59944000D01*
X92817000Y-59690000D01*
X92837000Y-59690000D01*
X92837000Y-59670000D01*
X93091000Y-59670000D01*
X93091000Y-59690000D01*
G36*
X131284202Y-58457303D02*
G01*
X131373849Y-58484370D01*
X131456537Y-58528335D01*
X131529106Y-58587522D01*
X131588804Y-58659684D01*
X131633341Y-58742054D01*
X131661034Y-58831515D01*
X131674000Y-58954879D01*
X131674001Y-59911572D01*
X131674000Y-59911582D01*
X131674001Y-61562572D01*
X131674000Y-61562582D01*
X131674000Y-63327998D01*
X131515000Y-63327998D01*
X131642666Y-63168877D01*
X131579128Y-62985582D01*
X131469658Y-62812948D01*
X131328612Y-62664987D01*
X131161410Y-62547386D01*
X130974478Y-62464664D01*
X130775000Y-62420000D01*
X130475000Y-62420000D01*
X130475000Y-63328000D01*
X130495000Y-63328000D01*
X130495000Y-63582000D01*
X130475000Y-63582000D01*
X130475000Y-64490000D01*
X130775000Y-64490000D01*
X130974478Y-64445336D01*
X131161410Y-64362614D01*
X131328612Y-64245013D01*
X131469658Y-64097052D01*
X131579128Y-63924418D01*
X131642666Y-63741123D01*
X131515000Y-63582002D01*
X131674000Y-63582002D01*
X131674000Y-69533132D01*
X130441801Y-68300934D01*
X130502568Y-68154229D01*
X130538500Y-67973589D01*
X130538500Y-67789411D01*
X130502568Y-67608771D01*
X130432086Y-67438611D01*
X130329762Y-67285472D01*
X130199528Y-67155238D01*
X130046389Y-67052914D01*
X129876229Y-66982432D01*
X129695589Y-66946500D01*
X129511411Y-66946500D01*
X129330771Y-66982432D01*
X129176096Y-67046500D01*
X127147324Y-67046500D01*
X127061889Y-66989414D01*
X126891729Y-66918932D01*
X126711089Y-66883000D01*
X126526911Y-66883000D01*
X126346271Y-66918932D01*
X126176111Y-66989414D01*
X126022972Y-67091738D01*
X125892738Y-67221972D01*
X125817216Y-67334999D01*
X125439015Y-67334999D01*
X125458000Y-67239552D01*
X125458000Y-67050448D01*
X125421108Y-66864978D01*
X125371411Y-66745000D01*
X125421108Y-66625022D01*
X125458000Y-66439552D01*
X125458000Y-66250448D01*
X125421108Y-66064978D01*
X125371411Y-65945000D01*
X125421108Y-65825022D01*
X125458000Y-65639552D01*
X125458000Y-65450448D01*
X125421108Y-65264978D01*
X125348741Y-65090269D01*
X125243681Y-64933036D01*
X125109964Y-64799319D01*
X125081322Y-64780181D01*
X125211410Y-64722614D01*
X125378612Y-64605013D01*
X125519658Y-64457052D01*
X125629128Y-64284418D01*
X125692666Y-64101123D01*
X125564998Y-63942000D01*
X124525000Y-63942000D01*
X124525000Y-63962000D01*
X124271000Y-63962000D01*
X124271000Y-63942000D01*
X124251000Y-63942000D01*
X124251000Y-63741123D01*
X129053334Y-63741123D01*
X129116872Y-63924418D01*
X129226342Y-64097052D01*
X129367388Y-64245013D01*
X129534590Y-64362614D01*
X129721522Y-64445336D01*
X129921000Y-64490000D01*
X130221000Y-64490000D01*
X130221000Y-63582000D01*
X129181002Y-63582000D01*
X129053334Y-63741123D01*
X124251000Y-63741123D01*
X124251000Y-63688000D01*
X124271000Y-63688000D01*
X124271000Y-62780000D01*
X124525000Y-62780000D01*
X124525000Y-63688000D01*
X125564998Y-63688000D01*
X125692666Y-63528877D01*
X125629128Y-63345582D01*
X125519658Y-63172948D01*
X125515778Y-63168877D01*
X129053334Y-63168877D01*
X129181002Y-63328000D01*
X130221000Y-63328000D01*
X130221000Y-62420000D01*
X129921000Y-62420000D01*
X129721522Y-62464664D01*
X129534590Y-62547386D01*
X129367388Y-62664987D01*
X129226342Y-62812948D01*
X129116872Y-62985582D01*
X129053334Y-63168877D01*
X125515778Y-63168877D01*
X125378612Y-63024987D01*
X125211410Y-62907386D01*
X125024478Y-62824664D01*
X124825000Y-62780000D01*
X124525000Y-62780000D01*
X124271000Y-62780000D01*
X123971000Y-62780000D01*
X123771522Y-62824664D01*
X123584590Y-62907386D01*
X123417388Y-63024987D01*
X123276342Y-63172948D01*
X123166872Y-63345582D01*
X123153208Y-63385000D01*
X123053448Y-63385000D01*
X122867978Y-63421892D01*
X122693269Y-63494259D01*
X122536036Y-63599319D01*
X122402319Y-63733036D01*
X122297259Y-63890269D01*
X122224892Y-64064978D01*
X122188000Y-64250448D01*
X122188000Y-64439552D01*
X122224892Y-64625022D01*
X122297259Y-64799731D01*
X122402319Y-64956964D01*
X122536036Y-65090681D01*
X122693269Y-65195741D01*
X122841942Y-65257323D01*
X122873392Y-65420028D01*
X122944813Y-65595126D01*
X122949730Y-65604323D01*
X123145464Y-65617931D01*
X123542851Y-65220544D01*
X123602731Y-65195741D01*
X123603892Y-65194965D01*
X123574892Y-65264978D01*
X123538000Y-65450448D01*
X123538000Y-65584605D01*
X123325069Y-65797536D01*
X123332303Y-65901586D01*
X123186036Y-65999319D01*
X123052319Y-66133036D01*
X122947259Y-66290269D01*
X122874892Y-66464978D01*
X122838000Y-66650448D01*
X122838000Y-66839552D01*
X122874892Y-67025022D01*
X122924589Y-67145000D01*
X122874892Y-67264978D01*
X122838000Y-67450448D01*
X122838000Y-67585000D01*
X122211112Y-67585000D01*
X122138262Y-67475972D01*
X122008028Y-67345738D01*
X121854889Y-67243414D01*
X121684729Y-67172932D01*
X121546999Y-67145535D01*
X121546999Y-66905017D01*
X121551039Y-66863999D01*
X121543129Y-66783688D01*
X121534917Y-66700310D01*
X121487171Y-66542912D01*
X121409635Y-66397853D01*
X121390883Y-66375004D01*
X121403000Y-66314089D01*
X121403000Y-66129911D01*
X121367068Y-65949271D01*
X121296586Y-65779111D01*
X121194262Y-65625972D01*
X121064028Y-65495738D01*
X120910889Y-65393414D01*
X120740729Y-65322932D01*
X120560089Y-65287000D01*
X120375911Y-65287000D01*
X120195271Y-65322932D01*
X120025111Y-65393414D01*
X119871972Y-65495738D01*
X119741738Y-65625972D01*
X119639414Y-65779111D01*
X119568932Y-65949271D01*
X119533000Y-66129911D01*
X119533000Y-66314089D01*
X119563800Y-66468928D01*
X119347796Y-66468928D01*
X117022445Y-64143578D01*
X116996290Y-64111708D01*
X116869145Y-64007363D01*
X116724086Y-63929827D01*
X116566688Y-63882081D01*
X116444018Y-63869999D01*
X116444017Y-63869999D01*
X116402999Y-63865959D01*
X116361981Y-63869999D01*
X113644008Y-63869999D01*
X113603000Y-63865960D01*
X113561992Y-63869999D01*
X113561982Y-63869999D01*
X113439312Y-63882081D01*
X113288305Y-63927888D01*
X113290072Y-63517000D01*
X113277812Y-63392518D01*
X113241502Y-63272820D01*
X113182537Y-63162506D01*
X113103185Y-63065815D01*
X113006494Y-62986463D01*
X112896180Y-62927498D01*
X112776482Y-62891188D01*
X112652000Y-62878928D01*
X112187750Y-62882000D01*
X112029000Y-63040750D01*
X112029000Y-64390000D01*
X112049000Y-64390000D01*
X112049000Y-64644000D01*
X112029000Y-64644000D01*
X112029000Y-64664000D01*
X111775000Y-64664000D01*
X111775000Y-64644000D01*
X111755000Y-64644000D01*
X111755000Y-64390000D01*
X111775000Y-64390000D01*
X111775000Y-63040750D01*
X111616250Y-62882000D01*
X111152000Y-62878928D01*
X111027518Y-62891188D01*
X110907820Y-62927498D01*
X110902000Y-62930609D01*
X110896180Y-62927498D01*
X110776482Y-62891188D01*
X110737000Y-62887299D01*
X110737000Y-62125543D01*
X110785854Y-62165636D01*
X110930913Y-62243172D01*
X111088311Y-62290918D01*
X111210981Y-62303000D01*
X111210991Y-62303000D01*
X111251999Y-62307039D01*
X111293007Y-62303000D01*
X120227982Y-62303000D01*
X120269000Y-62307040D01*
X120310018Y-62303000D01*
X120310019Y-62303000D01*
X120432689Y-62290918D01*
X120590087Y-62243172D01*
X120735146Y-62165636D01*
X120862291Y-62061291D01*
X120888445Y-62029422D01*
X121465432Y-61452436D01*
X121497291Y-61426291D01*
X121526287Y-61390960D01*
X121601636Y-61299146D01*
X121679172Y-61154087D01*
X121699025Y-61088641D01*
X121705441Y-61067488D01*
X121850632Y-60970475D01*
X122057475Y-60763632D01*
X122174000Y-60589240D01*
X122290525Y-60763632D01*
X122497368Y-60970475D01*
X122740589Y-61132990D01*
X123010842Y-61244932D01*
X123297740Y-61302000D01*
X123590260Y-61302000D01*
X123877158Y-61244932D01*
X124147411Y-61132990D01*
X124390632Y-60970475D01*
X124597475Y-60763632D01*
X124759990Y-60520411D01*
X124871932Y-60250158D01*
X124929000Y-59963260D01*
X124929000Y-59670740D01*
X124871932Y-59383842D01*
X124759990Y-59113589D01*
X124597475Y-58870368D01*
X124390632Y-58663525D01*
X124147411Y-58501010D01*
X124012190Y-58445000D01*
X131158723Y-58445000D01*
X131284202Y-58457303D01*
G37*
X131284202Y-58457303D02*
X131373849Y-58484370D01*
X131456537Y-58528335D01*
X131529106Y-58587522D01*
X131588804Y-58659684D01*
X131633341Y-58742054D01*
X131661034Y-58831515D01*
X131674000Y-58954879D01*
X131674001Y-59911572D01*
X131674000Y-59911582D01*
X131674001Y-61562572D01*
X131674000Y-61562582D01*
X131674000Y-63327998D01*
X131515000Y-63327998D01*
X131642666Y-63168877D01*
X131579128Y-62985582D01*
X131469658Y-62812948D01*
X131328612Y-62664987D01*
X131161410Y-62547386D01*
X130974478Y-62464664D01*
X130775000Y-62420000D01*
X130475000Y-62420000D01*
X130475000Y-63328000D01*
X130495000Y-63328000D01*
X130495000Y-63582000D01*
X130475000Y-63582000D01*
X130475000Y-64490000D01*
X130775000Y-64490000D01*
X130974478Y-64445336D01*
X131161410Y-64362614D01*
X131328612Y-64245013D01*
X131469658Y-64097052D01*
X131579128Y-63924418D01*
X131642666Y-63741123D01*
X131515000Y-63582002D01*
X131674000Y-63582002D01*
X131674000Y-69533132D01*
X130441801Y-68300934D01*
X130502568Y-68154229D01*
X130538500Y-67973589D01*
X130538500Y-67789411D01*
X130502568Y-67608771D01*
X130432086Y-67438611D01*
X130329762Y-67285472D01*
X130199528Y-67155238D01*
X130046389Y-67052914D01*
X129876229Y-66982432D01*
X129695589Y-66946500D01*
X129511411Y-66946500D01*
X129330771Y-66982432D01*
X129176096Y-67046500D01*
X127147324Y-67046500D01*
X127061889Y-66989414D01*
X126891729Y-66918932D01*
X126711089Y-66883000D01*
X126526911Y-66883000D01*
X126346271Y-66918932D01*
X126176111Y-66989414D01*
X126022972Y-67091738D01*
X125892738Y-67221972D01*
X125817216Y-67334999D01*
X125439015Y-67334999D01*
X125458000Y-67239552D01*
X125458000Y-67050448D01*
X125421108Y-66864978D01*
X125371411Y-66745000D01*
X125421108Y-66625022D01*
X125458000Y-66439552D01*
X125458000Y-66250448D01*
X125421108Y-66064978D01*
X125371411Y-65945000D01*
X125421108Y-65825022D01*
X125458000Y-65639552D01*
X125458000Y-65450448D01*
X125421108Y-65264978D01*
X125348741Y-65090269D01*
X125243681Y-64933036D01*
X125109964Y-64799319D01*
X125081322Y-64780181D01*
X125211410Y-64722614D01*
X125378612Y-64605013D01*
X125519658Y-64457052D01*
X125629128Y-64284418D01*
X125692666Y-64101123D01*
X125564998Y-63942000D01*
X124525000Y-63942000D01*
X124525000Y-63962000D01*
X124271000Y-63962000D01*
X124271000Y-63942000D01*
X124251000Y-63942000D01*
X124251000Y-63741123D01*
X129053334Y-63741123D01*
X129116872Y-63924418D01*
X129226342Y-64097052D01*
X129367388Y-64245013D01*
X129534590Y-64362614D01*
X129721522Y-64445336D01*
X129921000Y-64490000D01*
X130221000Y-64490000D01*
X130221000Y-63582000D01*
X129181002Y-63582000D01*
X129053334Y-63741123D01*
X124251000Y-63741123D01*
X124251000Y-63688000D01*
X124271000Y-63688000D01*
X124271000Y-62780000D01*
X124525000Y-62780000D01*
X124525000Y-63688000D01*
X125564998Y-63688000D01*
X125692666Y-63528877D01*
X125629128Y-63345582D01*
X125519658Y-63172948D01*
X125515778Y-63168877D01*
X129053334Y-63168877D01*
X129181002Y-63328000D01*
X130221000Y-63328000D01*
X130221000Y-62420000D01*
X129921000Y-62420000D01*
X129721522Y-62464664D01*
X129534590Y-62547386D01*
X129367388Y-62664987D01*
X129226342Y-62812948D01*
X129116872Y-62985582D01*
X129053334Y-63168877D01*
X125515778Y-63168877D01*
X125378612Y-63024987D01*
X125211410Y-62907386D01*
X125024478Y-62824664D01*
X124825000Y-62780000D01*
X124525000Y-62780000D01*
X124271000Y-62780000D01*
X123971000Y-62780000D01*
X123771522Y-62824664D01*
X123584590Y-62907386D01*
X123417388Y-63024987D01*
X123276342Y-63172948D01*
X123166872Y-63345582D01*
X123153208Y-63385000D01*
X123053448Y-63385000D01*
X122867978Y-63421892D01*
X122693269Y-63494259D01*
X122536036Y-63599319D01*
X122402319Y-63733036D01*
X122297259Y-63890269D01*
X122224892Y-64064978D01*
X122188000Y-64250448D01*
X122188000Y-64439552D01*
X122224892Y-64625022D01*
X122297259Y-64799731D01*
X122402319Y-64956964D01*
X122536036Y-65090681D01*
X122693269Y-65195741D01*
X122841942Y-65257323D01*
X122873392Y-65420028D01*
X122944813Y-65595126D01*
X122949730Y-65604323D01*
X123145464Y-65617931D01*
X123542851Y-65220544D01*
X123602731Y-65195741D01*
X123603892Y-65194965D01*
X123574892Y-65264978D01*
X123538000Y-65450448D01*
X123538000Y-65584605D01*
X123325069Y-65797536D01*
X123332303Y-65901586D01*
X123186036Y-65999319D01*
X123052319Y-66133036D01*
X122947259Y-66290269D01*
X122874892Y-66464978D01*
X122838000Y-66650448D01*
X122838000Y-66839552D01*
X122874892Y-67025022D01*
X122924589Y-67145000D01*
X122874892Y-67264978D01*
X122838000Y-67450448D01*
X122838000Y-67585000D01*
X122211112Y-67585000D01*
X122138262Y-67475972D01*
X122008028Y-67345738D01*
X121854889Y-67243414D01*
X121684729Y-67172932D01*
X121546999Y-67145535D01*
X121546999Y-66905017D01*
X121551039Y-66863999D01*
X121543129Y-66783688D01*
X121534917Y-66700310D01*
X121487171Y-66542912D01*
X121409635Y-66397853D01*
X121390883Y-66375004D01*
X121403000Y-66314089D01*
X121403000Y-66129911D01*
X121367068Y-65949271D01*
X121296586Y-65779111D01*
X121194262Y-65625972D01*
X121064028Y-65495738D01*
X120910889Y-65393414D01*
X120740729Y-65322932D01*
X120560089Y-65287000D01*
X120375911Y-65287000D01*
X120195271Y-65322932D01*
X120025111Y-65393414D01*
X119871972Y-65495738D01*
X119741738Y-65625972D01*
X119639414Y-65779111D01*
X119568932Y-65949271D01*
X119533000Y-66129911D01*
X119533000Y-66314089D01*
X119563800Y-66468928D01*
X119347796Y-66468928D01*
X117022445Y-64143578D01*
X116996290Y-64111708D01*
X116869145Y-64007363D01*
X116724086Y-63929827D01*
X116566688Y-63882081D01*
X116444018Y-63869999D01*
X116444017Y-63869999D01*
X116402999Y-63865959D01*
X116361981Y-63869999D01*
X113644008Y-63869999D01*
X113603000Y-63865960D01*
X113561992Y-63869999D01*
X113561982Y-63869999D01*
X113439312Y-63882081D01*
X113288305Y-63927888D01*
X113290072Y-63517000D01*
X113277812Y-63392518D01*
X113241502Y-63272820D01*
X113182537Y-63162506D01*
X113103185Y-63065815D01*
X113006494Y-62986463D01*
X112896180Y-62927498D01*
X112776482Y-62891188D01*
X112652000Y-62878928D01*
X112187750Y-62882000D01*
X112029000Y-63040750D01*
X112029000Y-64390000D01*
X112049000Y-64390000D01*
X112049000Y-64644000D01*
X112029000Y-64644000D01*
X112029000Y-64664000D01*
X111775000Y-64664000D01*
X111775000Y-64644000D01*
X111755000Y-64644000D01*
X111755000Y-64390000D01*
X111775000Y-64390000D01*
X111775000Y-63040750D01*
X111616250Y-62882000D01*
X111152000Y-62878928D01*
X111027518Y-62891188D01*
X110907820Y-62927498D01*
X110902000Y-62930609D01*
X110896180Y-62927498D01*
X110776482Y-62891188D01*
X110737000Y-62887299D01*
X110737000Y-62125543D01*
X110785854Y-62165636D01*
X110930913Y-62243172D01*
X111088311Y-62290918D01*
X111210981Y-62303000D01*
X111210991Y-62303000D01*
X111251999Y-62307039D01*
X111293007Y-62303000D01*
X120227982Y-62303000D01*
X120269000Y-62307040D01*
X120310018Y-62303000D01*
X120310019Y-62303000D01*
X120432689Y-62290918D01*
X120590087Y-62243172D01*
X120735146Y-62165636D01*
X120862291Y-62061291D01*
X120888445Y-62029422D01*
X121465432Y-61452436D01*
X121497291Y-61426291D01*
X121526287Y-61390960D01*
X121601636Y-61299146D01*
X121679172Y-61154087D01*
X121699025Y-61088641D01*
X121705441Y-61067488D01*
X121850632Y-60970475D01*
X122057475Y-60763632D01*
X122174000Y-60589240D01*
X122290525Y-60763632D01*
X122497368Y-60970475D01*
X122740589Y-61132990D01*
X123010842Y-61244932D01*
X123297740Y-61302000D01*
X123590260Y-61302000D01*
X123877158Y-61244932D01*
X124147411Y-61132990D01*
X124390632Y-60970475D01*
X124597475Y-60763632D01*
X124759990Y-60520411D01*
X124871932Y-60250158D01*
X124929000Y-59963260D01*
X124929000Y-59670740D01*
X124871932Y-59383842D01*
X124759990Y-59113589D01*
X124597475Y-58870368D01*
X124390632Y-58663525D01*
X124147411Y-58501010D01*
X124012190Y-58445000D01*
X131158723Y-58445000D01*
X131284202Y-58457303D01*
G36*
X98029000Y-64390000D02*
G01*
X98049000Y-64390000D01*
X98049000Y-64644000D01*
X98029000Y-64644000D01*
X98029000Y-65993250D01*
X98187750Y-66152000D01*
X98652000Y-66155072D01*
X98776482Y-66142812D01*
X98896180Y-66106502D01*
X98902000Y-66103391D01*
X98907820Y-66106502D01*
X99027518Y-66142812D01*
X99152000Y-66155072D01*
X100652000Y-66155072D01*
X100776482Y-66142812D01*
X100896180Y-66106502D01*
X100902000Y-66103391D01*
X100907820Y-66106502D01*
X101027518Y-66142812D01*
X101100095Y-66149960D01*
X101126828Y-66238086D01*
X101204364Y-66383145D01*
X101217638Y-66399319D01*
X101308710Y-66510291D01*
X101340574Y-66536441D01*
X104073132Y-69269000D01*
X99106000Y-69269000D01*
X99106000Y-69122911D01*
X99070068Y-68942271D01*
X98999586Y-68772111D01*
X98897262Y-68618972D01*
X98767028Y-68488738D01*
X98613889Y-68386414D01*
X98459215Y-68322347D01*
X96974000Y-66837133D01*
X96974000Y-66126577D01*
X97027518Y-66142812D01*
X97152000Y-66155072D01*
X97616250Y-66152000D01*
X97775000Y-65993250D01*
X97775000Y-64644000D01*
X97755000Y-64644000D01*
X97755000Y-64390000D01*
X97775000Y-64390000D01*
X97775000Y-64370000D01*
X98029000Y-64370000D01*
X98029000Y-64390000D01*
G37*
X98029000Y-64390000D02*
X98049000Y-64390000D01*
X98049000Y-64644000D01*
X98029000Y-64644000D01*
X98029000Y-65993250D01*
X98187750Y-66152000D01*
X98652000Y-66155072D01*
X98776482Y-66142812D01*
X98896180Y-66106502D01*
X98902000Y-66103391D01*
X98907820Y-66106502D01*
X99027518Y-66142812D01*
X99152000Y-66155072D01*
X100652000Y-66155072D01*
X100776482Y-66142812D01*
X100896180Y-66106502D01*
X100902000Y-66103391D01*
X100907820Y-66106502D01*
X101027518Y-66142812D01*
X101100095Y-66149960D01*
X101126828Y-66238086D01*
X101204364Y-66383145D01*
X101217638Y-66399319D01*
X101308710Y-66510291D01*
X101340574Y-66536441D01*
X104073132Y-69269000D01*
X99106000Y-69269000D01*
X99106000Y-69122911D01*
X99070068Y-68942271D01*
X98999586Y-68772111D01*
X98897262Y-68618972D01*
X98767028Y-68488738D01*
X98613889Y-68386414D01*
X98459215Y-68322347D01*
X96974000Y-66837133D01*
X96974000Y-66126577D01*
X97027518Y-66142812D01*
X97152000Y-66155072D01*
X97616250Y-66152000D01*
X97775000Y-65993250D01*
X97775000Y-64644000D01*
X97755000Y-64644000D01*
X97755000Y-64390000D01*
X97775000Y-64390000D01*
X97775000Y-64370000D01*
X98029000Y-64370000D01*
X98029000Y-64390000D01*
%TD*%
M02*
