%TF.GenerationSoftware,KiCad,Pcbnew,(5.1.6)-1*%
%TF.CreationDate,2020-08-27T20:14:33+02:00*%
%TF.ProjectId,ESP32_TFT_Board,45535033-325f-4544-9654-5f426f617264,rev?*%
%TF.SameCoordinates,Original*%
%TF.FileFunction,Paste,Bot*%
%TF.FilePolarity,Positive*%
%FSLAX46Y46*%
G04 Gerber Fmt 4.6, Leading zero omitted, Abs format (unit mm)*
G04 Created by KiCad (PCBNEW (5.1.6)-1) date 2020-08-27 20:14:33*
%MOMM*%
%LPD*%
G01*
G04 APERTURE LIST*
%ADD10R,1.600000X1.300000*%
%ADD11R,5.000000X5.000000*%
%ADD12R,2.000000X0.900000*%
%ADD13R,0.900000X2.000000*%
%ADD14R,0.800000X0.900000*%
%ADD15R,0.700000X0.300000*%
G04 APERTURE END LIST*
D10*
%TO.C,Y1*%
X121792000Y-75454000D03*
X118492000Y-75454000D03*
X118492000Y-77454000D03*
X121792000Y-77454000D03*
%TD*%
D11*
%TO.C,U3*%
X103514180Y-73969370D03*
D12*
X113010700Y-65403800D03*
X113011000Y-66676500D03*
X113013000Y-67944200D03*
X113011400Y-69213200D03*
X113009500Y-70482700D03*
X113011300Y-71753900D03*
X113013900Y-73023670D03*
X113012500Y-74292670D03*
X113012000Y-75565000D03*
X113012000Y-76835000D03*
X113012000Y-78105000D03*
X113012000Y-79375000D03*
X113012000Y-80645000D03*
X113012000Y-81915000D03*
D13*
X110227000Y-64505000D03*
X108957000Y-64505000D03*
X107687000Y-64505000D03*
X106417000Y-64505000D03*
X105147000Y-64505000D03*
X103877000Y-64505000D03*
X102607000Y-64505000D03*
X101337000Y-64505000D03*
X100067000Y-64505000D03*
X98797000Y-64505000D03*
D12*
X96012000Y-65405000D03*
X96012000Y-66675000D03*
X96012000Y-67945000D03*
X96012000Y-69215000D03*
X96012000Y-70485000D03*
X96012000Y-71755000D03*
X96012000Y-73025000D03*
X96012000Y-74295000D03*
X96012000Y-75565000D03*
X96012000Y-76835000D03*
X96012000Y-78075000D03*
X96002000Y-79375000D03*
X96012000Y-80645000D03*
X96012000Y-81915000D03*
%TD*%
%TO.C,U2*%
G36*
G01*
X115674000Y-85701000D02*
X115974000Y-85701000D01*
G75*
G02*
X116124000Y-85851000I0J-150000D01*
G01*
X116124000Y-87501000D01*
G75*
G02*
X115974000Y-87651000I-150000J0D01*
G01*
X115674000Y-87651000D01*
G75*
G02*
X115524000Y-87501000I0J150000D01*
G01*
X115524000Y-85851000D01*
G75*
G02*
X115674000Y-85701000I150000J0D01*
G01*
G37*
G36*
G01*
X116944000Y-85701000D02*
X117244000Y-85701000D01*
G75*
G02*
X117394000Y-85851000I0J-150000D01*
G01*
X117394000Y-87501000D01*
G75*
G02*
X117244000Y-87651000I-150000J0D01*
G01*
X116944000Y-87651000D01*
G75*
G02*
X116794000Y-87501000I0J150000D01*
G01*
X116794000Y-85851000D01*
G75*
G02*
X116944000Y-85701000I150000J0D01*
G01*
G37*
G36*
G01*
X118214000Y-85701000D02*
X118514000Y-85701000D01*
G75*
G02*
X118664000Y-85851000I0J-150000D01*
G01*
X118664000Y-87501000D01*
G75*
G02*
X118514000Y-87651000I-150000J0D01*
G01*
X118214000Y-87651000D01*
G75*
G02*
X118064000Y-87501000I0J150000D01*
G01*
X118064000Y-85851000D01*
G75*
G02*
X118214000Y-85701000I150000J0D01*
G01*
G37*
G36*
G01*
X119484000Y-85701000D02*
X119784000Y-85701000D01*
G75*
G02*
X119934000Y-85851000I0J-150000D01*
G01*
X119934000Y-87501000D01*
G75*
G02*
X119784000Y-87651000I-150000J0D01*
G01*
X119484000Y-87651000D01*
G75*
G02*
X119334000Y-87501000I0J150000D01*
G01*
X119334000Y-85851000D01*
G75*
G02*
X119484000Y-85701000I150000J0D01*
G01*
G37*
G36*
G01*
X120754000Y-85701000D02*
X121054000Y-85701000D01*
G75*
G02*
X121204000Y-85851000I0J-150000D01*
G01*
X121204000Y-87501000D01*
G75*
G02*
X121054000Y-87651000I-150000J0D01*
G01*
X120754000Y-87651000D01*
G75*
G02*
X120604000Y-87501000I0J150000D01*
G01*
X120604000Y-85851000D01*
G75*
G02*
X120754000Y-85701000I150000J0D01*
G01*
G37*
G36*
G01*
X122024000Y-85701000D02*
X122324000Y-85701000D01*
G75*
G02*
X122474000Y-85851000I0J-150000D01*
G01*
X122474000Y-87501000D01*
G75*
G02*
X122324000Y-87651000I-150000J0D01*
G01*
X122024000Y-87651000D01*
G75*
G02*
X121874000Y-87501000I0J150000D01*
G01*
X121874000Y-85851000D01*
G75*
G02*
X122024000Y-85701000I150000J0D01*
G01*
G37*
G36*
G01*
X123294000Y-85701000D02*
X123594000Y-85701000D01*
G75*
G02*
X123744000Y-85851000I0J-150000D01*
G01*
X123744000Y-87501000D01*
G75*
G02*
X123594000Y-87651000I-150000J0D01*
G01*
X123294000Y-87651000D01*
G75*
G02*
X123144000Y-87501000I0J150000D01*
G01*
X123144000Y-85851000D01*
G75*
G02*
X123294000Y-85701000I150000J0D01*
G01*
G37*
G36*
G01*
X124564000Y-85701000D02*
X124864000Y-85701000D01*
G75*
G02*
X125014000Y-85851000I0J-150000D01*
G01*
X125014000Y-87501000D01*
G75*
G02*
X124864000Y-87651000I-150000J0D01*
G01*
X124564000Y-87651000D01*
G75*
G02*
X124414000Y-87501000I0J150000D01*
G01*
X124414000Y-85851000D01*
G75*
G02*
X124564000Y-85701000I150000J0D01*
G01*
G37*
G36*
G01*
X124564000Y-80751000D02*
X124864000Y-80751000D01*
G75*
G02*
X125014000Y-80901000I0J-150000D01*
G01*
X125014000Y-82551000D01*
G75*
G02*
X124864000Y-82701000I-150000J0D01*
G01*
X124564000Y-82701000D01*
G75*
G02*
X124414000Y-82551000I0J150000D01*
G01*
X124414000Y-80901000D01*
G75*
G02*
X124564000Y-80751000I150000J0D01*
G01*
G37*
G36*
G01*
X123294000Y-80751000D02*
X123594000Y-80751000D01*
G75*
G02*
X123744000Y-80901000I0J-150000D01*
G01*
X123744000Y-82551000D01*
G75*
G02*
X123594000Y-82701000I-150000J0D01*
G01*
X123294000Y-82701000D01*
G75*
G02*
X123144000Y-82551000I0J150000D01*
G01*
X123144000Y-80901000D01*
G75*
G02*
X123294000Y-80751000I150000J0D01*
G01*
G37*
G36*
G01*
X122024000Y-80751000D02*
X122324000Y-80751000D01*
G75*
G02*
X122474000Y-80901000I0J-150000D01*
G01*
X122474000Y-82551000D01*
G75*
G02*
X122324000Y-82701000I-150000J0D01*
G01*
X122024000Y-82701000D01*
G75*
G02*
X121874000Y-82551000I0J150000D01*
G01*
X121874000Y-80901000D01*
G75*
G02*
X122024000Y-80751000I150000J0D01*
G01*
G37*
G36*
G01*
X120754000Y-80751000D02*
X121054000Y-80751000D01*
G75*
G02*
X121204000Y-80901000I0J-150000D01*
G01*
X121204000Y-82551000D01*
G75*
G02*
X121054000Y-82701000I-150000J0D01*
G01*
X120754000Y-82701000D01*
G75*
G02*
X120604000Y-82551000I0J150000D01*
G01*
X120604000Y-80901000D01*
G75*
G02*
X120754000Y-80751000I150000J0D01*
G01*
G37*
G36*
G01*
X119484000Y-80751000D02*
X119784000Y-80751000D01*
G75*
G02*
X119934000Y-80901000I0J-150000D01*
G01*
X119934000Y-82551000D01*
G75*
G02*
X119784000Y-82701000I-150000J0D01*
G01*
X119484000Y-82701000D01*
G75*
G02*
X119334000Y-82551000I0J150000D01*
G01*
X119334000Y-80901000D01*
G75*
G02*
X119484000Y-80751000I150000J0D01*
G01*
G37*
G36*
G01*
X118214000Y-80751000D02*
X118514000Y-80751000D01*
G75*
G02*
X118664000Y-80901000I0J-150000D01*
G01*
X118664000Y-82551000D01*
G75*
G02*
X118514000Y-82701000I-150000J0D01*
G01*
X118214000Y-82701000D01*
G75*
G02*
X118064000Y-82551000I0J150000D01*
G01*
X118064000Y-80901000D01*
G75*
G02*
X118214000Y-80751000I150000J0D01*
G01*
G37*
G36*
G01*
X116944000Y-80751000D02*
X117244000Y-80751000D01*
G75*
G02*
X117394000Y-80901000I0J-150000D01*
G01*
X117394000Y-82551000D01*
G75*
G02*
X117244000Y-82701000I-150000J0D01*
G01*
X116944000Y-82701000D01*
G75*
G02*
X116794000Y-82551000I0J150000D01*
G01*
X116794000Y-80901000D01*
G75*
G02*
X116944000Y-80751000I150000J0D01*
G01*
G37*
G36*
G01*
X115674000Y-80751000D02*
X115974000Y-80751000D01*
G75*
G02*
X116124000Y-80901000I0J-150000D01*
G01*
X116124000Y-82551000D01*
G75*
G02*
X115974000Y-82701000I-150000J0D01*
G01*
X115674000Y-82701000D01*
G75*
G02*
X115524000Y-82551000I0J150000D01*
G01*
X115524000Y-80901000D01*
G75*
G02*
X115674000Y-80751000I150000J0D01*
G01*
G37*
%TD*%
%TO.C,R4*%
G36*
G01*
X129343999Y-83127000D02*
X130244001Y-83127000D01*
G75*
G02*
X130494000Y-83376999I0J-249999D01*
G01*
X130494000Y-84027001D01*
G75*
G02*
X130244001Y-84277000I-249999J0D01*
G01*
X129343999Y-84277000D01*
G75*
G02*
X129094000Y-84027001I0J249999D01*
G01*
X129094000Y-83376999D01*
G75*
G02*
X129343999Y-83127000I249999J0D01*
G01*
G37*
G36*
G01*
X129343999Y-81077000D02*
X130244001Y-81077000D01*
G75*
G02*
X130494000Y-81326999I0J-249999D01*
G01*
X130494000Y-81977001D01*
G75*
G02*
X130244001Y-82227000I-249999J0D01*
G01*
X129343999Y-82227000D01*
G75*
G02*
X129094000Y-81977001I0J249999D01*
G01*
X129094000Y-81326999D01*
G75*
G02*
X129343999Y-81077000I249999J0D01*
G01*
G37*
%TD*%
%TO.C,R3*%
G36*
G01*
X128212001Y-82227000D02*
X127311999Y-82227000D01*
G75*
G02*
X127062000Y-81977001I0J249999D01*
G01*
X127062000Y-81326999D01*
G75*
G02*
X127311999Y-81077000I249999J0D01*
G01*
X128212001Y-81077000D01*
G75*
G02*
X128462000Y-81326999I0J-249999D01*
G01*
X128462000Y-81977001D01*
G75*
G02*
X128212001Y-82227000I-249999J0D01*
G01*
G37*
G36*
G01*
X128212001Y-84277000D02*
X127311999Y-84277000D01*
G75*
G02*
X127062000Y-84027001I0J249999D01*
G01*
X127062000Y-83376999D01*
G75*
G02*
X127311999Y-83127000I249999J0D01*
G01*
X128212001Y-83127000D01*
G75*
G02*
X128462000Y-83376999I0J-249999D01*
G01*
X128462000Y-84027001D01*
G75*
G02*
X128212001Y-84277000I-249999J0D01*
G01*
G37*
%TD*%
%TO.C,R2*%
G36*
G01*
X119195000Y-70173001D02*
X119195000Y-69272999D01*
G75*
G02*
X119444999Y-69023000I249999J0D01*
G01*
X120095001Y-69023000D01*
G75*
G02*
X120345000Y-69272999I0J-249999D01*
G01*
X120345000Y-70173001D01*
G75*
G02*
X120095001Y-70423000I-249999J0D01*
G01*
X119444999Y-70423000D01*
G75*
G02*
X119195000Y-70173001I0J249999D01*
G01*
G37*
G36*
G01*
X117145000Y-70173001D02*
X117145000Y-69272999D01*
G75*
G02*
X117394999Y-69023000I249999J0D01*
G01*
X118045001Y-69023000D01*
G75*
G02*
X118295000Y-69272999I0J-249999D01*
G01*
X118295000Y-70173001D01*
G75*
G02*
X118045001Y-70423000I-249999J0D01*
G01*
X117394999Y-70423000D01*
G75*
G02*
X117145000Y-70173001I0J249999D01*
G01*
G37*
%TD*%
%TO.C,R1*%
G36*
G01*
X119195000Y-67887001D02*
X119195000Y-66986999D01*
G75*
G02*
X119444999Y-66737000I249999J0D01*
G01*
X120095001Y-66737000D01*
G75*
G02*
X120345000Y-66986999I0J-249999D01*
G01*
X120345000Y-67887001D01*
G75*
G02*
X120095001Y-68137000I-249999J0D01*
G01*
X119444999Y-68137000D01*
G75*
G02*
X119195000Y-67887001I0J249999D01*
G01*
G37*
G36*
G01*
X117145000Y-67887001D02*
X117145000Y-66986999D01*
G75*
G02*
X117394999Y-66737000I249999J0D01*
G01*
X118045001Y-66737000D01*
G75*
G02*
X118295000Y-66986999I0J-249999D01*
G01*
X118295000Y-67887001D01*
G75*
G02*
X118045001Y-68137000I-249999J0D01*
G01*
X117394999Y-68137000D01*
G75*
G02*
X117145000Y-67887001I0J249999D01*
G01*
G37*
%TD*%
D14*
%TO.C,Q2*%
X128651000Y-77867000D03*
X127701000Y-79867000D03*
X129601000Y-79867000D03*
%TD*%
%TO.C,Q1*%
X128905000Y-87614000D03*
X129855000Y-85614000D03*
X127955000Y-85614000D03*
%TD*%
D15*
%TO.C,J1*%
X122488000Y-70195000D03*
X122488000Y-68695000D03*
X122488000Y-69195000D03*
X122488000Y-69695000D03*
X122488000Y-70695000D03*
X122488000Y-68195000D03*
X122488000Y-67695000D03*
X122488000Y-67195000D03*
X122488000Y-66695000D03*
X122488000Y-66195000D03*
X122488000Y-65695000D03*
X122488000Y-65195000D03*
%TD*%
%TO.C,D1*%
G36*
G01*
X119520000Y-65649000D02*
X119520000Y-64399000D01*
G75*
G02*
X119770000Y-64149000I250000J0D01*
G01*
X120520000Y-64149000D01*
G75*
G02*
X120770000Y-64399000I0J-250000D01*
G01*
X120770000Y-65649000D01*
G75*
G02*
X120520000Y-65899000I-250000J0D01*
G01*
X119770000Y-65899000D01*
G75*
G02*
X119520000Y-65649000I0J250000D01*
G01*
G37*
G36*
G01*
X116720000Y-65649000D02*
X116720000Y-64399000D01*
G75*
G02*
X116970000Y-64149000I250000J0D01*
G01*
X117720000Y-64149000D01*
G75*
G02*
X117970000Y-64399000I0J-250000D01*
G01*
X117970000Y-65649000D01*
G75*
G02*
X117720000Y-65899000I-250000J0D01*
G01*
X116970000Y-65899000D01*
G75*
G02*
X116720000Y-65649000I0J250000D01*
G01*
G37*
%TD*%
%TO.C,C5*%
G36*
G01*
X128257000Y-74305000D02*
X128257000Y-75555000D01*
G75*
G02*
X128007000Y-75805000I-250000J0D01*
G01*
X127082000Y-75805000D01*
G75*
G02*
X126832000Y-75555000I0J250000D01*
G01*
X126832000Y-74305000D01*
G75*
G02*
X127082000Y-74055000I250000J0D01*
G01*
X128007000Y-74055000D01*
G75*
G02*
X128257000Y-74305000I0J-250000D01*
G01*
G37*
G36*
G01*
X131232000Y-74305000D02*
X131232000Y-75555000D01*
G75*
G02*
X130982000Y-75805000I-250000J0D01*
G01*
X130057000Y-75805000D01*
G75*
G02*
X129807000Y-75555000I0J250000D01*
G01*
X129807000Y-74305000D01*
G75*
G02*
X130057000Y-74055000I250000J0D01*
G01*
X130982000Y-74055000D01*
G75*
G02*
X131232000Y-74305000I0J-250000D01*
G01*
G37*
%TD*%
%TO.C,C3*%
G36*
G01*
X116221500Y-76931000D02*
X116696500Y-76931000D01*
G75*
G02*
X116934000Y-77168500I0J-237500D01*
G01*
X116934000Y-77743500D01*
G75*
G02*
X116696500Y-77981000I-237500J0D01*
G01*
X116221500Y-77981000D01*
G75*
G02*
X115984000Y-77743500I0J237500D01*
G01*
X115984000Y-77168500D01*
G75*
G02*
X116221500Y-76931000I237500J0D01*
G01*
G37*
G36*
G01*
X116221500Y-75181000D02*
X116696500Y-75181000D01*
G75*
G02*
X116934000Y-75418500I0J-237500D01*
G01*
X116934000Y-75993500D01*
G75*
G02*
X116696500Y-76231000I-237500J0D01*
G01*
X116221500Y-76231000D01*
G75*
G02*
X115984000Y-75993500I0J237500D01*
G01*
X115984000Y-75418500D01*
G75*
G02*
X116221500Y-75181000I237500J0D01*
G01*
G37*
%TD*%
%TO.C,C2*%
G36*
G01*
X124316500Y-76231000D02*
X123841500Y-76231000D01*
G75*
G02*
X123604000Y-75993500I0J237500D01*
G01*
X123604000Y-75418500D01*
G75*
G02*
X123841500Y-75181000I237500J0D01*
G01*
X124316500Y-75181000D01*
G75*
G02*
X124554000Y-75418500I0J-237500D01*
G01*
X124554000Y-75993500D01*
G75*
G02*
X124316500Y-76231000I-237500J0D01*
G01*
G37*
G36*
G01*
X124316500Y-77981000D02*
X123841500Y-77981000D01*
G75*
G02*
X123604000Y-77743500I0J237500D01*
G01*
X123604000Y-77168500D01*
G75*
G02*
X123841500Y-76931000I237500J0D01*
G01*
X124316500Y-76931000D01*
G75*
G02*
X124554000Y-77168500I0J-237500D01*
G01*
X124554000Y-77743500D01*
G75*
G02*
X124316500Y-77981000I-237500J0D01*
G01*
G37*
%TD*%
M02*
