%TF.GenerationSoftware,KiCad,Pcbnew,(5.1.6)-1*%
%TF.CreationDate,2020-08-27T20:14:33+02:00*%
%TF.ProjectId,ESP32_TFT_Board,45535033-325f-4544-9654-5f426f617264,rev?*%
%TF.SameCoordinates,Original*%
%TF.FileFunction,Copper,L2,Bot*%
%TF.FilePolarity,Positive*%
%FSLAX46Y46*%
G04 Gerber Fmt 4.6, Leading zero omitted, Abs format (unit mm)*
G04 Created by KiCad (PCBNEW (5.1.6)-1) date 2020-08-27 20:14:33*
%MOMM*%
%LPD*%
G01*
G04 APERTURE LIST*
%TA.AperFunction,ComponentPad*%
%ADD10O,1.000000X1.000000*%
%TD*%
%TA.AperFunction,ComponentPad*%
%ADD11R,1.000000X1.000000*%
%TD*%
%TA.AperFunction,ComponentPad*%
%ADD12O,1.700000X1.700000*%
%TD*%
%TA.AperFunction,ComponentPad*%
%ADD13R,1.700000X1.700000*%
%TD*%
%TA.AperFunction,SMDPad,CuDef*%
%ADD14R,1.600000X1.300000*%
%TD*%
%TA.AperFunction,SMDPad,CuDef*%
%ADD15R,5.000000X5.000000*%
%TD*%
%TA.AperFunction,SMDPad,CuDef*%
%ADD16R,2.000000X0.900000*%
%TD*%
%TA.AperFunction,SMDPad,CuDef*%
%ADD17R,0.900000X2.000000*%
%TD*%
%TA.AperFunction,SMDPad,CuDef*%
%ADD18R,0.800000X0.900000*%
%TD*%
%TA.AperFunction,ComponentPad*%
%ADD19C,0.650000*%
%TD*%
%TA.AperFunction,ComponentPad*%
%ADD20O,1.400000X0.800000*%
%TD*%
%TA.AperFunction,SMDPad,CuDef*%
%ADD21R,0.700000X0.300000*%
%TD*%
%TA.AperFunction,ViaPad*%
%ADD22C,0.600000*%
%TD*%
%TA.AperFunction,ViaPad*%
%ADD23C,0.800000*%
%TD*%
%TA.AperFunction,Conductor*%
%ADD24C,0.400000*%
%TD*%
%TA.AperFunction,Conductor*%
%ADD25C,0.250000*%
%TD*%
%TA.AperFunction,Conductor*%
%ADD26C,0.500000*%
%TD*%
%TA.AperFunction,Conductor*%
%ADD27C,0.350000*%
%TD*%
%TA.AperFunction,Conductor*%
%ADD28C,0.254000*%
%TD*%
G04 APERTURE END LIST*
D10*
%TO.P,J7,2*%
%TO.N,RXD*%
X93446600Y-76428600D03*
D11*
%TO.P,J7,1*%
%TO.N,TXD*%
X93446600Y-75158600D03*
%TD*%
D12*
%TO.P,J5,5*%
%TO.N,GND*%
X89715340Y-89733120D03*
%TO.P,J5,4*%
%TO.N,ESP_SDA*%
X89715340Y-87193120D03*
%TO.P,J5,3*%
%TO.N,ESP_SCL*%
X89715340Y-84653120D03*
%TO.P,J5,2*%
%TO.N,GND*%
X89715340Y-82113120D03*
D13*
%TO.P,J5,1*%
%TO.N,+3V3*%
X89715340Y-79573120D03*
%TD*%
D12*
%TO.P,J4,6*%
%TO.N,IO5*%
X89662000Y-76962000D03*
%TO.P,J4,5*%
%TO.N,IO27*%
X89662000Y-74422000D03*
%TO.P,J4,4*%
%TO.N,ESP_SDA*%
X89662000Y-71882000D03*
%TO.P,J4,3*%
%TO.N,ESP_SCL*%
X89662000Y-69342000D03*
%TO.P,J4,2*%
%TO.N,GND*%
X89662000Y-66802000D03*
D13*
%TO.P,J4,1*%
%TO.N,+3V3*%
X89662000Y-64262000D03*
%TD*%
D10*
%TO.P,J6,3*%
%TO.N,+3V3*%
X101473000Y-62103000D03*
%TO.P,J6,2*%
%TO.N,LED*%
X102743000Y-62103000D03*
D11*
%TO.P,J6,1*%
%TO.N,TFT_LED*%
X104013000Y-62103000D03*
%TD*%
D14*
%TO.P,Y1,4*%
%TO.N,GND*%
X121792000Y-75454000D03*
%TO.P,Y1,3*%
%TO.N,Net-(C3-Pad1)*%
X118492000Y-75454000D03*
%TO.P,Y1,2*%
%TO.N,GND*%
X118492000Y-77454000D03*
%TO.P,Y1,1*%
%TO.N,Net-(C2-Pad1)*%
X121792000Y-77454000D03*
%TD*%
D15*
%TO.P,U3,39*%
%TO.N,GND*%
X103514180Y-73969370D03*
D16*
%TO.P,U3,25*%
%TO.N,FLASH*%
X113010700Y-65403800D03*
%TO.P,U3,26*%
%TO.N,Net-(R10-Pad2)*%
X113011000Y-66676500D03*
%TO.P,U3,27*%
%TO.N,LoRa_NSS*%
X113013000Y-67944200D03*
%TO.P,U3,28*%
%TO.N,LoRa_RST*%
X113011400Y-69213200D03*
%TO.P,U3,29*%
%TO.N,IO5*%
X113009500Y-70482700D03*
%TO.P,U3,30*%
%TO.N,ESP_SCK*%
X113011300Y-71753900D03*
%TO.P,U3,31*%
%TO.N,ESP_MISO*%
X113013900Y-73023670D03*
%TO.P,U3,32*%
%TO.N,Net-(U3-Pad32)*%
X113012500Y-74292670D03*
%TO.P,U3,33*%
%TO.N,ESP_SDA*%
X113012000Y-75565000D03*
%TO.P,U3,34*%
%TO.N,TXD*%
X113012000Y-76835000D03*
%TO.P,U3,35*%
%TO.N,RXD*%
X113012000Y-78105000D03*
%TO.P,U3,36*%
%TO.N,ESP_SCL*%
X113012000Y-79375000D03*
%TO.P,U3,37*%
%TO.N,ESP_MOSI*%
X113012000Y-80645000D03*
%TO.P,U3,38*%
%TO.N,GND*%
X113012000Y-81915000D03*
D17*
%TO.P,U3,24*%
%TO.N,LoRa_INT*%
X110227000Y-64505000D03*
%TO.P,U3,23*%
%TO.N,TOUCH_CS*%
X108957000Y-64505000D03*
%TO.P,U3,22*%
%TO.N,Net-(U3-Pad22)*%
X107687000Y-64505000D03*
%TO.P,U3,21*%
%TO.N,Net-(U3-Pad21)*%
X106417000Y-64505000D03*
%TO.P,U3,20*%
%TO.N,Net-(U3-Pad20)*%
X105147000Y-64505000D03*
%TO.P,U3,19*%
%TO.N,Net-(U3-Pad19)*%
X103877000Y-64505000D03*
%TO.P,U3,18*%
%TO.N,Net-(U3-Pad18)*%
X102607000Y-64505000D03*
%TO.P,U3,17*%
%TO.N,Net-(U3-Pad17)*%
X101337000Y-64505000D03*
%TO.P,U3,16*%
%TO.N,TFT_CS*%
X100067000Y-64505000D03*
%TO.P,U3,15*%
%TO.N,GND*%
X98797000Y-64505000D03*
D16*
%TO.P,U3,14*%
%TO.N,Net-(U3-Pad14)*%
X96012000Y-65405000D03*
%TO.P,U3,13*%
%TO.N,TFT_RESET*%
X96012000Y-66675000D03*
%TO.P,U3,12*%
%TO.N,IO27*%
X96012000Y-67945000D03*
%TO.P,U3,11*%
%TO.N,TFT_LED*%
X96012000Y-69215000D03*
%TO.P,U3,10*%
%TO.N,TFT_DC*%
X96012000Y-70485000D03*
%TO.P,U3,9*%
%TO.N,CCS_WAKE*%
X96012000Y-71755000D03*
%TO.P,U3,8*%
%TO.N,Net-(U3-Pad8)*%
X96012000Y-73025000D03*
%TO.P,U3,7*%
%TO.N,Net-(U3-Pad7)*%
X96012000Y-74295000D03*
%TO.P,U3,6*%
%TO.N,Net-(U3-Pad6)*%
X96012000Y-75565000D03*
%TO.P,U3,5*%
%TO.N,Net-(U3-Pad5)*%
X96012000Y-76835000D03*
%TO.P,U3,4*%
%TO.N,Net-(U3-Pad4)*%
X96012000Y-78075000D03*
%TO.P,U3,3*%
%TO.N,RST*%
X96002000Y-79375000D03*
%TO.P,U3,2*%
%TO.N,+3V3*%
X96012000Y-80645000D03*
%TO.P,U3,1*%
%TO.N,GND*%
X96012000Y-81915000D03*
%TD*%
%TO.P,U2,16*%
%TO.N,VBUS*%
%TA.AperFunction,SMDPad,CuDef*%
G36*
G01*
X115674000Y-85701000D02*
X115974000Y-85701000D01*
G75*
G02*
X116124000Y-85851000I0J-150000D01*
G01*
X116124000Y-87501000D01*
G75*
G02*
X115974000Y-87651000I-150000J0D01*
G01*
X115674000Y-87651000D01*
G75*
G02*
X115524000Y-87501000I0J150000D01*
G01*
X115524000Y-85851000D01*
G75*
G02*
X115674000Y-85701000I150000J0D01*
G01*
G37*
%TD.AperFunction*%
%TO.P,U2,15*%
%TO.N,Net-(U2-Pad15)*%
%TA.AperFunction,SMDPad,CuDef*%
G36*
G01*
X116944000Y-85701000D02*
X117244000Y-85701000D01*
G75*
G02*
X117394000Y-85851000I0J-150000D01*
G01*
X117394000Y-87501000D01*
G75*
G02*
X117244000Y-87651000I-150000J0D01*
G01*
X116944000Y-87651000D01*
G75*
G02*
X116794000Y-87501000I0J150000D01*
G01*
X116794000Y-85851000D01*
G75*
G02*
X116944000Y-85701000I150000J0D01*
G01*
G37*
%TD.AperFunction*%
%TO.P,U2,14*%
%TO.N,Net-(Q1-Pad2)*%
%TA.AperFunction,SMDPad,CuDef*%
G36*
G01*
X118214000Y-85701000D02*
X118514000Y-85701000D01*
G75*
G02*
X118664000Y-85851000I0J-150000D01*
G01*
X118664000Y-87501000D01*
G75*
G02*
X118514000Y-87651000I-150000J0D01*
G01*
X118214000Y-87651000D01*
G75*
G02*
X118064000Y-87501000I0J150000D01*
G01*
X118064000Y-85851000D01*
G75*
G02*
X118214000Y-85701000I150000J0D01*
G01*
G37*
%TD.AperFunction*%
%TO.P,U2,13*%
%TO.N,Net-(Q2-Pad2)*%
%TA.AperFunction,SMDPad,CuDef*%
G36*
G01*
X119484000Y-85701000D02*
X119784000Y-85701000D01*
G75*
G02*
X119934000Y-85851000I0J-150000D01*
G01*
X119934000Y-87501000D01*
G75*
G02*
X119784000Y-87651000I-150000J0D01*
G01*
X119484000Y-87651000D01*
G75*
G02*
X119334000Y-87501000I0J150000D01*
G01*
X119334000Y-85851000D01*
G75*
G02*
X119484000Y-85701000I150000J0D01*
G01*
G37*
%TD.AperFunction*%
%TO.P,U2,12*%
%TO.N,Net-(U2-Pad12)*%
%TA.AperFunction,SMDPad,CuDef*%
G36*
G01*
X120754000Y-85701000D02*
X121054000Y-85701000D01*
G75*
G02*
X121204000Y-85851000I0J-150000D01*
G01*
X121204000Y-87501000D01*
G75*
G02*
X121054000Y-87651000I-150000J0D01*
G01*
X120754000Y-87651000D01*
G75*
G02*
X120604000Y-87501000I0J150000D01*
G01*
X120604000Y-85851000D01*
G75*
G02*
X120754000Y-85701000I150000J0D01*
G01*
G37*
%TD.AperFunction*%
%TO.P,U2,11*%
%TO.N,Net-(U2-Pad11)*%
%TA.AperFunction,SMDPad,CuDef*%
G36*
G01*
X122024000Y-85701000D02*
X122324000Y-85701000D01*
G75*
G02*
X122474000Y-85851000I0J-150000D01*
G01*
X122474000Y-87501000D01*
G75*
G02*
X122324000Y-87651000I-150000J0D01*
G01*
X122024000Y-87651000D01*
G75*
G02*
X121874000Y-87501000I0J150000D01*
G01*
X121874000Y-85851000D01*
G75*
G02*
X122024000Y-85701000I150000J0D01*
G01*
G37*
%TD.AperFunction*%
%TO.P,U2,10*%
%TO.N,Net-(U2-Pad10)*%
%TA.AperFunction,SMDPad,CuDef*%
G36*
G01*
X123294000Y-85701000D02*
X123594000Y-85701000D01*
G75*
G02*
X123744000Y-85851000I0J-150000D01*
G01*
X123744000Y-87501000D01*
G75*
G02*
X123594000Y-87651000I-150000J0D01*
G01*
X123294000Y-87651000D01*
G75*
G02*
X123144000Y-87501000I0J150000D01*
G01*
X123144000Y-85851000D01*
G75*
G02*
X123294000Y-85701000I150000J0D01*
G01*
G37*
%TD.AperFunction*%
%TO.P,U2,9*%
%TO.N,Net-(U2-Pad9)*%
%TA.AperFunction,SMDPad,CuDef*%
G36*
G01*
X124564000Y-85701000D02*
X124864000Y-85701000D01*
G75*
G02*
X125014000Y-85851000I0J-150000D01*
G01*
X125014000Y-87501000D01*
G75*
G02*
X124864000Y-87651000I-150000J0D01*
G01*
X124564000Y-87651000D01*
G75*
G02*
X124414000Y-87501000I0J150000D01*
G01*
X124414000Y-85851000D01*
G75*
G02*
X124564000Y-85701000I150000J0D01*
G01*
G37*
%TD.AperFunction*%
%TO.P,U2,8*%
%TO.N,Net-(C2-Pad1)*%
%TA.AperFunction,SMDPad,CuDef*%
G36*
G01*
X124564000Y-80751000D02*
X124864000Y-80751000D01*
G75*
G02*
X125014000Y-80901000I0J-150000D01*
G01*
X125014000Y-82551000D01*
G75*
G02*
X124864000Y-82701000I-150000J0D01*
G01*
X124564000Y-82701000D01*
G75*
G02*
X124414000Y-82551000I0J150000D01*
G01*
X124414000Y-80901000D01*
G75*
G02*
X124564000Y-80751000I150000J0D01*
G01*
G37*
%TD.AperFunction*%
%TO.P,U2,7*%
%TO.N,Net-(C3-Pad1)*%
%TA.AperFunction,SMDPad,CuDef*%
G36*
G01*
X123294000Y-80751000D02*
X123594000Y-80751000D01*
G75*
G02*
X123744000Y-80901000I0J-150000D01*
G01*
X123744000Y-82551000D01*
G75*
G02*
X123594000Y-82701000I-150000J0D01*
G01*
X123294000Y-82701000D01*
G75*
G02*
X123144000Y-82551000I0J150000D01*
G01*
X123144000Y-80901000D01*
G75*
G02*
X123294000Y-80751000I150000J0D01*
G01*
G37*
%TD.AperFunction*%
%TO.P,U2,6*%
%TO.N,D-*%
%TA.AperFunction,SMDPad,CuDef*%
G36*
G01*
X122024000Y-80751000D02*
X122324000Y-80751000D01*
G75*
G02*
X122474000Y-80901000I0J-150000D01*
G01*
X122474000Y-82551000D01*
G75*
G02*
X122324000Y-82701000I-150000J0D01*
G01*
X122024000Y-82701000D01*
G75*
G02*
X121874000Y-82551000I0J150000D01*
G01*
X121874000Y-80901000D01*
G75*
G02*
X122024000Y-80751000I150000J0D01*
G01*
G37*
%TD.AperFunction*%
%TO.P,U2,5*%
%TO.N,D+*%
%TA.AperFunction,SMDPad,CuDef*%
G36*
G01*
X120754000Y-80751000D02*
X121054000Y-80751000D01*
G75*
G02*
X121204000Y-80901000I0J-150000D01*
G01*
X121204000Y-82551000D01*
G75*
G02*
X121054000Y-82701000I-150000J0D01*
G01*
X120754000Y-82701000D01*
G75*
G02*
X120604000Y-82551000I0J150000D01*
G01*
X120604000Y-80901000D01*
G75*
G02*
X120754000Y-80751000I150000J0D01*
G01*
G37*
%TD.AperFunction*%
%TO.P,U2,4*%
%TO.N,Net-(C1-Pad1)*%
%TA.AperFunction,SMDPad,CuDef*%
G36*
G01*
X119484000Y-80751000D02*
X119784000Y-80751000D01*
G75*
G02*
X119934000Y-80901000I0J-150000D01*
G01*
X119934000Y-82551000D01*
G75*
G02*
X119784000Y-82701000I-150000J0D01*
G01*
X119484000Y-82701000D01*
G75*
G02*
X119334000Y-82551000I0J150000D01*
G01*
X119334000Y-80901000D01*
G75*
G02*
X119484000Y-80751000I150000J0D01*
G01*
G37*
%TD.AperFunction*%
%TO.P,U2,3*%
%TO.N,RXD*%
%TA.AperFunction,SMDPad,CuDef*%
G36*
G01*
X118214000Y-80751000D02*
X118514000Y-80751000D01*
G75*
G02*
X118664000Y-80901000I0J-150000D01*
G01*
X118664000Y-82551000D01*
G75*
G02*
X118514000Y-82701000I-150000J0D01*
G01*
X118214000Y-82701000D01*
G75*
G02*
X118064000Y-82551000I0J150000D01*
G01*
X118064000Y-80901000D01*
G75*
G02*
X118214000Y-80751000I150000J0D01*
G01*
G37*
%TD.AperFunction*%
%TO.P,U2,2*%
%TO.N,TXD*%
%TA.AperFunction,SMDPad,CuDef*%
G36*
G01*
X116944000Y-80751000D02*
X117244000Y-80751000D01*
G75*
G02*
X117394000Y-80901000I0J-150000D01*
G01*
X117394000Y-82551000D01*
G75*
G02*
X117244000Y-82701000I-150000J0D01*
G01*
X116944000Y-82701000D01*
G75*
G02*
X116794000Y-82551000I0J150000D01*
G01*
X116794000Y-80901000D01*
G75*
G02*
X116944000Y-80751000I150000J0D01*
G01*
G37*
%TD.AperFunction*%
%TO.P,U2,1*%
%TO.N,GND*%
%TA.AperFunction,SMDPad,CuDef*%
G36*
G01*
X115674000Y-80751000D02*
X115974000Y-80751000D01*
G75*
G02*
X116124000Y-80901000I0J-150000D01*
G01*
X116124000Y-82551000D01*
G75*
G02*
X115974000Y-82701000I-150000J0D01*
G01*
X115674000Y-82701000D01*
G75*
G02*
X115524000Y-82551000I0J150000D01*
G01*
X115524000Y-80901000D01*
G75*
G02*
X115674000Y-80751000I150000J0D01*
G01*
G37*
%TD.AperFunction*%
%TD*%
%TO.P,R4,2*%
%TO.N,Net-(Q1-Pad2)*%
%TA.AperFunction,SMDPad,CuDef*%
G36*
G01*
X129343999Y-83127000D02*
X130244001Y-83127000D01*
G75*
G02*
X130494000Y-83376999I0J-249999D01*
G01*
X130494000Y-84027001D01*
G75*
G02*
X130244001Y-84277000I-249999J0D01*
G01*
X129343999Y-84277000D01*
G75*
G02*
X129094000Y-84027001I0J249999D01*
G01*
X129094000Y-83376999D01*
G75*
G02*
X129343999Y-83127000I249999J0D01*
G01*
G37*
%TD.AperFunction*%
%TO.P,R4,1*%
%TO.N,Net-(Q2-Pad1)*%
%TA.AperFunction,SMDPad,CuDef*%
G36*
G01*
X129343999Y-81077000D02*
X130244001Y-81077000D01*
G75*
G02*
X130494000Y-81326999I0J-249999D01*
G01*
X130494000Y-81977001D01*
G75*
G02*
X130244001Y-82227000I-249999J0D01*
G01*
X129343999Y-82227000D01*
G75*
G02*
X129094000Y-81977001I0J249999D01*
G01*
X129094000Y-81326999D01*
G75*
G02*
X129343999Y-81077000I249999J0D01*
G01*
G37*
%TD.AperFunction*%
%TD*%
%TO.P,R3,2*%
%TO.N,Net-(Q2-Pad2)*%
%TA.AperFunction,SMDPad,CuDef*%
G36*
G01*
X128212001Y-82227000D02*
X127311999Y-82227000D01*
G75*
G02*
X127062000Y-81977001I0J249999D01*
G01*
X127062000Y-81326999D01*
G75*
G02*
X127311999Y-81077000I249999J0D01*
G01*
X128212001Y-81077000D01*
G75*
G02*
X128462000Y-81326999I0J-249999D01*
G01*
X128462000Y-81977001D01*
G75*
G02*
X128212001Y-82227000I-249999J0D01*
G01*
G37*
%TD.AperFunction*%
%TO.P,R3,1*%
%TO.N,Net-(Q1-Pad1)*%
%TA.AperFunction,SMDPad,CuDef*%
G36*
G01*
X128212001Y-84277000D02*
X127311999Y-84277000D01*
G75*
G02*
X127062000Y-84027001I0J249999D01*
G01*
X127062000Y-83376999D01*
G75*
G02*
X127311999Y-83127000I249999J0D01*
G01*
X128212001Y-83127000D01*
G75*
G02*
X128462000Y-83376999I0J-249999D01*
G01*
X128462000Y-84027001D01*
G75*
G02*
X128212001Y-84277000I-249999J0D01*
G01*
G37*
%TD.AperFunction*%
%TD*%
%TO.P,R2,2*%
%TO.N,Net-(J1-PadB5)*%
%TA.AperFunction,SMDPad,CuDef*%
G36*
G01*
X119195000Y-70173001D02*
X119195000Y-69272999D01*
G75*
G02*
X119444999Y-69023000I249999J0D01*
G01*
X120095001Y-69023000D01*
G75*
G02*
X120345000Y-69272999I0J-249999D01*
G01*
X120345000Y-70173001D01*
G75*
G02*
X120095001Y-70423000I-249999J0D01*
G01*
X119444999Y-70423000D01*
G75*
G02*
X119195000Y-70173001I0J249999D01*
G01*
G37*
%TD.AperFunction*%
%TO.P,R2,1*%
%TO.N,GND*%
%TA.AperFunction,SMDPad,CuDef*%
G36*
G01*
X117145000Y-70173001D02*
X117145000Y-69272999D01*
G75*
G02*
X117394999Y-69023000I249999J0D01*
G01*
X118045001Y-69023000D01*
G75*
G02*
X118295000Y-69272999I0J-249999D01*
G01*
X118295000Y-70173001D01*
G75*
G02*
X118045001Y-70423000I-249999J0D01*
G01*
X117394999Y-70423000D01*
G75*
G02*
X117145000Y-70173001I0J249999D01*
G01*
G37*
%TD.AperFunction*%
%TD*%
%TO.P,R1,2*%
%TO.N,Net-(J1-PadA5)*%
%TA.AperFunction,SMDPad,CuDef*%
G36*
G01*
X119195000Y-67887001D02*
X119195000Y-66986999D01*
G75*
G02*
X119444999Y-66737000I249999J0D01*
G01*
X120095001Y-66737000D01*
G75*
G02*
X120345000Y-66986999I0J-249999D01*
G01*
X120345000Y-67887001D01*
G75*
G02*
X120095001Y-68137000I-249999J0D01*
G01*
X119444999Y-68137000D01*
G75*
G02*
X119195000Y-67887001I0J249999D01*
G01*
G37*
%TD.AperFunction*%
%TO.P,R1,1*%
%TO.N,GND*%
%TA.AperFunction,SMDPad,CuDef*%
G36*
G01*
X117145000Y-67887001D02*
X117145000Y-66986999D01*
G75*
G02*
X117394999Y-66737000I249999J0D01*
G01*
X118045001Y-66737000D01*
G75*
G02*
X118295000Y-66986999I0J-249999D01*
G01*
X118295000Y-67887001D01*
G75*
G02*
X118045001Y-68137000I-249999J0D01*
G01*
X117394999Y-68137000D01*
G75*
G02*
X117145000Y-67887001I0J249999D01*
G01*
G37*
%TD.AperFunction*%
%TD*%
D18*
%TO.P,Q2,3*%
%TO.N,Net-(Q2-Pad3)*%
X128651000Y-77867000D03*
%TO.P,Q2,2*%
%TO.N,Net-(Q2-Pad2)*%
X127701000Y-79867000D03*
%TO.P,Q2,1*%
%TO.N,Net-(Q2-Pad1)*%
X129601000Y-79867000D03*
%TD*%
%TO.P,Q1,3*%
%TO.N,Net-(Q1-Pad3)*%
X128905000Y-87614000D03*
%TO.P,Q1,2*%
%TO.N,Net-(Q1-Pad2)*%
X129855000Y-85614000D03*
%TO.P,Q1,1*%
%TO.N,Net-(Q1-Pad1)*%
X127955000Y-85614000D03*
%TD*%
D13*
%TO.P,J3,1*%
%TO.N,+3V3*%
X90424000Y-59817000D03*
D12*
%TO.P,J3,2*%
%TO.N,GND*%
X92964000Y-59817000D03*
%TO.P,J3,3*%
%TO.N,TFT_CS*%
X95504000Y-59817000D03*
%TO.P,J3,4*%
%TO.N,TFT_RESET*%
X98044000Y-59817000D03*
%TO.P,J3,5*%
%TO.N,TFT_DC*%
X100584000Y-59817000D03*
%TO.P,J3,6*%
%TO.N,ESP_MOSI*%
X103124000Y-59817000D03*
%TO.P,J3,7*%
%TO.N,ESP_SCK*%
X105664000Y-59817000D03*
%TO.P,J3,8*%
%TO.N,LED*%
X108204000Y-59817000D03*
%TO.P,J3,9*%
%TO.N,ESP_MISO*%
X110744000Y-59817000D03*
%TO.P,J3,10*%
%TO.N,ESP_SCK*%
X113284000Y-59817000D03*
%TO.P,J3,11*%
%TO.N,TOUCH_CS*%
X115824000Y-59817000D03*
%TO.P,J3,12*%
%TO.N,ESP_MOSI*%
X118364000Y-59817000D03*
%TO.P,J3,13*%
%TO.N,ESP_MISO*%
X120904000Y-59817000D03*
%TO.P,J3,14*%
%TO.N,Net-(J3-Pad14)*%
X123444000Y-59817000D03*
%TD*%
D19*
%TO.P,J1,B11*%
%TO.N,Net-(J1-PadB11)*%
X124498000Y-65545000D03*
%TO.P,J1,B10*%
%TO.N,Net-(J1-PadB10)*%
X124498000Y-66345000D03*
%TO.P,J1,B8*%
%TO.N,Net-(J1-PadB8)*%
X124498000Y-67145000D03*
%TO.P,J1,B5*%
%TO.N,Net-(J1-PadB5)*%
X124498000Y-68745000D03*
%TO.P,J1,B3*%
%TO.N,Net-(J1-PadB3)*%
X124498000Y-69545000D03*
%TO.P,J1,B2*%
%TO.N,Net-(J1-PadB2)*%
X124498000Y-70345000D03*
%TO.P,J1,B12*%
%TO.N,GND*%
X123798000Y-65145000D03*
%TO.P,J1,B9*%
%TO.N,VBUS*%
X123798000Y-66745000D03*
%TO.P,J1,B7*%
%TO.N,D-*%
X123798000Y-67545000D03*
%TO.P,J1,B6*%
%TO.N,D+*%
X123798000Y-68345000D03*
%TO.P,J1,B4*%
%TO.N,VBUS*%
X123798000Y-69145000D03*
%TO.P,J1,B1*%
%TO.N,GND*%
X123798000Y-70745000D03*
D20*
%TO.P,J1,S1*%
X130348000Y-63455000D03*
X130348000Y-72435000D03*
X124398000Y-72075000D03*
D21*
%TO.P,J1,A11*%
%TO.N,Net-(J1-PadA11)*%
X122488000Y-70195000D03*
%TO.P,J1,A8*%
%TO.N,Net-(J1-PadA8)*%
X122488000Y-68695000D03*
%TO.P,J1,A9*%
%TO.N,VBUS*%
X122488000Y-69195000D03*
%TO.P,J1,A10*%
%TO.N,Net-(J1-PadA10)*%
X122488000Y-69695000D03*
%TO.P,J1,A12*%
%TO.N,GND*%
X122488000Y-70695000D03*
%TO.P,J1,A7*%
%TO.N,D-*%
X122488000Y-68195000D03*
%TO.P,J1,A6*%
%TO.N,D+*%
X122488000Y-67695000D03*
%TO.P,J1,A5*%
%TO.N,Net-(J1-PadA5)*%
X122488000Y-67195000D03*
%TO.P,J1,A4*%
%TO.N,VBUS*%
X122488000Y-66695000D03*
%TO.P,J1,A3*%
%TO.N,Net-(J1-PadA3)*%
X122488000Y-66195000D03*
%TO.P,J1,A2*%
%TO.N,Net-(J1-PadA2)*%
X122488000Y-65695000D03*
%TO.P,J1,A1*%
%TO.N,GND*%
X122488000Y-65195000D03*
D20*
%TO.P,J1,S1*%
X124398000Y-63815000D03*
%TD*%
%TO.P,D1,2*%
%TO.N,VBUS*%
%TA.AperFunction,SMDPad,CuDef*%
G36*
G01*
X119520000Y-65649000D02*
X119520000Y-64399000D01*
G75*
G02*
X119770000Y-64149000I250000J0D01*
G01*
X120520000Y-64149000D01*
G75*
G02*
X120770000Y-64399000I0J-250000D01*
G01*
X120770000Y-65649000D01*
G75*
G02*
X120520000Y-65899000I-250000J0D01*
G01*
X119770000Y-65899000D01*
G75*
G02*
X119520000Y-65649000I0J250000D01*
G01*
G37*
%TD.AperFunction*%
%TO.P,D1,1*%
%TO.N,Net-(C4-Pad1)*%
%TA.AperFunction,SMDPad,CuDef*%
G36*
G01*
X116720000Y-65649000D02*
X116720000Y-64399000D01*
G75*
G02*
X116970000Y-64149000I250000J0D01*
G01*
X117720000Y-64149000D01*
G75*
G02*
X117970000Y-64399000I0J-250000D01*
G01*
X117970000Y-65649000D01*
G75*
G02*
X117720000Y-65899000I-250000J0D01*
G01*
X116970000Y-65899000D01*
G75*
G02*
X116720000Y-65649000I0J250000D01*
G01*
G37*
%TD.AperFunction*%
%TD*%
%TO.P,C5,2*%
%TO.N,GND*%
%TA.AperFunction,SMDPad,CuDef*%
G36*
G01*
X128257000Y-74305000D02*
X128257000Y-75555000D01*
G75*
G02*
X128007000Y-75805000I-250000J0D01*
G01*
X127082000Y-75805000D01*
G75*
G02*
X126832000Y-75555000I0J250000D01*
G01*
X126832000Y-74305000D01*
G75*
G02*
X127082000Y-74055000I250000J0D01*
G01*
X128007000Y-74055000D01*
G75*
G02*
X128257000Y-74305000I0J-250000D01*
G01*
G37*
%TD.AperFunction*%
%TO.P,C5,1*%
%TO.N,+3V3*%
%TA.AperFunction,SMDPad,CuDef*%
G36*
G01*
X131232000Y-74305000D02*
X131232000Y-75555000D01*
G75*
G02*
X130982000Y-75805000I-250000J0D01*
G01*
X130057000Y-75805000D01*
G75*
G02*
X129807000Y-75555000I0J250000D01*
G01*
X129807000Y-74305000D01*
G75*
G02*
X130057000Y-74055000I250000J0D01*
G01*
X130982000Y-74055000D01*
G75*
G02*
X131232000Y-74305000I0J-250000D01*
G01*
G37*
%TD.AperFunction*%
%TD*%
%TO.P,C3,2*%
%TO.N,GND*%
%TA.AperFunction,SMDPad,CuDef*%
G36*
G01*
X116221500Y-76931000D02*
X116696500Y-76931000D01*
G75*
G02*
X116934000Y-77168500I0J-237500D01*
G01*
X116934000Y-77743500D01*
G75*
G02*
X116696500Y-77981000I-237500J0D01*
G01*
X116221500Y-77981000D01*
G75*
G02*
X115984000Y-77743500I0J237500D01*
G01*
X115984000Y-77168500D01*
G75*
G02*
X116221500Y-76931000I237500J0D01*
G01*
G37*
%TD.AperFunction*%
%TO.P,C3,1*%
%TO.N,Net-(C3-Pad1)*%
%TA.AperFunction,SMDPad,CuDef*%
G36*
G01*
X116221500Y-75181000D02*
X116696500Y-75181000D01*
G75*
G02*
X116934000Y-75418500I0J-237500D01*
G01*
X116934000Y-75993500D01*
G75*
G02*
X116696500Y-76231000I-237500J0D01*
G01*
X116221500Y-76231000D01*
G75*
G02*
X115984000Y-75993500I0J237500D01*
G01*
X115984000Y-75418500D01*
G75*
G02*
X116221500Y-75181000I237500J0D01*
G01*
G37*
%TD.AperFunction*%
%TD*%
%TO.P,C2,2*%
%TO.N,GND*%
%TA.AperFunction,SMDPad,CuDef*%
G36*
G01*
X124316500Y-76231000D02*
X123841500Y-76231000D01*
G75*
G02*
X123604000Y-75993500I0J237500D01*
G01*
X123604000Y-75418500D01*
G75*
G02*
X123841500Y-75181000I237500J0D01*
G01*
X124316500Y-75181000D01*
G75*
G02*
X124554000Y-75418500I0J-237500D01*
G01*
X124554000Y-75993500D01*
G75*
G02*
X124316500Y-76231000I-237500J0D01*
G01*
G37*
%TD.AperFunction*%
%TO.P,C2,1*%
%TO.N,Net-(C2-Pad1)*%
%TA.AperFunction,SMDPad,CuDef*%
G36*
G01*
X124316500Y-77981000D02*
X123841500Y-77981000D01*
G75*
G02*
X123604000Y-77743500I0J237500D01*
G01*
X123604000Y-77168500D01*
G75*
G02*
X123841500Y-76931000I237500J0D01*
G01*
X124316500Y-76931000D01*
G75*
G02*
X124554000Y-77168500I0J-237500D01*
G01*
X124554000Y-77743500D01*
G75*
G02*
X124316500Y-77981000I-237500J0D01*
G01*
G37*
%TD.AperFunction*%
%TD*%
D22*
%TO.N,GND*%
X110744000Y-84455000D03*
X125730000Y-74930000D03*
X98679000Y-66548000D03*
X99314000Y-78232000D03*
X120777000Y-71247000D03*
X125603000Y-78740000D03*
X119634000Y-76581000D03*
X112395000Y-82804000D03*
X112395000Y-84328000D03*
X130810000Y-80264000D03*
X91861640Y-84503260D03*
%TO.N,Net-(C1-Pad1)*%
X120142000Y-83820000D03*
%TO.N,Net-(C4-Pad1)*%
X119761000Y-79121000D03*
%TO.N,+3V3*%
X130556000Y-73406000D03*
X105918000Y-82169000D03*
%TO.N,VBUS*%
X120468000Y-66222000D03*
X121285000Y-69215000D03*
X116332000Y-72390000D03*
X115697000Y-84709000D03*
%TO.N,Net-(J1-PadB5)*%
X121539000Y-70104000D03*
%TO.N,D-*%
X126619000Y-67818000D03*
X129603500Y-67881500D03*
%TO.N,D+*%
X121412000Y-68072000D03*
X131699000Y-84582000D03*
%TO.N,ESP_MISO*%
X111126330Y-73023670D03*
%TO.N,ESP_MOSI*%
X108585000Y-66548000D03*
%TO.N,ESP_SCK*%
X105918000Y-62738000D03*
X106807000Y-67183000D03*
%TO.N,TFT_LED*%
X98171000Y-69215000D03*
%TO.N,TFT_DC*%
X93980000Y-69850000D03*
%TO.N,TFT_RESET*%
X94361000Y-66675000D03*
%TO.N,ESP_SCL*%
X110617000Y-78380000D03*
D23*
X93573600Y-72898000D03*
D22*
X93573600Y-71323200D03*
%TO.N,ESP_SDA*%
X110617000Y-75565000D03*
%TO.N,Net-(Q1-Pad3)*%
X120142000Y-80137000D03*
%TO.N,Net-(Q1-Pad2)*%
X128778000Y-84836000D03*
X118364000Y-88900000D03*
%TO.N,Net-(Q2-Pad3)*%
X116586000Y-71374000D03*
X127889000Y-73279000D03*
X128524000Y-76454000D03*
%TO.N,Net-(Q2-Pad2)*%
X127127000Y-78486000D03*
X119634000Y-88900000D03*
%TO.N,RST*%
X114427000Y-88900000D03*
X117221000Y-83439000D03*
%TO.N,FLASH*%
X114554000Y-65405000D03*
%TO.N,Net-(R10-Pad2)*%
X111379000Y-66548000D03*
%TO.N,RXD*%
X108870799Y-77704999D03*
%TO.N,TXD*%
X114554000Y-77597000D03*
X115633500Y-83248500D03*
X108864400Y-76835000D03*
%TO.N,LoRa_NSS*%
X110744000Y-67945000D03*
%TO.N,LoRa_RST*%
X110744000Y-69215000D03*
%TO.N,LoRa_INT*%
X110490000Y-70993000D03*
%TO.N,IO5*%
X111252000Y-70482700D03*
X92710000Y-69980002D03*
%TD*%
D24*
%TO.N,GND*%
X105537000Y-82931000D02*
X110657458Y-82931000D01*
X110657458Y-82931000D02*
X110744000Y-83017542D01*
X110744000Y-83017542D02*
X110744000Y-84455000D01*
X110744000Y-84455000D02*
X110744000Y-84455000D01*
X105537000Y-82931000D02*
X98425000Y-82931000D01*
D25*
X123748000Y-65195000D02*
X123798000Y-65145000D01*
X122488000Y-65195000D02*
X123748000Y-65195000D01*
D26*
X124398000Y-64545000D02*
X124398000Y-63815000D01*
X123798000Y-65145000D02*
X124398000Y-64545000D01*
X129988000Y-63815000D02*
X130348000Y-63455000D01*
X124398000Y-63815000D02*
X129988000Y-63815000D01*
X124398000Y-71345000D02*
X124398000Y-72075000D01*
X123798000Y-70745000D02*
X124398000Y-71345000D01*
X129988000Y-72075000D02*
X130348000Y-72435000D01*
X124398000Y-72075000D02*
X129988000Y-72075000D01*
X127853000Y-74930000D02*
X130348000Y-72435000D01*
X127544500Y-74930000D02*
X127853000Y-74930000D01*
X124855000Y-74930000D02*
X124079000Y-75706000D01*
X127544500Y-74930000D02*
X125730000Y-74930000D01*
X123827000Y-75454000D02*
X124079000Y-75706000D01*
X121792000Y-75454000D02*
X123827000Y-75454000D01*
X117720000Y-67437000D02*
X117720000Y-69723000D01*
X125730000Y-74930000D02*
X124855000Y-74930000D01*
D25*
X123748000Y-70695000D02*
X123798000Y-70745000D01*
X122488000Y-70695000D02*
X123748000Y-70695000D01*
D24*
X98797000Y-64505000D02*
X97652000Y-64505000D01*
X95758000Y-82169000D02*
X96012000Y-81915000D01*
X96012000Y-81915000D02*
X95377000Y-81915000D01*
X98797000Y-66430000D02*
X98679000Y-66548000D01*
X98797000Y-64505000D02*
X98797000Y-66430000D01*
X103514180Y-71383180D02*
X103514180Y-73969370D01*
X98679000Y-66548000D02*
X103514180Y-71383180D01*
X103514180Y-74031820D02*
X99314000Y-78232000D01*
X103514180Y-73969370D02*
X103514180Y-74031820D01*
X117720000Y-69723000D02*
X117720000Y-70857000D01*
X117720000Y-70857000D02*
X118110000Y-71247000D01*
X118110000Y-71247000D02*
X120777000Y-71247000D01*
X122488000Y-70806000D02*
X122488000Y-70745001D01*
X122047000Y-71247000D02*
X122488000Y-70806000D01*
X120777000Y-71247000D02*
X122047000Y-71247000D01*
X113012000Y-81915000D02*
X113012000Y-82187000D01*
X113012000Y-82187000D02*
X112395000Y-82804000D01*
X112395000Y-82804000D02*
X112395000Y-82804000D01*
X112395000Y-84328000D02*
X112395000Y-84201000D01*
X112395000Y-84201000D02*
X112395000Y-84709000D01*
X116459000Y-77456000D02*
X116459000Y-77132576D01*
X116459000Y-77132576D02*
X115570000Y-76243576D01*
X115570000Y-76243576D02*
X115570000Y-74676000D01*
X115570000Y-74676000D02*
X116078000Y-74168000D01*
X116078000Y-74168000D02*
X116332000Y-74168000D01*
X127544500Y-74930000D02*
X128397000Y-74930000D01*
X128397000Y-74930000D02*
X130810000Y-77343000D01*
X130810000Y-77343000D02*
X130810000Y-80264000D01*
X130810000Y-80264000D02*
X130810000Y-80264000D01*
X119365000Y-76581000D02*
X118492000Y-77454000D01*
X119634000Y-76581000D02*
X119365000Y-76581000D01*
D27*
X91861640Y-82169000D02*
X91861640Y-84503260D01*
D24*
X91861640Y-82169000D02*
X95758000Y-82169000D01*
X89535000Y-82169000D02*
X91861640Y-82169000D01*
D27*
X91861640Y-84503260D02*
X91861640Y-84503260D01*
X97652000Y-64505000D02*
X92964000Y-59817000D01*
D24*
%TO.N,Net-(C1-Pad1)*%
X119634000Y-81726000D02*
X119634000Y-83566000D01*
X119888000Y-83566000D02*
X120142000Y-83820000D01*
X119634000Y-83566000D02*
X119888000Y-83566000D01*
%TO.N,Net-(C2-Pad1)*%
X124077000Y-77454000D02*
X124079000Y-77456000D01*
X121792000Y-77454000D02*
X124077000Y-77454000D01*
X124714000Y-78091000D02*
X124079000Y-77456000D01*
X124714000Y-81726000D02*
X124714000Y-78091000D01*
%TO.N,Net-(C3-Pad1)*%
X116711000Y-75454000D02*
X116459000Y-75706000D01*
X118492000Y-75454000D02*
X116711000Y-75454000D01*
X123190000Y-79375000D02*
X123444000Y-79629000D01*
X120507000Y-75454000D02*
X120523000Y-75470000D01*
X118492000Y-75454000D02*
X120507000Y-75454000D01*
X123444000Y-79629000D02*
X123444000Y-81726000D01*
X120523000Y-78613000D02*
X121285000Y-79375000D01*
X120523000Y-75470000D02*
X120523000Y-78613000D01*
X121285000Y-79375000D02*
X123190000Y-79375000D01*
%TO.N,Net-(C4-Pad1)*%
X117345000Y-65024000D02*
X117345000Y-65154000D01*
X119380000Y-78740000D02*
X119761000Y-79121000D01*
X117345000Y-65024000D02*
X116459000Y-65024000D01*
X116459000Y-65024000D02*
X114955002Y-66527998D01*
X115697000Y-78740000D02*
X119380000Y-78740000D01*
X115443000Y-78486000D02*
X115697000Y-78740000D01*
X115443000Y-78486000D02*
X115443000Y-78232000D01*
X115443000Y-78232000D02*
X115316000Y-78105000D01*
X115316000Y-78105000D02*
X115316000Y-77089000D01*
X115082002Y-77089000D02*
X114808000Y-76814998D01*
X115316000Y-77089000D02*
X115082002Y-77089000D01*
X114808000Y-66675000D02*
X114955002Y-66527998D01*
X114808000Y-76814998D02*
X114808000Y-66675000D01*
%TO.N,+3V3*%
X130519500Y-74930000D02*
X130519500Y-74458500D01*
X130556000Y-74893500D02*
X130519500Y-74930000D01*
X130556000Y-73406000D02*
X130556000Y-74893500D01*
X96012000Y-80645000D02*
X94869000Y-80645000D01*
X97412000Y-80645000D02*
X98936000Y-82169000D01*
X96012000Y-80645000D02*
X97412000Y-80645000D01*
X98936000Y-82169000D02*
X105918000Y-82169000D01*
X105918000Y-82169000D02*
X105918000Y-82169000D01*
X90551000Y-80645000D02*
X96012000Y-80645000D01*
X89535000Y-79629000D02*
X90551000Y-80645000D01*
D25*
X101854000Y-61722000D02*
X101473000Y-62103000D01*
X101854000Y-58928000D02*
X101854000Y-61722000D01*
X101346000Y-58420000D02*
X101854000Y-58928000D01*
X90424000Y-59309000D02*
X91440000Y-58293000D01*
X91440000Y-58293000D02*
X100799002Y-58293000D01*
X90424000Y-59817000D02*
X90424000Y-59309000D01*
X100799002Y-58293000D02*
X100926002Y-58420000D01*
X100926002Y-58420000D02*
X101346000Y-58420000D01*
%TO.N,VBUS*%
X122488000Y-66695000D02*
X121888000Y-66695000D01*
X123748000Y-69195000D02*
X122488000Y-69195000D01*
X123798000Y-69145000D02*
X123748000Y-69195000D01*
X123748000Y-66695000D02*
X123798000Y-66745000D01*
X122488000Y-66695000D02*
X123748000Y-66695000D01*
D27*
X120941000Y-66695000D02*
X121888000Y-66695000D01*
X120145000Y-65899000D02*
X120468000Y-66222000D01*
X120145000Y-65024000D02*
X120145000Y-65899000D01*
X120468000Y-66222000D02*
X120941000Y-66695000D01*
D25*
X121305000Y-69195000D02*
X121285000Y-69215000D01*
X122488000Y-69195000D02*
X121305000Y-69195000D01*
D24*
X120468000Y-66222000D02*
X118066256Y-66222000D01*
X117989246Y-66299010D02*
X116707990Y-66299010D01*
X118066256Y-66222000D02*
X117989246Y-66299010D01*
X115570000Y-67437000D02*
X115570000Y-71922458D01*
X116707990Y-66299010D02*
X115570000Y-67437000D01*
X115570000Y-71922458D02*
X115783542Y-72136000D01*
X115783542Y-72136000D02*
X116078000Y-72136000D01*
X116078000Y-72136000D02*
X116332000Y-72390000D01*
X116332000Y-72390000D02*
X116332000Y-72390000D01*
X115697000Y-86549000D02*
X115824000Y-86676000D01*
X115697000Y-84709000D02*
X115697000Y-86549000D01*
D25*
%TO.N,Net-(J1-PadB5)*%
X120151000Y-70104000D02*
X119770000Y-69723000D01*
X121539000Y-70104000D02*
X120151000Y-70104000D01*
%TO.N,D-*%
X122488000Y-68195000D02*
X123073002Y-68195000D01*
X123073002Y-68195000D02*
X123190000Y-68078002D01*
X123190000Y-68078002D02*
X123190000Y-67818000D01*
X123463000Y-67545000D02*
X123798000Y-67545000D01*
X123190000Y-67818000D02*
X123463000Y-67545000D01*
X123935998Y-67545000D02*
X124208998Y-67818000D01*
X123798000Y-67545000D02*
X123935998Y-67545000D01*
X124208998Y-67818000D02*
X126619000Y-67818000D01*
X126619000Y-67818000D02*
X126619000Y-67818000D01*
D24*
X131632010Y-71307010D02*
X131632010Y-82489990D01*
X122174000Y-81726000D02*
X122174000Y-83058000D01*
X122174000Y-83058000D02*
X122428000Y-83312000D01*
X122428000Y-83312000D02*
X125857000Y-83312000D01*
X125857000Y-83312000D02*
X126492000Y-82677000D01*
X131445000Y-82677000D02*
X131632010Y-82489990D01*
X126492000Y-82677000D02*
X131445000Y-82677000D01*
D25*
X126619000Y-67818000D02*
X126746000Y-67818000D01*
D24*
X131632010Y-71307010D02*
X131632010Y-69910010D01*
X131632010Y-69910010D02*
X129603500Y-67881500D01*
X129603500Y-67881500D02*
X129540000Y-67818000D01*
D25*
%TO.N,D+*%
X121543000Y-67695000D02*
X121539000Y-67691000D01*
X122488000Y-67695000D02*
X121543000Y-67695000D01*
X121543000Y-67941000D02*
X121412000Y-68072000D01*
X121543000Y-67695000D02*
X121543000Y-67941000D01*
D24*
X131699000Y-85340002D02*
X130425002Y-86614000D01*
X131699000Y-84582000D02*
X131699000Y-85340002D01*
X127384998Y-86614000D02*
X125730000Y-84959002D01*
X130425002Y-86614000D02*
X127384998Y-86614000D01*
X125730000Y-84959002D02*
X125730000Y-84201000D01*
X120904000Y-82701000D02*
X120904000Y-81726000D01*
X122115009Y-83912009D02*
X120904000Y-82701000D01*
X125441010Y-83912010D02*
X122115009Y-83912009D01*
X125730000Y-84201000D02*
X125441010Y-83912010D01*
D25*
%TO.N,Net-(J1-PadA5)*%
X119770000Y-67437000D02*
X120662010Y-67437000D01*
X120892000Y-67195000D02*
X122488000Y-67195000D01*
X120662010Y-67424990D02*
X120892000Y-67195000D01*
X120662010Y-67437000D02*
X120662010Y-67424990D01*
D24*
%TO.N,ESP_MISO*%
X113013900Y-73023670D02*
X111126330Y-73023670D01*
X111126330Y-73023670D02*
X111126330Y-73023670D01*
%TO.N,ESP_MOSI*%
X108585000Y-66548000D02*
X108331000Y-66294000D01*
X108331000Y-66294000D02*
X105918000Y-66294000D01*
X105918000Y-66294000D02*
X105664000Y-66548000D01*
X105664000Y-66548000D02*
X105664000Y-68834000D01*
X111125000Y-80645000D02*
X113012000Y-80645000D01*
D27*
X105664000Y-68834000D02*
X105664000Y-69672200D01*
X105664000Y-69672200D02*
X107035600Y-71043800D01*
X107035600Y-71043800D02*
X107035600Y-79095600D01*
X108585000Y-80645000D02*
X111125000Y-80645000D01*
X107035600Y-79095600D02*
X108585000Y-80645000D01*
D24*
%TO.N,TOUCH_CS*%
X108957000Y-64505000D02*
X108957000Y-62874000D01*
X112767000Y-62874000D02*
X108957000Y-62874000D01*
X115824000Y-59817000D02*
X112767000Y-62874000D01*
%TO.N,ESP_SCK*%
X105664000Y-59817000D02*
X105664000Y-59055000D01*
X105664000Y-59055000D02*
X106426000Y-58293000D01*
X111760000Y-58293000D02*
X113284000Y-59817000D01*
X106426000Y-58293000D02*
X111760000Y-58293000D01*
X113284000Y-59817000D02*
X112014000Y-61087000D01*
X106680000Y-62738000D02*
X105918000Y-62738000D01*
X105918000Y-62738000D02*
X105918000Y-62738000D01*
X109980900Y-71753900D02*
X113011300Y-71753900D01*
X106807000Y-68580000D02*
X109980900Y-71753900D01*
X106807000Y-67183000D02*
X106807000Y-68580000D01*
D27*
X107569000Y-61849000D02*
X106680000Y-62738000D01*
X112014000Y-61087000D02*
X111252000Y-61849000D01*
X111252000Y-61849000D02*
X107569000Y-61849000D01*
D24*
%TO.N,TFT_LED*%
X98171000Y-69215000D02*
X96012000Y-69215000D01*
%TO.N,TFT_DC*%
X94615000Y-70485000D02*
X93980000Y-69850000D01*
X96012000Y-70485000D02*
X94615000Y-70485000D01*
%TO.N,TFT_RESET*%
X96012000Y-66675000D02*
X94869000Y-66675000D01*
X94869000Y-66675000D02*
X94361000Y-66675000D01*
X94361000Y-66675000D02*
X94361000Y-66675000D01*
%TO.N,TFT_CS*%
X100067000Y-63105000D02*
X99319000Y-62357000D01*
X100067000Y-64505000D02*
X100067000Y-63105000D01*
X98044000Y-62357000D02*
X95504000Y-59817000D01*
X99319000Y-62357000D02*
X98044000Y-62357000D01*
%TO.N,IO27*%
X91694000Y-72390000D02*
X89535000Y-74549000D01*
X96012000Y-67945000D02*
X92456000Y-67945000D01*
X92456000Y-67945000D02*
X91694000Y-68707000D01*
X91694000Y-68707000D02*
X91694000Y-72390000D01*
%TO.N,ESP_SCL*%
X111612000Y-79375000D02*
X110617000Y-78380000D01*
X113012000Y-79375000D02*
X111612000Y-79375000D01*
X110617000Y-78380000D02*
X110617000Y-78380000D01*
D27*
X93573600Y-71330820D02*
X93573600Y-72872600D01*
D24*
%TO.N,ESP_SDA*%
X113012000Y-75565000D02*
X111125000Y-75565000D01*
X111125000Y-75565000D02*
X110617000Y-75565000D01*
X110617000Y-75565000D02*
X110617000Y-75565000D01*
D25*
%TO.N,Net-(Q1-Pad3)*%
X128905000Y-87614000D02*
X127492000Y-87614000D01*
X127492000Y-87614000D02*
X124714000Y-84836000D01*
X124714000Y-84836000D02*
X119724998Y-84836000D01*
X118881999Y-83993001D02*
X118881999Y-83175001D01*
X119724998Y-84836000D02*
X118881999Y-83993001D01*
X118881999Y-82854769D02*
X118999000Y-82737768D01*
X118881999Y-83175001D02*
X118881999Y-82854769D01*
X118999000Y-82737768D02*
X118999000Y-80714232D01*
X118999000Y-80714232D02*
X118999000Y-80518000D01*
X118999000Y-80518000D02*
X119380000Y-80137000D01*
X119380000Y-80137000D02*
X120142000Y-80137000D01*
X120142000Y-80137000D02*
X120142000Y-80137000D01*
D24*
%TO.N,Net-(Q1-Pad2)*%
X129855000Y-83763000D02*
X129794000Y-83702000D01*
X129855000Y-84516000D02*
X129855000Y-83763000D01*
X118364000Y-88392000D02*
X118364000Y-88900000D01*
X118364000Y-86676000D02*
X118364000Y-88392000D01*
X128839000Y-84775000D02*
X128778000Y-84836000D01*
X129855000Y-84775000D02*
X128839000Y-84775000D01*
X129855000Y-84775000D02*
X129855000Y-84516000D01*
X129855000Y-85614000D02*
X129855000Y-84775000D01*
%TO.N,Net-(Q1-Pad1)*%
X127762000Y-85421000D02*
X127955000Y-85614000D01*
X127762000Y-83702000D02*
X127762000Y-85421000D01*
%TO.N,Net-(Q2-Pad3)*%
X123317000Y-73279000D02*
X127889000Y-73279000D01*
X127889000Y-73279000D02*
X127889000Y-73279000D01*
X128524000Y-77740000D02*
X128651000Y-77867000D01*
X128524000Y-76454000D02*
X128524000Y-77740000D01*
X116586000Y-71374000D02*
X117221000Y-72009000D01*
X117221000Y-72009000D02*
X120523000Y-72009000D01*
X121793000Y-73279000D02*
X123317000Y-73279000D01*
X120523000Y-72009000D02*
X121793000Y-73279000D01*
%TO.N,Net-(Q2-Pad2)*%
X127701000Y-81591000D02*
X127762000Y-81652000D01*
X127701000Y-79867000D02*
X127701000Y-81591000D01*
X127701000Y-79867000D02*
X127701000Y-79060000D01*
X127701000Y-79060000D02*
X127127000Y-78486000D01*
X127127000Y-78486000D02*
X127127000Y-78486000D01*
X119634000Y-86676000D02*
X119634000Y-88392000D01*
X119634000Y-88392000D02*
X119634000Y-88900000D01*
%TO.N,Net-(Q2-Pad1)*%
X129601000Y-81459000D02*
X129794000Y-81652000D01*
X129601000Y-79867000D02*
X129601000Y-81459000D01*
%TO.N,RST*%
X114427000Y-84709000D02*
X114427000Y-88900000D01*
X114427000Y-88900000D02*
X114427000Y-89027000D01*
X117221000Y-83439000D02*
X117221000Y-83947000D01*
X113730001Y-84008999D02*
X113728500Y-84010500D01*
X117221000Y-83947000D02*
X117159001Y-84008999D01*
X117159001Y-84008999D02*
X113730001Y-84008999D01*
X113728500Y-84010500D02*
X114427000Y-84709000D01*
X113538000Y-83820000D02*
X113728500Y-84010500D01*
X111506000Y-82423000D02*
X111506000Y-83312000D01*
X111125000Y-82042000D02*
X111506000Y-82423000D01*
X98552000Y-79375000D02*
X99314000Y-80137000D01*
X107823000Y-82042000D02*
X111125000Y-82042000D01*
X96002000Y-79375000D02*
X98552000Y-79375000D01*
X99314000Y-80137000D02*
X105918000Y-80137000D01*
X105918000Y-80137000D02*
X107823000Y-82042000D01*
X111866998Y-83312000D02*
X112120998Y-83566000D01*
X111506000Y-83312000D02*
X111866998Y-83312000D01*
X113284000Y-83566000D02*
X113538000Y-83820000D01*
X112120998Y-83566000D02*
X113284000Y-83566000D01*
%TO.N,FLASH*%
X113010700Y-65403800D02*
X114552800Y-65403800D01*
X114552800Y-65403800D02*
X114554000Y-65405000D01*
%TO.N,Net-(R10-Pad2)*%
X112882500Y-66548000D02*
X113011000Y-66676500D01*
X111379000Y-66548000D02*
X112882500Y-66548000D01*
%TO.N,RXD*%
X113012000Y-78105000D02*
X113919000Y-78105000D01*
X118364000Y-80137000D02*
X118364000Y-81726000D01*
X117729000Y-79502000D02*
X118364000Y-80137000D01*
X115309002Y-79502000D02*
X117729000Y-79502000D01*
X113912002Y-78105000D02*
X115309002Y-79502000D01*
X113012000Y-78105000D02*
X113912002Y-78105000D01*
D27*
X112611999Y-77704999D02*
X109785199Y-77704999D01*
X113012000Y-78105000D02*
X112611999Y-77704999D01*
X109785199Y-77704999D02*
X108870799Y-77704999D01*
X108870799Y-77704999D02*
X108870799Y-77704999D01*
D24*
%TO.N,TXD*%
X116054334Y-83248500D02*
X115633500Y-83248500D01*
X117094000Y-82208834D02*
X116054334Y-83248500D01*
X117094000Y-81726000D02*
X117094000Y-82208834D01*
X113792000Y-76835000D02*
X114554000Y-77597000D01*
X113012000Y-76835000D02*
X113792000Y-76835000D01*
D27*
X113012000Y-76835000D02*
X109804200Y-76835000D01*
X109804200Y-76835000D02*
X108864400Y-76835000D01*
X108864400Y-76835000D02*
X108864400Y-76835000D01*
D24*
%TO.N,LoRa_NSS*%
X110744800Y-67944200D02*
X110744000Y-67945000D01*
X113013000Y-67944200D02*
X110744800Y-67944200D01*
%TO.N,LoRa_RST*%
X113009600Y-69215000D02*
X113011400Y-69213200D01*
X110744000Y-69215000D02*
X113009600Y-69215000D01*
%TO.N,LoRa_INT*%
X109601000Y-70104000D02*
X110490000Y-70993000D01*
X110227000Y-64505000D02*
X110227000Y-65905000D01*
X109601000Y-66531000D02*
X109601000Y-70104000D01*
X110227000Y-65905000D02*
X109601000Y-66531000D01*
%TO.N,IO5*%
X113009500Y-70482700D02*
X111252000Y-70482700D01*
X92710000Y-73914000D02*
X89535000Y-77089000D01*
X92710000Y-69980002D02*
X92710000Y-73914000D01*
D27*
%TO.N,LED*%
X102743000Y-61296001D02*
X102743000Y-62103000D01*
X102811002Y-61227999D02*
X102743000Y-61296001D01*
X108204000Y-59817000D02*
X106793001Y-61227999D01*
X106793001Y-61227999D02*
X102811002Y-61227999D01*
%TD*%
D28*
%TO.N,GND*%
G36*
X89122815Y-58515815D02*
G01*
X89043463Y-58612506D01*
X88984498Y-58722820D01*
X88948188Y-58842518D01*
X88935928Y-58967000D01*
X88935928Y-60667000D01*
X88948188Y-60791482D01*
X88984498Y-60911180D01*
X89043463Y-61021494D01*
X89122815Y-61118185D01*
X89219506Y-61197537D01*
X89329820Y-61256502D01*
X89449518Y-61292812D01*
X89574000Y-61305072D01*
X91274000Y-61305072D01*
X91398482Y-61292812D01*
X91518180Y-61256502D01*
X91628494Y-61197537D01*
X91725185Y-61118185D01*
X91804537Y-61021494D01*
X91863502Y-60911180D01*
X91887966Y-60830534D01*
X91963731Y-60914588D01*
X92197080Y-61088641D01*
X92459901Y-61213825D01*
X92607110Y-61258476D01*
X92837000Y-61137155D01*
X92837000Y-59944000D01*
X92817000Y-59944000D01*
X92817000Y-59690000D01*
X92837000Y-59690000D01*
X92837000Y-59670000D01*
X93091000Y-59670000D01*
X93091000Y-59690000D01*
X93111000Y-59690000D01*
X93111000Y-59944000D01*
X93091000Y-59944000D01*
X93091000Y-61137155D01*
X93320890Y-61258476D01*
X93468099Y-61213825D01*
X93730920Y-61088641D01*
X93964269Y-60914588D01*
X94159178Y-60698355D01*
X94228805Y-60581466D01*
X94350525Y-60763632D01*
X94557368Y-60970475D01*
X94800589Y-61132990D01*
X95070842Y-61244932D01*
X95357740Y-61302000D01*
X95650260Y-61302000D01*
X95781940Y-61275807D01*
X97424559Y-62918427D01*
X97450709Y-62950291D01*
X97577854Y-63054636D01*
X97722913Y-63132172D01*
X97811843Y-63159149D01*
X97757498Y-63260820D01*
X97721188Y-63380518D01*
X97708928Y-63505000D01*
X97712000Y-64219250D01*
X97870750Y-64378000D01*
X98670000Y-64378000D01*
X98670000Y-64358000D01*
X98924000Y-64358000D01*
X98924000Y-64378000D01*
X98944000Y-64378000D01*
X98944000Y-64632000D01*
X98924000Y-64632000D01*
X98924000Y-65981250D01*
X99082750Y-66140000D01*
X99247000Y-66143072D01*
X99371482Y-66130812D01*
X99432000Y-66112454D01*
X99492518Y-66130812D01*
X99617000Y-66143072D01*
X100517000Y-66143072D01*
X100641482Y-66130812D01*
X100702000Y-66112454D01*
X100762518Y-66130812D01*
X100887000Y-66143072D01*
X101787000Y-66143072D01*
X101911482Y-66130812D01*
X101972000Y-66112454D01*
X102032518Y-66130812D01*
X102157000Y-66143072D01*
X103057000Y-66143072D01*
X103181482Y-66130812D01*
X103242000Y-66112454D01*
X103302518Y-66130812D01*
X103427000Y-66143072D01*
X104327000Y-66143072D01*
X104451482Y-66130812D01*
X104512000Y-66112454D01*
X104572518Y-66130812D01*
X104697000Y-66143072D01*
X104933643Y-66143072D01*
X104888828Y-66226914D01*
X104841082Y-66384312D01*
X104824960Y-66548000D01*
X104829000Y-66589019D01*
X104829001Y-68875019D01*
X104841083Y-68997689D01*
X104854000Y-69040271D01*
X104854000Y-69632412D01*
X104850081Y-69672200D01*
X104854000Y-69711988D01*
X104854000Y-69711991D01*
X104865721Y-69830988D01*
X104900004Y-69944002D01*
X104912038Y-69983673D01*
X104987251Y-70124389D01*
X105042852Y-70192139D01*
X105088473Y-70247728D01*
X105119383Y-70273095D01*
X105678052Y-70831764D01*
X103799930Y-70834370D01*
X103641180Y-70993120D01*
X103641180Y-73842370D01*
X103661180Y-73842370D01*
X103661180Y-74096370D01*
X103641180Y-74096370D01*
X103641180Y-76945620D01*
X103799930Y-77104370D01*
X106014180Y-77107442D01*
X106138662Y-77095182D01*
X106225601Y-77068809D01*
X106225601Y-79055802D01*
X106221681Y-79095600D01*
X106237321Y-79254387D01*
X106275879Y-79381494D01*
X106239087Y-79361828D01*
X106081689Y-79314082D01*
X105959019Y-79302000D01*
X105959018Y-79302000D01*
X105918000Y-79297960D01*
X105876982Y-79302000D01*
X99659868Y-79302000D01*
X99171445Y-78813578D01*
X99145291Y-78781709D01*
X99018146Y-78677364D01*
X98873087Y-78599828D01*
X98715689Y-78552082D01*
X98593019Y-78540000D01*
X98593018Y-78540000D01*
X98552000Y-78535960D01*
X98510982Y-78540000D01*
X97648595Y-78540000D01*
X97650072Y-78525000D01*
X97650072Y-77625000D01*
X97637812Y-77500518D01*
X97624004Y-77455000D01*
X97637812Y-77409482D01*
X97650072Y-77285000D01*
X97650072Y-76469370D01*
X100376108Y-76469370D01*
X100388368Y-76593852D01*
X100424678Y-76713550D01*
X100483643Y-76823864D01*
X100562995Y-76920555D01*
X100659686Y-76999907D01*
X100770000Y-77058872D01*
X100889698Y-77095182D01*
X101014180Y-77107442D01*
X103228430Y-77104370D01*
X103387180Y-76945620D01*
X103387180Y-74096370D01*
X100537930Y-74096370D01*
X100379180Y-74255120D01*
X100376108Y-76469370D01*
X97650072Y-76469370D01*
X97650072Y-76385000D01*
X97637812Y-76260518D01*
X97619454Y-76200000D01*
X97637812Y-76139482D01*
X97650072Y-76015000D01*
X97650072Y-75115000D01*
X97637812Y-74990518D01*
X97619454Y-74930000D01*
X97637812Y-74869482D01*
X97650072Y-74745000D01*
X97650072Y-73845000D01*
X97637812Y-73720518D01*
X97619454Y-73660000D01*
X97637812Y-73599482D01*
X97650072Y-73475000D01*
X97650072Y-72575000D01*
X97637812Y-72450518D01*
X97619454Y-72389999D01*
X97637812Y-72329482D01*
X97650072Y-72205000D01*
X97650072Y-71469370D01*
X100376108Y-71469370D01*
X100379180Y-73683620D01*
X100537930Y-73842370D01*
X103387180Y-73842370D01*
X103387180Y-70993120D01*
X103228430Y-70834370D01*
X101014180Y-70831298D01*
X100889698Y-70843558D01*
X100770000Y-70879868D01*
X100659686Y-70938833D01*
X100562995Y-71018185D01*
X100483643Y-71114876D01*
X100424678Y-71225190D01*
X100388368Y-71344888D01*
X100376108Y-71469370D01*
X97650072Y-71469370D01*
X97650072Y-71305000D01*
X97637812Y-71180518D01*
X97619454Y-71120000D01*
X97637812Y-71059482D01*
X97650072Y-70935000D01*
X97650072Y-70050000D01*
X97743596Y-70050000D01*
X97898271Y-70114068D01*
X98078911Y-70150000D01*
X98263089Y-70150000D01*
X98443729Y-70114068D01*
X98613889Y-70043586D01*
X98767028Y-69941262D01*
X98897262Y-69811028D01*
X98999586Y-69657889D01*
X99070068Y-69487729D01*
X99106000Y-69307089D01*
X99106000Y-69122911D01*
X99070068Y-68942271D01*
X98999586Y-68772111D01*
X98897262Y-68618972D01*
X98767028Y-68488738D01*
X98613889Y-68386414D01*
X98443729Y-68315932D01*
X98263089Y-68280000D01*
X98078911Y-68280000D01*
X97898271Y-68315932D01*
X97743596Y-68380000D01*
X97650072Y-68380000D01*
X97650072Y-67495000D01*
X97637812Y-67370518D01*
X97619454Y-67310000D01*
X97637812Y-67249482D01*
X97650072Y-67125000D01*
X97650072Y-66225000D01*
X97637812Y-66100518D01*
X97619454Y-66040000D01*
X97637812Y-65979482D01*
X97650072Y-65855000D01*
X97650072Y-65505000D01*
X97708928Y-65505000D01*
X97721188Y-65629482D01*
X97757498Y-65749180D01*
X97816463Y-65859494D01*
X97895815Y-65956185D01*
X97992506Y-66035537D01*
X98102820Y-66094502D01*
X98222518Y-66130812D01*
X98347000Y-66143072D01*
X98511250Y-66140000D01*
X98670000Y-65981250D01*
X98670000Y-64632000D01*
X97870750Y-64632000D01*
X97712000Y-64790750D01*
X97708928Y-65505000D01*
X97650072Y-65505000D01*
X97650072Y-64955000D01*
X97637812Y-64830518D01*
X97601502Y-64710820D01*
X97542537Y-64600506D01*
X97463185Y-64503815D01*
X97366494Y-64424463D01*
X97256180Y-64365498D01*
X97136482Y-64329188D01*
X97012000Y-64316928D01*
X95012000Y-64316928D01*
X94887518Y-64329188D01*
X94767820Y-64365498D01*
X94657506Y-64424463D01*
X94560815Y-64503815D01*
X94481463Y-64600506D01*
X94422498Y-64710820D01*
X94386188Y-64830518D01*
X94373928Y-64955000D01*
X94373928Y-65740000D01*
X94268911Y-65740000D01*
X94088271Y-65775932D01*
X93918111Y-65846414D01*
X93764972Y-65948738D01*
X93634738Y-66078972D01*
X93532414Y-66232111D01*
X93461932Y-66402271D01*
X93426000Y-66582911D01*
X93426000Y-66767089D01*
X93461932Y-66947729D01*
X93529146Y-67110000D01*
X92497018Y-67110000D01*
X92456000Y-67105960D01*
X92414982Y-67110000D01*
X92414981Y-67110000D01*
X92292311Y-67122082D01*
X92170971Y-67158890D01*
X92134913Y-67169828D01*
X91989854Y-67247364D01*
X91897482Y-67323172D01*
X91862709Y-67351709D01*
X91836563Y-67383569D01*
X91132578Y-68087555D01*
X91100709Y-68113709D01*
X91002608Y-68233247D01*
X90996364Y-68240855D01*
X90918828Y-68385914D01*
X90884585Y-68498798D01*
X90815475Y-68395368D01*
X90608632Y-68188525D01*
X90426466Y-68066805D01*
X90543355Y-67997178D01*
X90759588Y-67802269D01*
X90933641Y-67568920D01*
X91058825Y-67306099D01*
X91103476Y-67158890D01*
X90982155Y-66929000D01*
X89789000Y-66929000D01*
X89789000Y-66949000D01*
X89535000Y-66949000D01*
X89535000Y-66929000D01*
X88341845Y-66929000D01*
X88220524Y-67158890D01*
X88265175Y-67306099D01*
X88390359Y-67568920D01*
X88564412Y-67802269D01*
X88780645Y-67997178D01*
X88897534Y-68066805D01*
X88715368Y-68188525D01*
X88508525Y-68395368D01*
X88346010Y-68638589D01*
X88234068Y-68908842D01*
X88177000Y-69195740D01*
X88177000Y-69488260D01*
X88234068Y-69775158D01*
X88346010Y-70045411D01*
X88508525Y-70288632D01*
X88715368Y-70495475D01*
X88889760Y-70612000D01*
X88715368Y-70728525D01*
X88508525Y-70935368D01*
X88346010Y-71178589D01*
X88234068Y-71448842D01*
X88177000Y-71735740D01*
X88177000Y-72028260D01*
X88234068Y-72315158D01*
X88346010Y-72585411D01*
X88508525Y-72828632D01*
X88715368Y-73035475D01*
X88889760Y-73152000D01*
X88715368Y-73268525D01*
X88508525Y-73475368D01*
X88346010Y-73718589D01*
X88234068Y-73988842D01*
X88177000Y-74275740D01*
X88177000Y-74568260D01*
X88234068Y-74855158D01*
X88346010Y-75125411D01*
X88508525Y-75368632D01*
X88715368Y-75575475D01*
X88889760Y-75692000D01*
X88715368Y-75808525D01*
X88508525Y-76015368D01*
X88346010Y-76258589D01*
X88234068Y-76528842D01*
X88177000Y-76815740D01*
X88177000Y-77108260D01*
X88234068Y-77395158D01*
X88346010Y-77665411D01*
X88508525Y-77908632D01*
X88707362Y-78107469D01*
X88621160Y-78133618D01*
X88510846Y-78192583D01*
X88414155Y-78271935D01*
X88334803Y-78368626D01*
X88275838Y-78478940D01*
X88239528Y-78598638D01*
X88227268Y-78723120D01*
X88227268Y-80423120D01*
X88239528Y-80547602D01*
X88275838Y-80667300D01*
X88334803Y-80777614D01*
X88414155Y-80874305D01*
X88510846Y-80953657D01*
X88621160Y-81012622D01*
X88701806Y-81037086D01*
X88617752Y-81112851D01*
X88443699Y-81346200D01*
X88318515Y-81609021D01*
X88273864Y-81756230D01*
X88395185Y-81986120D01*
X89588340Y-81986120D01*
X89588340Y-81966120D01*
X89842340Y-81966120D01*
X89842340Y-81986120D01*
X91035495Y-81986120D01*
X91156816Y-81756230D01*
X91112165Y-81609021D01*
X91050711Y-81480000D01*
X94374209Y-81480000D01*
X94377000Y-81629250D01*
X94535750Y-81788000D01*
X95885000Y-81788000D01*
X95885000Y-81768000D01*
X96139000Y-81768000D01*
X96139000Y-81788000D01*
X96159000Y-81788000D01*
X96159000Y-82042000D01*
X96139000Y-82042000D01*
X96139000Y-82841250D01*
X96297750Y-83000000D01*
X97012000Y-83003072D01*
X97136482Y-82990812D01*
X97256180Y-82954502D01*
X97366494Y-82895537D01*
X97463185Y-82816185D01*
X97542537Y-82719494D01*
X97601502Y-82609180D01*
X97637812Y-82489482D01*
X97650072Y-82365000D01*
X97647000Y-82200750D01*
X97488252Y-82042002D01*
X97628135Y-82042002D01*
X98316559Y-82730426D01*
X98342709Y-82762291D01*
X98469854Y-82866636D01*
X98614913Y-82944172D01*
X98772311Y-82991918D01*
X98894981Y-83004000D01*
X98894991Y-83004000D01*
X98935999Y-83008039D01*
X98977007Y-83004000D01*
X105490596Y-83004000D01*
X105580015Y-83041038D01*
X92456450Y-82994501D01*
X92431224Y-82996940D01*
X92407399Y-83004167D01*
X92385443Y-83015903D01*
X92366197Y-83031697D01*
X92350403Y-83050943D01*
X92338667Y-83072899D01*
X92331440Y-83096724D01*
X92329000Y-83121500D01*
X92329000Y-89598500D01*
X92331353Y-89622835D01*
X92338496Y-89646684D01*
X92350154Y-89668683D01*
X92365880Y-89687984D01*
X92385069Y-89703846D01*
X92406983Y-89715660D01*
X92430782Y-89722971D01*
X92455550Y-89725499D01*
X110362550Y-89788999D01*
X110387776Y-89786560D01*
X110411601Y-89779333D01*
X110433557Y-89767597D01*
X110452803Y-89751803D01*
X110468597Y-89732557D01*
X110480333Y-89710601D01*
X110487560Y-89686776D01*
X110490000Y-89662000D01*
X110490000Y-83185000D01*
X110487647Y-83160665D01*
X110480504Y-83136816D01*
X110468846Y-83114817D01*
X110453120Y-83095516D01*
X110433931Y-83079654D01*
X110412017Y-83067840D01*
X110388218Y-83060529D01*
X110363450Y-83058001D01*
X106250247Y-83043415D01*
X106360889Y-82997586D01*
X106514028Y-82895262D01*
X106644262Y-82765028D01*
X106746586Y-82611889D01*
X106817068Y-82441729D01*
X106853000Y-82261089D01*
X106853000Y-82252869D01*
X107203563Y-82603432D01*
X107229709Y-82635291D01*
X107261568Y-82661437D01*
X107261570Y-82661439D01*
X107356854Y-82739636D01*
X107501913Y-82817172D01*
X107659311Y-82864918D01*
X107823000Y-82881040D01*
X107864018Y-82877000D01*
X110671000Y-82877000D01*
X110671000Y-83270981D01*
X110666960Y-83312000D01*
X110683082Y-83475689D01*
X110730828Y-83633087D01*
X110808364Y-83778146D01*
X110912709Y-83905291D01*
X111039854Y-84009636D01*
X111184913Y-84087172D01*
X111342311Y-84134918D01*
X111464981Y-84147000D01*
X111464982Y-84147000D01*
X111506000Y-84151040D01*
X111519819Y-84149679D01*
X111527707Y-84159291D01*
X111654852Y-84263636D01*
X111799911Y-84341172D01*
X111957309Y-84388918D01*
X112079979Y-84401000D01*
X112079981Y-84401000D01*
X112120997Y-84405040D01*
X112162013Y-84401000D01*
X112938133Y-84401000D01*
X113109066Y-84571934D01*
X113135210Y-84603790D01*
X113167065Y-84629933D01*
X113167071Y-84629939D01*
X113167076Y-84629943D01*
X113592000Y-85054868D01*
X113592001Y-88472594D01*
X113527932Y-88627271D01*
X113492000Y-88807911D01*
X113492000Y-88992089D01*
X113527932Y-89172729D01*
X113598414Y-89342889D01*
X113700738Y-89496028D01*
X113830972Y-89626262D01*
X113884857Y-89662267D01*
X113960855Y-89724636D01*
X114105914Y-89802172D01*
X114263312Y-89849918D01*
X114427000Y-89866040D01*
X114590689Y-89849918D01*
X114748087Y-89802172D01*
X114893146Y-89724636D01*
X114969145Y-89662266D01*
X115023028Y-89626262D01*
X115153262Y-89496028D01*
X115255586Y-89342889D01*
X115326068Y-89172729D01*
X115362000Y-88992089D01*
X115362000Y-88807911D01*
X115326068Y-88627271D01*
X115262000Y-88472596D01*
X115262000Y-88170064D01*
X115372418Y-88229084D01*
X115520255Y-88273929D01*
X115674000Y-88289072D01*
X115974000Y-88289072D01*
X116127745Y-88273929D01*
X116275582Y-88229084D01*
X116411829Y-88156258D01*
X116459000Y-88117546D01*
X116506171Y-88156258D01*
X116642418Y-88229084D01*
X116790255Y-88273929D01*
X116944000Y-88289072D01*
X117244000Y-88289072D01*
X117397745Y-88273929D01*
X117529001Y-88234114D01*
X117529001Y-88350972D01*
X117529000Y-88350982D01*
X117529000Y-88472596D01*
X117464932Y-88627271D01*
X117429000Y-88807911D01*
X117429000Y-88992089D01*
X117464932Y-89172729D01*
X117535414Y-89342889D01*
X117637738Y-89496028D01*
X117767972Y-89626262D01*
X117921111Y-89728586D01*
X118091271Y-89799068D01*
X118271911Y-89835000D01*
X118456089Y-89835000D01*
X118636729Y-89799068D01*
X118806889Y-89728586D01*
X118960028Y-89626262D01*
X118999000Y-89587290D01*
X119037972Y-89626262D01*
X119191111Y-89728586D01*
X119361271Y-89799068D01*
X119541911Y-89835000D01*
X119726089Y-89835000D01*
X119906729Y-89799068D01*
X120076889Y-89728586D01*
X120230028Y-89626262D01*
X120360262Y-89496028D01*
X120462586Y-89342889D01*
X120533068Y-89172729D01*
X120569000Y-88992089D01*
X120569000Y-88807911D01*
X120533068Y-88627271D01*
X120469000Y-88472596D01*
X120469000Y-88234114D01*
X120600255Y-88273929D01*
X120754000Y-88289072D01*
X121054000Y-88289072D01*
X121207745Y-88273929D01*
X121355582Y-88229084D01*
X121491829Y-88156258D01*
X121539000Y-88117546D01*
X121586171Y-88156258D01*
X121722418Y-88229084D01*
X121870255Y-88273929D01*
X122024000Y-88289072D01*
X122324000Y-88289072D01*
X122477745Y-88273929D01*
X122625582Y-88229084D01*
X122761829Y-88156258D01*
X122809000Y-88117546D01*
X122856171Y-88156258D01*
X122992418Y-88229084D01*
X123140255Y-88273929D01*
X123294000Y-88289072D01*
X123594000Y-88289072D01*
X123747745Y-88273929D01*
X123895582Y-88229084D01*
X124031829Y-88156258D01*
X124079000Y-88117546D01*
X124126171Y-88156258D01*
X124262418Y-88229084D01*
X124410255Y-88273929D01*
X124564000Y-88289072D01*
X124864000Y-88289072D01*
X125017745Y-88273929D01*
X125165582Y-88229084D01*
X125301829Y-88156258D01*
X125421251Y-88058251D01*
X125519258Y-87938829D01*
X125592084Y-87802582D01*
X125636929Y-87654745D01*
X125652072Y-87501000D01*
X125652072Y-86848874D01*
X126928201Y-88125003D01*
X126951999Y-88154001D01*
X127067724Y-88248974D01*
X127199753Y-88319546D01*
X127343014Y-88363003D01*
X127454667Y-88374000D01*
X127454676Y-88374000D01*
X127491999Y-88377676D01*
X127529322Y-88374000D01*
X127950680Y-88374000D01*
X127974463Y-88418494D01*
X128053815Y-88515185D01*
X128150506Y-88594537D01*
X128260820Y-88653502D01*
X128380518Y-88689812D01*
X128505000Y-88702072D01*
X129305000Y-88702072D01*
X129429482Y-88689812D01*
X129549180Y-88653502D01*
X129659494Y-88594537D01*
X129756185Y-88515185D01*
X129835537Y-88418494D01*
X129894502Y-88308180D01*
X129930812Y-88188482D01*
X129943072Y-88064000D01*
X129943072Y-87449000D01*
X130383984Y-87449000D01*
X130425002Y-87453040D01*
X130466020Y-87449000D01*
X130466021Y-87449000D01*
X130588691Y-87436918D01*
X130746089Y-87389172D01*
X130891148Y-87311636D01*
X131018293Y-87207291D01*
X131044448Y-87175421D01*
X131674001Y-86545869D01*
X131674001Y-89631801D01*
X131653674Y-89839113D01*
X131602240Y-90009472D01*
X131518689Y-90166607D01*
X131406213Y-90304515D01*
X131269094Y-90417950D01*
X131112554Y-90502591D01*
X130942546Y-90555217D01*
X130737195Y-90576800D01*
X90926167Y-90581572D01*
X90986981Y-90500040D01*
X91112165Y-90237219D01*
X91156816Y-90090010D01*
X91035495Y-89860120D01*
X89842340Y-89860120D01*
X89842340Y-89880120D01*
X89588340Y-89880120D01*
X89588340Y-89860120D01*
X88395185Y-89860120D01*
X88273864Y-90090010D01*
X88318515Y-90237219D01*
X88443699Y-90500040D01*
X88504730Y-90581862D01*
X88297239Y-90581887D01*
X88171797Y-90569588D01*
X88082145Y-90542520D01*
X87999456Y-90498553D01*
X87926886Y-90439367D01*
X87867190Y-90367207D01*
X87822646Y-90284825D01*
X87794955Y-90195367D01*
X87782000Y-90072113D01*
X87782000Y-84506860D01*
X88230340Y-84506860D01*
X88230340Y-84799380D01*
X88287408Y-85086278D01*
X88399350Y-85356531D01*
X88561865Y-85599752D01*
X88768708Y-85806595D01*
X88943100Y-85923120D01*
X88768708Y-86039645D01*
X88561865Y-86246488D01*
X88399350Y-86489709D01*
X88287408Y-86759962D01*
X88230340Y-87046860D01*
X88230340Y-87339380D01*
X88287408Y-87626278D01*
X88399350Y-87896531D01*
X88561865Y-88139752D01*
X88768708Y-88346595D01*
X88950874Y-88468315D01*
X88833985Y-88537942D01*
X88617752Y-88732851D01*
X88443699Y-88966200D01*
X88318515Y-89229021D01*
X88273864Y-89376230D01*
X88395185Y-89606120D01*
X89588340Y-89606120D01*
X89588340Y-89586120D01*
X89842340Y-89586120D01*
X89842340Y-89606120D01*
X91035495Y-89606120D01*
X91156816Y-89376230D01*
X91112165Y-89229021D01*
X90986981Y-88966200D01*
X90812928Y-88732851D01*
X90596695Y-88537942D01*
X90479806Y-88468315D01*
X90661972Y-88346595D01*
X90868815Y-88139752D01*
X91031330Y-87896531D01*
X91143272Y-87626278D01*
X91200340Y-87339380D01*
X91200340Y-87046860D01*
X91143272Y-86759962D01*
X91031330Y-86489709D01*
X90868815Y-86246488D01*
X90661972Y-86039645D01*
X90487580Y-85923120D01*
X90661972Y-85806595D01*
X90868815Y-85599752D01*
X91031330Y-85356531D01*
X91143272Y-85086278D01*
X91200340Y-84799380D01*
X91200340Y-84506860D01*
X91143272Y-84219962D01*
X91031330Y-83949709D01*
X90868815Y-83706488D01*
X90661972Y-83499645D01*
X90479806Y-83377925D01*
X90596695Y-83308298D01*
X90812928Y-83113389D01*
X90986981Y-82880040D01*
X91112165Y-82617219D01*
X91156816Y-82470010D01*
X91101399Y-82365000D01*
X94373928Y-82365000D01*
X94386188Y-82489482D01*
X94422498Y-82609180D01*
X94481463Y-82719494D01*
X94560815Y-82816185D01*
X94657506Y-82895537D01*
X94767820Y-82954502D01*
X94887518Y-82990812D01*
X95012000Y-83003072D01*
X95726250Y-83000000D01*
X95885000Y-82841250D01*
X95885000Y-82042000D01*
X94535750Y-82042000D01*
X94377000Y-82200750D01*
X94373928Y-82365000D01*
X91101399Y-82365000D01*
X91035495Y-82240120D01*
X89842340Y-82240120D01*
X89842340Y-82260120D01*
X89588340Y-82260120D01*
X89588340Y-82240120D01*
X88395185Y-82240120D01*
X88273864Y-82470010D01*
X88318515Y-82617219D01*
X88443699Y-82880040D01*
X88617752Y-83113389D01*
X88833985Y-83308298D01*
X88950874Y-83377925D01*
X88768708Y-83499645D01*
X88561865Y-83706488D01*
X88399350Y-83949709D01*
X88287408Y-84219962D01*
X88230340Y-84506860D01*
X87782000Y-84506860D01*
X87782000Y-63412000D01*
X88173928Y-63412000D01*
X88173928Y-65112000D01*
X88186188Y-65236482D01*
X88222498Y-65356180D01*
X88281463Y-65466494D01*
X88360815Y-65563185D01*
X88457506Y-65642537D01*
X88567820Y-65701502D01*
X88648466Y-65725966D01*
X88564412Y-65801731D01*
X88390359Y-66035080D01*
X88265175Y-66297901D01*
X88220524Y-66445110D01*
X88341845Y-66675000D01*
X89535000Y-66675000D01*
X89535000Y-66655000D01*
X89789000Y-66655000D01*
X89789000Y-66675000D01*
X90982155Y-66675000D01*
X91103476Y-66445110D01*
X91058825Y-66297901D01*
X90933641Y-66035080D01*
X90759588Y-65801731D01*
X90675534Y-65725966D01*
X90756180Y-65701502D01*
X90866494Y-65642537D01*
X90963185Y-65563185D01*
X91042537Y-65466494D01*
X91101502Y-65356180D01*
X91137812Y-65236482D01*
X91150072Y-65112000D01*
X91150072Y-63412000D01*
X91137812Y-63287518D01*
X91101502Y-63167820D01*
X91042537Y-63057506D01*
X90963185Y-62960815D01*
X90866494Y-62881463D01*
X90756180Y-62822498D01*
X90636482Y-62786188D01*
X90512000Y-62773928D01*
X88812000Y-62773928D01*
X88687518Y-62786188D01*
X88567820Y-62822498D01*
X88457506Y-62881463D01*
X88360815Y-62960815D01*
X88281463Y-63057506D01*
X88222498Y-63167820D01*
X88186188Y-63287518D01*
X88173928Y-63412000D01*
X87782000Y-63412000D01*
X87782000Y-58960277D01*
X87794303Y-58834798D01*
X87821370Y-58745151D01*
X87865335Y-58662463D01*
X87924522Y-58589894D01*
X87996684Y-58530196D01*
X88079054Y-58485659D01*
X88168515Y-58457966D01*
X88291878Y-58445000D01*
X89209104Y-58445000D01*
X89122815Y-58515815D01*
G37*
X89122815Y-58515815D02*
X89043463Y-58612506D01*
X88984498Y-58722820D01*
X88948188Y-58842518D01*
X88935928Y-58967000D01*
X88935928Y-60667000D01*
X88948188Y-60791482D01*
X88984498Y-60911180D01*
X89043463Y-61021494D01*
X89122815Y-61118185D01*
X89219506Y-61197537D01*
X89329820Y-61256502D01*
X89449518Y-61292812D01*
X89574000Y-61305072D01*
X91274000Y-61305072D01*
X91398482Y-61292812D01*
X91518180Y-61256502D01*
X91628494Y-61197537D01*
X91725185Y-61118185D01*
X91804537Y-61021494D01*
X91863502Y-60911180D01*
X91887966Y-60830534D01*
X91963731Y-60914588D01*
X92197080Y-61088641D01*
X92459901Y-61213825D01*
X92607110Y-61258476D01*
X92837000Y-61137155D01*
X92837000Y-59944000D01*
X92817000Y-59944000D01*
X92817000Y-59690000D01*
X92837000Y-59690000D01*
X92837000Y-59670000D01*
X93091000Y-59670000D01*
X93091000Y-59690000D01*
X93111000Y-59690000D01*
X93111000Y-59944000D01*
X93091000Y-59944000D01*
X93091000Y-61137155D01*
X93320890Y-61258476D01*
X93468099Y-61213825D01*
X93730920Y-61088641D01*
X93964269Y-60914588D01*
X94159178Y-60698355D01*
X94228805Y-60581466D01*
X94350525Y-60763632D01*
X94557368Y-60970475D01*
X94800589Y-61132990D01*
X95070842Y-61244932D01*
X95357740Y-61302000D01*
X95650260Y-61302000D01*
X95781940Y-61275807D01*
X97424559Y-62918427D01*
X97450709Y-62950291D01*
X97577854Y-63054636D01*
X97722913Y-63132172D01*
X97811843Y-63159149D01*
X97757498Y-63260820D01*
X97721188Y-63380518D01*
X97708928Y-63505000D01*
X97712000Y-64219250D01*
X97870750Y-64378000D01*
X98670000Y-64378000D01*
X98670000Y-64358000D01*
X98924000Y-64358000D01*
X98924000Y-64378000D01*
X98944000Y-64378000D01*
X98944000Y-64632000D01*
X98924000Y-64632000D01*
X98924000Y-65981250D01*
X99082750Y-66140000D01*
X99247000Y-66143072D01*
X99371482Y-66130812D01*
X99432000Y-66112454D01*
X99492518Y-66130812D01*
X99617000Y-66143072D01*
X100517000Y-66143072D01*
X100641482Y-66130812D01*
X100702000Y-66112454D01*
X100762518Y-66130812D01*
X100887000Y-66143072D01*
X101787000Y-66143072D01*
X101911482Y-66130812D01*
X101972000Y-66112454D01*
X102032518Y-66130812D01*
X102157000Y-66143072D01*
X103057000Y-66143072D01*
X103181482Y-66130812D01*
X103242000Y-66112454D01*
X103302518Y-66130812D01*
X103427000Y-66143072D01*
X104327000Y-66143072D01*
X104451482Y-66130812D01*
X104512000Y-66112454D01*
X104572518Y-66130812D01*
X104697000Y-66143072D01*
X104933643Y-66143072D01*
X104888828Y-66226914D01*
X104841082Y-66384312D01*
X104824960Y-66548000D01*
X104829000Y-66589019D01*
X104829001Y-68875019D01*
X104841083Y-68997689D01*
X104854000Y-69040271D01*
X104854000Y-69632412D01*
X104850081Y-69672200D01*
X104854000Y-69711988D01*
X104854000Y-69711991D01*
X104865721Y-69830988D01*
X104900004Y-69944002D01*
X104912038Y-69983673D01*
X104987251Y-70124389D01*
X105042852Y-70192139D01*
X105088473Y-70247728D01*
X105119383Y-70273095D01*
X105678052Y-70831764D01*
X103799930Y-70834370D01*
X103641180Y-70993120D01*
X103641180Y-73842370D01*
X103661180Y-73842370D01*
X103661180Y-74096370D01*
X103641180Y-74096370D01*
X103641180Y-76945620D01*
X103799930Y-77104370D01*
X106014180Y-77107442D01*
X106138662Y-77095182D01*
X106225601Y-77068809D01*
X106225601Y-79055802D01*
X106221681Y-79095600D01*
X106237321Y-79254387D01*
X106275879Y-79381494D01*
X106239087Y-79361828D01*
X106081689Y-79314082D01*
X105959019Y-79302000D01*
X105959018Y-79302000D01*
X105918000Y-79297960D01*
X105876982Y-79302000D01*
X99659868Y-79302000D01*
X99171445Y-78813578D01*
X99145291Y-78781709D01*
X99018146Y-78677364D01*
X98873087Y-78599828D01*
X98715689Y-78552082D01*
X98593019Y-78540000D01*
X98593018Y-78540000D01*
X98552000Y-78535960D01*
X98510982Y-78540000D01*
X97648595Y-78540000D01*
X97650072Y-78525000D01*
X97650072Y-77625000D01*
X97637812Y-77500518D01*
X97624004Y-77455000D01*
X97637812Y-77409482D01*
X97650072Y-77285000D01*
X97650072Y-76469370D01*
X100376108Y-76469370D01*
X100388368Y-76593852D01*
X100424678Y-76713550D01*
X100483643Y-76823864D01*
X100562995Y-76920555D01*
X100659686Y-76999907D01*
X100770000Y-77058872D01*
X100889698Y-77095182D01*
X101014180Y-77107442D01*
X103228430Y-77104370D01*
X103387180Y-76945620D01*
X103387180Y-74096370D01*
X100537930Y-74096370D01*
X100379180Y-74255120D01*
X100376108Y-76469370D01*
X97650072Y-76469370D01*
X97650072Y-76385000D01*
X97637812Y-76260518D01*
X97619454Y-76200000D01*
X97637812Y-76139482D01*
X97650072Y-76015000D01*
X97650072Y-75115000D01*
X97637812Y-74990518D01*
X97619454Y-74930000D01*
X97637812Y-74869482D01*
X97650072Y-74745000D01*
X97650072Y-73845000D01*
X97637812Y-73720518D01*
X97619454Y-73660000D01*
X97637812Y-73599482D01*
X97650072Y-73475000D01*
X97650072Y-72575000D01*
X97637812Y-72450518D01*
X97619454Y-72389999D01*
X97637812Y-72329482D01*
X97650072Y-72205000D01*
X97650072Y-71469370D01*
X100376108Y-71469370D01*
X100379180Y-73683620D01*
X100537930Y-73842370D01*
X103387180Y-73842370D01*
X103387180Y-70993120D01*
X103228430Y-70834370D01*
X101014180Y-70831298D01*
X100889698Y-70843558D01*
X100770000Y-70879868D01*
X100659686Y-70938833D01*
X100562995Y-71018185D01*
X100483643Y-71114876D01*
X100424678Y-71225190D01*
X100388368Y-71344888D01*
X100376108Y-71469370D01*
X97650072Y-71469370D01*
X97650072Y-71305000D01*
X97637812Y-71180518D01*
X97619454Y-71120000D01*
X97637812Y-71059482D01*
X97650072Y-70935000D01*
X97650072Y-70050000D01*
X97743596Y-70050000D01*
X97898271Y-70114068D01*
X98078911Y-70150000D01*
X98263089Y-70150000D01*
X98443729Y-70114068D01*
X98613889Y-70043586D01*
X98767028Y-69941262D01*
X98897262Y-69811028D01*
X98999586Y-69657889D01*
X99070068Y-69487729D01*
X99106000Y-69307089D01*
X99106000Y-69122911D01*
X99070068Y-68942271D01*
X98999586Y-68772111D01*
X98897262Y-68618972D01*
X98767028Y-68488738D01*
X98613889Y-68386414D01*
X98443729Y-68315932D01*
X98263089Y-68280000D01*
X98078911Y-68280000D01*
X97898271Y-68315932D01*
X97743596Y-68380000D01*
X97650072Y-68380000D01*
X97650072Y-67495000D01*
X97637812Y-67370518D01*
X97619454Y-67310000D01*
X97637812Y-67249482D01*
X97650072Y-67125000D01*
X97650072Y-66225000D01*
X97637812Y-66100518D01*
X97619454Y-66040000D01*
X97637812Y-65979482D01*
X97650072Y-65855000D01*
X97650072Y-65505000D01*
X97708928Y-65505000D01*
X97721188Y-65629482D01*
X97757498Y-65749180D01*
X97816463Y-65859494D01*
X97895815Y-65956185D01*
X97992506Y-66035537D01*
X98102820Y-66094502D01*
X98222518Y-66130812D01*
X98347000Y-66143072D01*
X98511250Y-66140000D01*
X98670000Y-65981250D01*
X98670000Y-64632000D01*
X97870750Y-64632000D01*
X97712000Y-64790750D01*
X97708928Y-65505000D01*
X97650072Y-65505000D01*
X97650072Y-64955000D01*
X97637812Y-64830518D01*
X97601502Y-64710820D01*
X97542537Y-64600506D01*
X97463185Y-64503815D01*
X97366494Y-64424463D01*
X97256180Y-64365498D01*
X97136482Y-64329188D01*
X97012000Y-64316928D01*
X95012000Y-64316928D01*
X94887518Y-64329188D01*
X94767820Y-64365498D01*
X94657506Y-64424463D01*
X94560815Y-64503815D01*
X94481463Y-64600506D01*
X94422498Y-64710820D01*
X94386188Y-64830518D01*
X94373928Y-64955000D01*
X94373928Y-65740000D01*
X94268911Y-65740000D01*
X94088271Y-65775932D01*
X93918111Y-65846414D01*
X93764972Y-65948738D01*
X93634738Y-66078972D01*
X93532414Y-66232111D01*
X93461932Y-66402271D01*
X93426000Y-66582911D01*
X93426000Y-66767089D01*
X93461932Y-66947729D01*
X93529146Y-67110000D01*
X92497018Y-67110000D01*
X92456000Y-67105960D01*
X92414982Y-67110000D01*
X92414981Y-67110000D01*
X92292311Y-67122082D01*
X92170971Y-67158890D01*
X92134913Y-67169828D01*
X91989854Y-67247364D01*
X91897482Y-67323172D01*
X91862709Y-67351709D01*
X91836563Y-67383569D01*
X91132578Y-68087555D01*
X91100709Y-68113709D01*
X91002608Y-68233247D01*
X90996364Y-68240855D01*
X90918828Y-68385914D01*
X90884585Y-68498798D01*
X90815475Y-68395368D01*
X90608632Y-68188525D01*
X90426466Y-68066805D01*
X90543355Y-67997178D01*
X90759588Y-67802269D01*
X90933641Y-67568920D01*
X91058825Y-67306099D01*
X91103476Y-67158890D01*
X90982155Y-66929000D01*
X89789000Y-66929000D01*
X89789000Y-66949000D01*
X89535000Y-66949000D01*
X89535000Y-66929000D01*
X88341845Y-66929000D01*
X88220524Y-67158890D01*
X88265175Y-67306099D01*
X88390359Y-67568920D01*
X88564412Y-67802269D01*
X88780645Y-67997178D01*
X88897534Y-68066805D01*
X88715368Y-68188525D01*
X88508525Y-68395368D01*
X88346010Y-68638589D01*
X88234068Y-68908842D01*
X88177000Y-69195740D01*
X88177000Y-69488260D01*
X88234068Y-69775158D01*
X88346010Y-70045411D01*
X88508525Y-70288632D01*
X88715368Y-70495475D01*
X88889760Y-70612000D01*
X88715368Y-70728525D01*
X88508525Y-70935368D01*
X88346010Y-71178589D01*
X88234068Y-71448842D01*
X88177000Y-71735740D01*
X88177000Y-72028260D01*
X88234068Y-72315158D01*
X88346010Y-72585411D01*
X88508525Y-72828632D01*
X88715368Y-73035475D01*
X88889760Y-73152000D01*
X88715368Y-73268525D01*
X88508525Y-73475368D01*
X88346010Y-73718589D01*
X88234068Y-73988842D01*
X88177000Y-74275740D01*
X88177000Y-74568260D01*
X88234068Y-74855158D01*
X88346010Y-75125411D01*
X88508525Y-75368632D01*
X88715368Y-75575475D01*
X88889760Y-75692000D01*
X88715368Y-75808525D01*
X88508525Y-76015368D01*
X88346010Y-76258589D01*
X88234068Y-76528842D01*
X88177000Y-76815740D01*
X88177000Y-77108260D01*
X88234068Y-77395158D01*
X88346010Y-77665411D01*
X88508525Y-77908632D01*
X88707362Y-78107469D01*
X88621160Y-78133618D01*
X88510846Y-78192583D01*
X88414155Y-78271935D01*
X88334803Y-78368626D01*
X88275838Y-78478940D01*
X88239528Y-78598638D01*
X88227268Y-78723120D01*
X88227268Y-80423120D01*
X88239528Y-80547602D01*
X88275838Y-80667300D01*
X88334803Y-80777614D01*
X88414155Y-80874305D01*
X88510846Y-80953657D01*
X88621160Y-81012622D01*
X88701806Y-81037086D01*
X88617752Y-81112851D01*
X88443699Y-81346200D01*
X88318515Y-81609021D01*
X88273864Y-81756230D01*
X88395185Y-81986120D01*
X89588340Y-81986120D01*
X89588340Y-81966120D01*
X89842340Y-81966120D01*
X89842340Y-81986120D01*
X91035495Y-81986120D01*
X91156816Y-81756230D01*
X91112165Y-81609021D01*
X91050711Y-81480000D01*
X94374209Y-81480000D01*
X94377000Y-81629250D01*
X94535750Y-81788000D01*
X95885000Y-81788000D01*
X95885000Y-81768000D01*
X96139000Y-81768000D01*
X96139000Y-81788000D01*
X96159000Y-81788000D01*
X96159000Y-82042000D01*
X96139000Y-82042000D01*
X96139000Y-82841250D01*
X96297750Y-83000000D01*
X97012000Y-83003072D01*
X97136482Y-82990812D01*
X97256180Y-82954502D01*
X97366494Y-82895537D01*
X97463185Y-82816185D01*
X97542537Y-82719494D01*
X97601502Y-82609180D01*
X97637812Y-82489482D01*
X97650072Y-82365000D01*
X97647000Y-82200750D01*
X97488252Y-82042002D01*
X97628135Y-82042002D01*
X98316559Y-82730426D01*
X98342709Y-82762291D01*
X98469854Y-82866636D01*
X98614913Y-82944172D01*
X98772311Y-82991918D01*
X98894981Y-83004000D01*
X98894991Y-83004000D01*
X98935999Y-83008039D01*
X98977007Y-83004000D01*
X105490596Y-83004000D01*
X105580015Y-83041038D01*
X92456450Y-82994501D01*
X92431224Y-82996940D01*
X92407399Y-83004167D01*
X92385443Y-83015903D01*
X92366197Y-83031697D01*
X92350403Y-83050943D01*
X92338667Y-83072899D01*
X92331440Y-83096724D01*
X92329000Y-83121500D01*
X92329000Y-89598500D01*
X92331353Y-89622835D01*
X92338496Y-89646684D01*
X92350154Y-89668683D01*
X92365880Y-89687984D01*
X92385069Y-89703846D01*
X92406983Y-89715660D01*
X92430782Y-89722971D01*
X92455550Y-89725499D01*
X110362550Y-89788999D01*
X110387776Y-89786560D01*
X110411601Y-89779333D01*
X110433557Y-89767597D01*
X110452803Y-89751803D01*
X110468597Y-89732557D01*
X110480333Y-89710601D01*
X110487560Y-89686776D01*
X110490000Y-89662000D01*
X110490000Y-83185000D01*
X110487647Y-83160665D01*
X110480504Y-83136816D01*
X110468846Y-83114817D01*
X110453120Y-83095516D01*
X110433931Y-83079654D01*
X110412017Y-83067840D01*
X110388218Y-83060529D01*
X110363450Y-83058001D01*
X106250247Y-83043415D01*
X106360889Y-82997586D01*
X106514028Y-82895262D01*
X106644262Y-82765028D01*
X106746586Y-82611889D01*
X106817068Y-82441729D01*
X106853000Y-82261089D01*
X106853000Y-82252869D01*
X107203563Y-82603432D01*
X107229709Y-82635291D01*
X107261568Y-82661437D01*
X107261570Y-82661439D01*
X107356854Y-82739636D01*
X107501913Y-82817172D01*
X107659311Y-82864918D01*
X107823000Y-82881040D01*
X107864018Y-82877000D01*
X110671000Y-82877000D01*
X110671000Y-83270981D01*
X110666960Y-83312000D01*
X110683082Y-83475689D01*
X110730828Y-83633087D01*
X110808364Y-83778146D01*
X110912709Y-83905291D01*
X111039854Y-84009636D01*
X111184913Y-84087172D01*
X111342311Y-84134918D01*
X111464981Y-84147000D01*
X111464982Y-84147000D01*
X111506000Y-84151040D01*
X111519819Y-84149679D01*
X111527707Y-84159291D01*
X111654852Y-84263636D01*
X111799911Y-84341172D01*
X111957309Y-84388918D01*
X112079979Y-84401000D01*
X112079981Y-84401000D01*
X112120997Y-84405040D01*
X112162013Y-84401000D01*
X112938133Y-84401000D01*
X113109066Y-84571934D01*
X113135210Y-84603790D01*
X113167065Y-84629933D01*
X113167071Y-84629939D01*
X113167076Y-84629943D01*
X113592000Y-85054868D01*
X113592001Y-88472594D01*
X113527932Y-88627271D01*
X113492000Y-88807911D01*
X113492000Y-88992089D01*
X113527932Y-89172729D01*
X113598414Y-89342889D01*
X113700738Y-89496028D01*
X113830972Y-89626262D01*
X113884857Y-89662267D01*
X113960855Y-89724636D01*
X114105914Y-89802172D01*
X114263312Y-89849918D01*
X114427000Y-89866040D01*
X114590689Y-89849918D01*
X114748087Y-89802172D01*
X114893146Y-89724636D01*
X114969145Y-89662266D01*
X115023028Y-89626262D01*
X115153262Y-89496028D01*
X115255586Y-89342889D01*
X115326068Y-89172729D01*
X115362000Y-88992089D01*
X115362000Y-88807911D01*
X115326068Y-88627271D01*
X115262000Y-88472596D01*
X115262000Y-88170064D01*
X115372418Y-88229084D01*
X115520255Y-88273929D01*
X115674000Y-88289072D01*
X115974000Y-88289072D01*
X116127745Y-88273929D01*
X116275582Y-88229084D01*
X116411829Y-88156258D01*
X116459000Y-88117546D01*
X116506171Y-88156258D01*
X116642418Y-88229084D01*
X116790255Y-88273929D01*
X116944000Y-88289072D01*
X117244000Y-88289072D01*
X117397745Y-88273929D01*
X117529001Y-88234114D01*
X117529001Y-88350972D01*
X117529000Y-88350982D01*
X117529000Y-88472596D01*
X117464932Y-88627271D01*
X117429000Y-88807911D01*
X117429000Y-88992089D01*
X117464932Y-89172729D01*
X117535414Y-89342889D01*
X117637738Y-89496028D01*
X117767972Y-89626262D01*
X117921111Y-89728586D01*
X118091271Y-89799068D01*
X118271911Y-89835000D01*
X118456089Y-89835000D01*
X118636729Y-89799068D01*
X118806889Y-89728586D01*
X118960028Y-89626262D01*
X118999000Y-89587290D01*
X119037972Y-89626262D01*
X119191111Y-89728586D01*
X119361271Y-89799068D01*
X119541911Y-89835000D01*
X119726089Y-89835000D01*
X119906729Y-89799068D01*
X120076889Y-89728586D01*
X120230028Y-89626262D01*
X120360262Y-89496028D01*
X120462586Y-89342889D01*
X120533068Y-89172729D01*
X120569000Y-88992089D01*
X120569000Y-88807911D01*
X120533068Y-88627271D01*
X120469000Y-88472596D01*
X120469000Y-88234114D01*
X120600255Y-88273929D01*
X120754000Y-88289072D01*
X121054000Y-88289072D01*
X121207745Y-88273929D01*
X121355582Y-88229084D01*
X121491829Y-88156258D01*
X121539000Y-88117546D01*
X121586171Y-88156258D01*
X121722418Y-88229084D01*
X121870255Y-88273929D01*
X122024000Y-88289072D01*
X122324000Y-88289072D01*
X122477745Y-88273929D01*
X122625582Y-88229084D01*
X122761829Y-88156258D01*
X122809000Y-88117546D01*
X122856171Y-88156258D01*
X122992418Y-88229084D01*
X123140255Y-88273929D01*
X123294000Y-88289072D01*
X123594000Y-88289072D01*
X123747745Y-88273929D01*
X123895582Y-88229084D01*
X124031829Y-88156258D01*
X124079000Y-88117546D01*
X124126171Y-88156258D01*
X124262418Y-88229084D01*
X124410255Y-88273929D01*
X124564000Y-88289072D01*
X124864000Y-88289072D01*
X125017745Y-88273929D01*
X125165582Y-88229084D01*
X125301829Y-88156258D01*
X125421251Y-88058251D01*
X125519258Y-87938829D01*
X125592084Y-87802582D01*
X125636929Y-87654745D01*
X125652072Y-87501000D01*
X125652072Y-86848874D01*
X126928201Y-88125003D01*
X126951999Y-88154001D01*
X127067724Y-88248974D01*
X127199753Y-88319546D01*
X127343014Y-88363003D01*
X127454667Y-88374000D01*
X127454676Y-88374000D01*
X127491999Y-88377676D01*
X127529322Y-88374000D01*
X127950680Y-88374000D01*
X127974463Y-88418494D01*
X128053815Y-88515185D01*
X128150506Y-88594537D01*
X128260820Y-88653502D01*
X128380518Y-88689812D01*
X128505000Y-88702072D01*
X129305000Y-88702072D01*
X129429482Y-88689812D01*
X129549180Y-88653502D01*
X129659494Y-88594537D01*
X129756185Y-88515185D01*
X129835537Y-88418494D01*
X129894502Y-88308180D01*
X129930812Y-88188482D01*
X129943072Y-88064000D01*
X129943072Y-87449000D01*
X130383984Y-87449000D01*
X130425002Y-87453040D01*
X130466020Y-87449000D01*
X130466021Y-87449000D01*
X130588691Y-87436918D01*
X130746089Y-87389172D01*
X130891148Y-87311636D01*
X131018293Y-87207291D01*
X131044448Y-87175421D01*
X131674001Y-86545869D01*
X131674001Y-89631801D01*
X131653674Y-89839113D01*
X131602240Y-90009472D01*
X131518689Y-90166607D01*
X131406213Y-90304515D01*
X131269094Y-90417950D01*
X131112554Y-90502591D01*
X130942546Y-90555217D01*
X130737195Y-90576800D01*
X90926167Y-90581572D01*
X90986981Y-90500040D01*
X91112165Y-90237219D01*
X91156816Y-90090010D01*
X91035495Y-89860120D01*
X89842340Y-89860120D01*
X89842340Y-89880120D01*
X89588340Y-89880120D01*
X89588340Y-89860120D01*
X88395185Y-89860120D01*
X88273864Y-90090010D01*
X88318515Y-90237219D01*
X88443699Y-90500040D01*
X88504730Y-90581862D01*
X88297239Y-90581887D01*
X88171797Y-90569588D01*
X88082145Y-90542520D01*
X87999456Y-90498553D01*
X87926886Y-90439367D01*
X87867190Y-90367207D01*
X87822646Y-90284825D01*
X87794955Y-90195367D01*
X87782000Y-90072113D01*
X87782000Y-84506860D01*
X88230340Y-84506860D01*
X88230340Y-84799380D01*
X88287408Y-85086278D01*
X88399350Y-85356531D01*
X88561865Y-85599752D01*
X88768708Y-85806595D01*
X88943100Y-85923120D01*
X88768708Y-86039645D01*
X88561865Y-86246488D01*
X88399350Y-86489709D01*
X88287408Y-86759962D01*
X88230340Y-87046860D01*
X88230340Y-87339380D01*
X88287408Y-87626278D01*
X88399350Y-87896531D01*
X88561865Y-88139752D01*
X88768708Y-88346595D01*
X88950874Y-88468315D01*
X88833985Y-88537942D01*
X88617752Y-88732851D01*
X88443699Y-88966200D01*
X88318515Y-89229021D01*
X88273864Y-89376230D01*
X88395185Y-89606120D01*
X89588340Y-89606120D01*
X89588340Y-89586120D01*
X89842340Y-89586120D01*
X89842340Y-89606120D01*
X91035495Y-89606120D01*
X91156816Y-89376230D01*
X91112165Y-89229021D01*
X90986981Y-88966200D01*
X90812928Y-88732851D01*
X90596695Y-88537942D01*
X90479806Y-88468315D01*
X90661972Y-88346595D01*
X90868815Y-88139752D01*
X91031330Y-87896531D01*
X91143272Y-87626278D01*
X91200340Y-87339380D01*
X91200340Y-87046860D01*
X91143272Y-86759962D01*
X91031330Y-86489709D01*
X90868815Y-86246488D01*
X90661972Y-86039645D01*
X90487580Y-85923120D01*
X90661972Y-85806595D01*
X90868815Y-85599752D01*
X91031330Y-85356531D01*
X91143272Y-85086278D01*
X91200340Y-84799380D01*
X91200340Y-84506860D01*
X91143272Y-84219962D01*
X91031330Y-83949709D01*
X90868815Y-83706488D01*
X90661972Y-83499645D01*
X90479806Y-83377925D01*
X90596695Y-83308298D01*
X90812928Y-83113389D01*
X90986981Y-82880040D01*
X91112165Y-82617219D01*
X91156816Y-82470010D01*
X91101399Y-82365000D01*
X94373928Y-82365000D01*
X94386188Y-82489482D01*
X94422498Y-82609180D01*
X94481463Y-82719494D01*
X94560815Y-82816185D01*
X94657506Y-82895537D01*
X94767820Y-82954502D01*
X94887518Y-82990812D01*
X95012000Y-83003072D01*
X95726250Y-83000000D01*
X95885000Y-82841250D01*
X95885000Y-82042000D01*
X94535750Y-82042000D01*
X94377000Y-82200750D01*
X94373928Y-82365000D01*
X91101399Y-82365000D01*
X91035495Y-82240120D01*
X89842340Y-82240120D01*
X89842340Y-82260120D01*
X89588340Y-82260120D01*
X89588340Y-82240120D01*
X88395185Y-82240120D01*
X88273864Y-82470010D01*
X88318515Y-82617219D01*
X88443699Y-82880040D01*
X88617752Y-83113389D01*
X88833985Y-83308298D01*
X88950874Y-83377925D01*
X88768708Y-83499645D01*
X88561865Y-83706488D01*
X88399350Y-83949709D01*
X88287408Y-84219962D01*
X88230340Y-84506860D01*
X87782000Y-84506860D01*
X87782000Y-63412000D01*
X88173928Y-63412000D01*
X88173928Y-65112000D01*
X88186188Y-65236482D01*
X88222498Y-65356180D01*
X88281463Y-65466494D01*
X88360815Y-65563185D01*
X88457506Y-65642537D01*
X88567820Y-65701502D01*
X88648466Y-65725966D01*
X88564412Y-65801731D01*
X88390359Y-66035080D01*
X88265175Y-66297901D01*
X88220524Y-66445110D01*
X88341845Y-66675000D01*
X89535000Y-66675000D01*
X89535000Y-66655000D01*
X89789000Y-66655000D01*
X89789000Y-66675000D01*
X90982155Y-66675000D01*
X91103476Y-66445110D01*
X91058825Y-66297901D01*
X90933641Y-66035080D01*
X90759588Y-65801731D01*
X90675534Y-65725966D01*
X90756180Y-65701502D01*
X90866494Y-65642537D01*
X90963185Y-65563185D01*
X91042537Y-65466494D01*
X91101502Y-65356180D01*
X91137812Y-65236482D01*
X91150072Y-65112000D01*
X91150072Y-63412000D01*
X91137812Y-63287518D01*
X91101502Y-63167820D01*
X91042537Y-63057506D01*
X90963185Y-62960815D01*
X90866494Y-62881463D01*
X90756180Y-62822498D01*
X90636482Y-62786188D01*
X90512000Y-62773928D01*
X88812000Y-62773928D01*
X88687518Y-62786188D01*
X88567820Y-62822498D01*
X88457506Y-62881463D01*
X88360815Y-62960815D01*
X88281463Y-63057506D01*
X88222498Y-63167820D01*
X88186188Y-63287518D01*
X88173928Y-63412000D01*
X87782000Y-63412000D01*
X87782000Y-58960277D01*
X87794303Y-58834798D01*
X87821370Y-58745151D01*
X87865335Y-58662463D01*
X87924522Y-58589894D01*
X87996684Y-58530196D01*
X88079054Y-58485659D01*
X88168515Y-58457966D01*
X88291878Y-58445000D01*
X89209104Y-58445000D01*
X89122815Y-58515815D01*
G36*
X114689560Y-80063426D02*
G01*
X114715711Y-80095291D01*
X114842856Y-80199636D01*
X114987915Y-80277172D01*
X115070771Y-80302306D01*
X114993463Y-80396506D01*
X114934498Y-80506820D01*
X114898188Y-80626518D01*
X114885928Y-80751000D01*
X114889000Y-81440250D01*
X115047750Y-81599000D01*
X115697000Y-81599000D01*
X115697000Y-81579000D01*
X115951000Y-81579000D01*
X115951000Y-81599000D01*
X115971000Y-81599000D01*
X115971000Y-81853000D01*
X115951000Y-81853000D01*
X115951000Y-81873000D01*
X115697000Y-81873000D01*
X115697000Y-81853000D01*
X115047750Y-81853000D01*
X114889000Y-82011750D01*
X114886003Y-82684253D01*
X114804914Y-82805611D01*
X114734432Y-82975771D01*
X114698500Y-83156411D01*
X114698500Y-83173999D01*
X114072866Y-83173999D01*
X113903446Y-83004579D01*
X113901820Y-83002598D01*
X114012000Y-83003072D01*
X114136482Y-82990812D01*
X114256180Y-82954502D01*
X114366494Y-82895537D01*
X114463185Y-82816185D01*
X114542537Y-82719494D01*
X114601502Y-82609180D01*
X114637812Y-82489482D01*
X114650072Y-82365000D01*
X114647000Y-82200750D01*
X114488250Y-82042000D01*
X113139000Y-82042000D01*
X113139000Y-82062000D01*
X112885000Y-82062000D01*
X112885000Y-82042000D01*
X112865000Y-82042000D01*
X112865000Y-81788000D01*
X112885000Y-81788000D01*
X112885000Y-81768000D01*
X113139000Y-81768000D01*
X113139000Y-81788000D01*
X114488250Y-81788000D01*
X114647000Y-81629250D01*
X114650072Y-81465000D01*
X114637812Y-81340518D01*
X114619454Y-81280000D01*
X114637812Y-81219482D01*
X114650072Y-81095000D01*
X114650072Y-80195000D01*
X114637812Y-80070518D01*
X114619454Y-80010000D01*
X114623336Y-79997202D01*
X114689560Y-80063426D01*
G37*
X114689560Y-80063426D02*
X114715711Y-80095291D01*
X114842856Y-80199636D01*
X114987915Y-80277172D01*
X115070771Y-80302306D01*
X114993463Y-80396506D01*
X114934498Y-80506820D01*
X114898188Y-80626518D01*
X114885928Y-80751000D01*
X114889000Y-81440250D01*
X115047750Y-81599000D01*
X115697000Y-81599000D01*
X115697000Y-81579000D01*
X115951000Y-81579000D01*
X115951000Y-81599000D01*
X115971000Y-81599000D01*
X115971000Y-81853000D01*
X115951000Y-81853000D01*
X115951000Y-81873000D01*
X115697000Y-81873000D01*
X115697000Y-81853000D01*
X115047750Y-81853000D01*
X114889000Y-82011750D01*
X114886003Y-82684253D01*
X114804914Y-82805611D01*
X114734432Y-82975771D01*
X114698500Y-83156411D01*
X114698500Y-83173999D01*
X114072866Y-83173999D01*
X113903446Y-83004579D01*
X113901820Y-83002598D01*
X114012000Y-83003072D01*
X114136482Y-82990812D01*
X114256180Y-82954502D01*
X114366494Y-82895537D01*
X114463185Y-82816185D01*
X114542537Y-82719494D01*
X114601502Y-82609180D01*
X114637812Y-82489482D01*
X114650072Y-82365000D01*
X114647000Y-82200750D01*
X114488250Y-82042000D01*
X113139000Y-82042000D01*
X113139000Y-82062000D01*
X112885000Y-82062000D01*
X112885000Y-82042000D01*
X112865000Y-82042000D01*
X112865000Y-81788000D01*
X112885000Y-81788000D01*
X112885000Y-81768000D01*
X113139000Y-81768000D01*
X113139000Y-81788000D01*
X114488250Y-81788000D01*
X114647000Y-81629250D01*
X114650072Y-81465000D01*
X114637812Y-81340518D01*
X114619454Y-81280000D01*
X114637812Y-81219482D01*
X114650072Y-81095000D01*
X114650072Y-80195000D01*
X114637812Y-80070518D01*
X114619454Y-80010000D01*
X114623336Y-79997202D01*
X114689560Y-80063426D01*
G36*
X131284202Y-58457303D02*
G01*
X131373849Y-58484370D01*
X131456537Y-58528335D01*
X131529106Y-58587522D01*
X131588804Y-58659684D01*
X131633341Y-58742054D01*
X131661034Y-58831515D01*
X131674000Y-58954879D01*
X131674001Y-59911572D01*
X131674000Y-59911582D01*
X131674001Y-61562572D01*
X131674000Y-61562582D01*
X131674000Y-63327998D01*
X131515000Y-63327998D01*
X131642666Y-63168877D01*
X131579128Y-62985582D01*
X131469658Y-62812948D01*
X131328612Y-62664987D01*
X131161410Y-62547386D01*
X130974478Y-62464664D01*
X130775000Y-62420000D01*
X130475000Y-62420000D01*
X130475000Y-63328000D01*
X130495000Y-63328000D01*
X130495000Y-63582000D01*
X130475000Y-63582000D01*
X130475000Y-64490000D01*
X130775000Y-64490000D01*
X130974478Y-64445336D01*
X131161410Y-64362614D01*
X131328612Y-64245013D01*
X131469658Y-64097052D01*
X131579128Y-63924418D01*
X131642666Y-63741123D01*
X131515000Y-63582002D01*
X131674000Y-63582002D01*
X131674000Y-68771133D01*
X130496155Y-67593287D01*
X130432086Y-67438611D01*
X130329762Y-67285472D01*
X130199528Y-67155238D01*
X130046389Y-67052914D01*
X129876229Y-66982432D01*
X129695589Y-66946500D01*
X129511411Y-66946500D01*
X129330771Y-66982432D01*
X129160611Y-67052914D01*
X129007472Y-67155238D01*
X128877238Y-67285472D01*
X128774914Y-67438611D01*
X128704432Y-67608771D01*
X128668500Y-67789411D01*
X128668500Y-67973589D01*
X128704432Y-68154229D01*
X128774914Y-68324389D01*
X128877238Y-68477528D01*
X129007472Y-68607762D01*
X129160611Y-68710086D01*
X129315287Y-68774155D01*
X130797011Y-70255879D01*
X130797010Y-71265991D01*
X130797010Y-71404928D01*
X130775000Y-71400000D01*
X130475000Y-71400000D01*
X130475000Y-72308000D01*
X130495000Y-72308000D01*
X130495000Y-72471000D01*
X130463911Y-72471000D01*
X130283271Y-72506932D01*
X130150324Y-72562000D01*
X129181002Y-72562000D01*
X129053334Y-72721123D01*
X129116872Y-72904418D01*
X129226342Y-73077052D01*
X129367388Y-73225013D01*
X129534590Y-73342614D01*
X129621000Y-73380853D01*
X129621000Y-73498089D01*
X129627802Y-73532286D01*
X129563614Y-73566595D01*
X129429038Y-73677038D01*
X129318595Y-73811614D01*
X129236528Y-73965150D01*
X129185992Y-74131746D01*
X129168928Y-74305000D01*
X129168928Y-75555000D01*
X129185992Y-75728254D01*
X129214490Y-75822200D01*
X129120028Y-75727738D01*
X128966889Y-75625414D01*
X128893978Y-75595214D01*
X128892000Y-75215750D01*
X128733250Y-75057000D01*
X127671500Y-75057000D01*
X127671500Y-76068845D01*
X127624932Y-76181271D01*
X127589000Y-76361911D01*
X127589000Y-76546089D01*
X127624932Y-76726729D01*
X127689000Y-76881405D01*
X127689001Y-77121367D01*
X127661498Y-77172820D01*
X127625188Y-77292518D01*
X127612928Y-77417000D01*
X127612928Y-77686172D01*
X127569889Y-77657414D01*
X127399729Y-77586932D01*
X127219089Y-77551000D01*
X127034911Y-77551000D01*
X126854271Y-77586932D01*
X126684111Y-77657414D01*
X126530972Y-77759738D01*
X126400738Y-77889972D01*
X126298414Y-78043111D01*
X126227932Y-78213271D01*
X126192000Y-78393911D01*
X126192000Y-78578089D01*
X126227932Y-78758729D01*
X126298414Y-78928889D01*
X126400738Y-79082028D01*
X126530972Y-79212262D01*
X126673700Y-79307629D01*
X126662928Y-79417000D01*
X126662928Y-80317000D01*
X126675188Y-80441482D01*
X126711498Y-80561180D01*
X126754344Y-80641339D01*
X126684038Y-80699038D01*
X126573595Y-80833613D01*
X126491528Y-80987149D01*
X126440992Y-81153745D01*
X126423928Y-81326999D01*
X126423928Y-81844665D01*
X126328311Y-81854082D01*
X126210930Y-81889689D01*
X126170913Y-81901828D01*
X126025854Y-81979364D01*
X125949532Y-82042000D01*
X125898709Y-82083709D01*
X125872562Y-82115569D01*
X125652072Y-82336060D01*
X125652072Y-80901000D01*
X125636929Y-80747255D01*
X125592084Y-80599418D01*
X125549000Y-80518814D01*
X125549000Y-78132018D01*
X125553040Y-78091000D01*
X125546033Y-78019854D01*
X125536918Y-77927311D01*
X125489172Y-77769913D01*
X125411636Y-77624854D01*
X125380514Y-77586932D01*
X125333439Y-77529570D01*
X125333437Y-77529568D01*
X125307291Y-77497709D01*
X125275431Y-77471562D01*
X125192072Y-77388203D01*
X125192072Y-77168500D01*
X125175248Y-76997684D01*
X125125423Y-76833433D01*
X125044512Y-76682058D01*
X125024901Y-76658161D01*
X125084537Y-76585494D01*
X125143502Y-76475180D01*
X125179812Y-76355482D01*
X125192072Y-76231000D01*
X125189000Y-75991750D01*
X125030250Y-75833000D01*
X124206000Y-75833000D01*
X124206000Y-75853000D01*
X123952000Y-75853000D01*
X123952000Y-75833000D01*
X123932000Y-75833000D01*
X123932000Y-75805000D01*
X126193928Y-75805000D01*
X126206188Y-75929482D01*
X126242498Y-76049180D01*
X126301463Y-76159494D01*
X126380815Y-76256185D01*
X126477506Y-76335537D01*
X126587820Y-76394502D01*
X126707518Y-76430812D01*
X126832000Y-76443072D01*
X127258750Y-76440000D01*
X127417500Y-76281250D01*
X127417500Y-75057000D01*
X126355750Y-75057000D01*
X126197000Y-75215750D01*
X126193928Y-75805000D01*
X123932000Y-75805000D01*
X123932000Y-75579000D01*
X123952000Y-75579000D01*
X123952000Y-74704750D01*
X124206000Y-74704750D01*
X124206000Y-75579000D01*
X125030250Y-75579000D01*
X125189000Y-75420250D01*
X125192072Y-75181000D01*
X125179812Y-75056518D01*
X125143502Y-74936820D01*
X125084537Y-74826506D01*
X125005185Y-74729815D01*
X124908494Y-74650463D01*
X124798180Y-74591498D01*
X124678482Y-74555188D01*
X124554000Y-74542928D01*
X124364750Y-74546000D01*
X124206000Y-74704750D01*
X123952000Y-74704750D01*
X123793250Y-74546000D01*
X123604000Y-74542928D01*
X123479518Y-74555188D01*
X123359820Y-74591498D01*
X123249506Y-74650463D01*
X123217073Y-74677080D01*
X123181502Y-74559820D01*
X123122537Y-74449506D01*
X123043185Y-74352815D01*
X122946494Y-74273463D01*
X122836180Y-74214498D01*
X122716482Y-74178188D01*
X122592000Y-74165928D01*
X122077750Y-74169000D01*
X121919000Y-74327750D01*
X121919000Y-75327000D01*
X121939000Y-75327000D01*
X121939000Y-75581000D01*
X121919000Y-75581000D01*
X121919000Y-75601000D01*
X121665000Y-75601000D01*
X121665000Y-75581000D01*
X121645000Y-75581000D01*
X121645000Y-75327000D01*
X121665000Y-75327000D01*
X121665000Y-74327750D01*
X121506250Y-74169000D01*
X120992000Y-74165928D01*
X120867518Y-74178188D01*
X120747820Y-74214498D01*
X120637506Y-74273463D01*
X120540815Y-74352815D01*
X120461463Y-74449506D01*
X120402498Y-74559820D01*
X120384546Y-74619000D01*
X119899454Y-74619000D01*
X119881502Y-74559820D01*
X119822537Y-74449506D01*
X119743185Y-74352815D01*
X119646494Y-74273463D01*
X119536180Y-74214498D01*
X119416482Y-74178188D01*
X119292000Y-74165928D01*
X117692000Y-74165928D01*
X117567518Y-74178188D01*
X117447820Y-74214498D01*
X117337506Y-74273463D01*
X117240815Y-74352815D01*
X117161463Y-74449506D01*
X117102498Y-74559820D01*
X117084546Y-74619000D01*
X117049196Y-74619000D01*
X117031567Y-74609577D01*
X116867316Y-74559752D01*
X116696500Y-74542928D01*
X116221500Y-74542928D01*
X116050684Y-74559752D01*
X115886433Y-74609577D01*
X115735058Y-74690488D01*
X115643000Y-74766038D01*
X115643000Y-73023290D01*
X115735972Y-73116262D01*
X115889111Y-73218586D01*
X116059271Y-73289068D01*
X116239911Y-73325000D01*
X116424089Y-73325000D01*
X116604729Y-73289068D01*
X116774889Y-73218586D01*
X116928028Y-73116262D01*
X117058262Y-72986028D01*
X117154818Y-72841522D01*
X117179981Y-72844000D01*
X117179982Y-72844000D01*
X117221000Y-72848040D01*
X117262018Y-72844000D01*
X120177133Y-72844000D01*
X121173558Y-73840426D01*
X121199709Y-73872291D01*
X121326854Y-73976636D01*
X121471913Y-74054172D01*
X121629311Y-74101918D01*
X121751981Y-74114000D01*
X121751983Y-74114000D01*
X121792999Y-74118040D01*
X121834015Y-74114000D01*
X126194236Y-74114000D01*
X126197000Y-74644250D01*
X126355750Y-74803000D01*
X127417500Y-74803000D01*
X127417500Y-74783000D01*
X127671500Y-74783000D01*
X127671500Y-74803000D01*
X128733250Y-74803000D01*
X128892000Y-74644250D01*
X128895072Y-74055000D01*
X128882812Y-73930518D01*
X128846502Y-73810820D01*
X128787537Y-73700506D01*
X128746935Y-73651033D01*
X128788068Y-73551729D01*
X128824000Y-73371089D01*
X128824000Y-73186911D01*
X128788068Y-73006271D01*
X128717586Y-72836111D01*
X128615262Y-72682972D01*
X128485028Y-72552738D01*
X128331889Y-72450414D01*
X128161729Y-72379932D01*
X127981089Y-72344000D01*
X127796911Y-72344000D01*
X127616271Y-72379932D01*
X127461596Y-72444000D01*
X125663937Y-72444000D01*
X125692666Y-72361123D01*
X125564998Y-72202000D01*
X124525000Y-72202000D01*
X124525000Y-72222000D01*
X124271000Y-72222000D01*
X124271000Y-72202000D01*
X124251000Y-72202000D01*
X124251000Y-72148877D01*
X129053334Y-72148877D01*
X129181002Y-72308000D01*
X130221000Y-72308000D01*
X130221000Y-71400000D01*
X129921000Y-71400000D01*
X129721522Y-71444664D01*
X129534590Y-71527386D01*
X129367388Y-71644987D01*
X129226342Y-71792948D01*
X129116872Y-71965582D01*
X129053334Y-72148877D01*
X124251000Y-72148877D01*
X124251000Y-71948000D01*
X124271000Y-71948000D01*
X124271000Y-71928000D01*
X124525000Y-71928000D01*
X124525000Y-71948000D01*
X125564998Y-71948000D01*
X125692666Y-71788877D01*
X125629128Y-71605582D01*
X125519658Y-71432948D01*
X125378612Y-71284987D01*
X125211410Y-71167386D01*
X125081322Y-71109819D01*
X125109964Y-71090681D01*
X125243681Y-70956964D01*
X125348741Y-70799731D01*
X125421108Y-70625022D01*
X125458000Y-70439552D01*
X125458000Y-70250448D01*
X125421108Y-70064978D01*
X125371411Y-69945000D01*
X125421108Y-69825022D01*
X125458000Y-69639552D01*
X125458000Y-69450448D01*
X125421108Y-69264978D01*
X125371411Y-69145000D01*
X125421108Y-69025022D01*
X125458000Y-68839552D01*
X125458000Y-68650448D01*
X125443589Y-68578000D01*
X126073465Y-68578000D01*
X126176111Y-68646586D01*
X126346271Y-68717068D01*
X126526911Y-68753000D01*
X126711089Y-68753000D01*
X126891729Y-68717068D01*
X127061889Y-68646586D01*
X127215028Y-68544262D01*
X127345262Y-68414028D01*
X127447586Y-68260889D01*
X127518068Y-68090729D01*
X127554000Y-67910089D01*
X127554000Y-67725911D01*
X127518068Y-67545271D01*
X127447586Y-67375111D01*
X127345262Y-67221972D01*
X127215028Y-67091738D01*
X127061889Y-66989414D01*
X126891729Y-66918932D01*
X126711089Y-66883000D01*
X126526911Y-66883000D01*
X126346271Y-66918932D01*
X126176111Y-66989414D01*
X126073465Y-67058000D01*
X125458000Y-67058000D01*
X125458000Y-67050448D01*
X125421108Y-66864978D01*
X125371411Y-66745000D01*
X125421108Y-66625022D01*
X125458000Y-66439552D01*
X125458000Y-66250448D01*
X125421108Y-66064978D01*
X125371411Y-65945000D01*
X125421108Y-65825022D01*
X125458000Y-65639552D01*
X125458000Y-65450448D01*
X125421108Y-65264978D01*
X125348741Y-65090269D01*
X125243681Y-64933036D01*
X125109964Y-64799319D01*
X125081322Y-64780181D01*
X125211410Y-64722614D01*
X125378612Y-64605013D01*
X125519658Y-64457052D01*
X125629128Y-64284418D01*
X125692666Y-64101123D01*
X125564998Y-63942000D01*
X124525000Y-63942000D01*
X124525000Y-63962000D01*
X124271000Y-63962000D01*
X124271000Y-63942000D01*
X124251000Y-63942000D01*
X124251000Y-63741123D01*
X129053334Y-63741123D01*
X129116872Y-63924418D01*
X129226342Y-64097052D01*
X129367388Y-64245013D01*
X129534590Y-64362614D01*
X129721522Y-64445336D01*
X129921000Y-64490000D01*
X130221000Y-64490000D01*
X130221000Y-63582000D01*
X129181002Y-63582000D01*
X129053334Y-63741123D01*
X124251000Y-63741123D01*
X124251000Y-63688000D01*
X124271000Y-63688000D01*
X124271000Y-62780000D01*
X124525000Y-62780000D01*
X124525000Y-63688000D01*
X125564998Y-63688000D01*
X125692666Y-63528877D01*
X125629128Y-63345582D01*
X125519658Y-63172948D01*
X125515778Y-63168877D01*
X129053334Y-63168877D01*
X129181002Y-63328000D01*
X130221000Y-63328000D01*
X130221000Y-62420000D01*
X129921000Y-62420000D01*
X129721522Y-62464664D01*
X129534590Y-62547386D01*
X129367388Y-62664987D01*
X129226342Y-62812948D01*
X129116872Y-62985582D01*
X129053334Y-63168877D01*
X125515778Y-63168877D01*
X125378612Y-63024987D01*
X125211410Y-62907386D01*
X125024478Y-62824664D01*
X124825000Y-62780000D01*
X124525000Y-62780000D01*
X124271000Y-62780000D01*
X123971000Y-62780000D01*
X123771522Y-62824664D01*
X123584590Y-62907386D01*
X123417388Y-63024987D01*
X123276342Y-63172948D01*
X123166872Y-63345582D01*
X123153208Y-63385000D01*
X123053448Y-63385000D01*
X122867978Y-63421892D01*
X122693269Y-63494259D01*
X122536036Y-63599319D01*
X122402319Y-63733036D01*
X122297259Y-63890269D01*
X122224892Y-64064978D01*
X122188000Y-64250448D01*
X122188000Y-64409160D01*
X122153171Y-64407108D01*
X122028433Y-64416406D01*
X121907905Y-64449859D01*
X121796220Y-64506184D01*
X121697670Y-64583215D01*
X121616041Y-64677992D01*
X121554471Y-64786873D01*
X121515325Y-64905674D01*
X121503000Y-65013250D01*
X121640275Y-65150525D01*
X121607463Y-65190506D01*
X121548498Y-65300820D01*
X121535247Y-65344503D01*
X121503000Y-65376750D01*
X121510259Y-65440107D01*
X121499928Y-65545000D01*
X121499928Y-65845000D01*
X121503868Y-65885000D01*
X121371974Y-65885000D01*
X121391008Y-65822254D01*
X121408072Y-65649000D01*
X121408072Y-64399000D01*
X121391008Y-64225746D01*
X121340472Y-64059150D01*
X121258405Y-63905614D01*
X121147962Y-63771038D01*
X121013386Y-63660595D01*
X120859850Y-63578528D01*
X120693254Y-63527992D01*
X120520000Y-63510928D01*
X119770000Y-63510928D01*
X119596746Y-63527992D01*
X119430150Y-63578528D01*
X119276614Y-63660595D01*
X119142038Y-63771038D01*
X119031595Y-63905614D01*
X118949528Y-64059150D01*
X118898992Y-64225746D01*
X118881928Y-64399000D01*
X118881928Y-65387000D01*
X118608072Y-65387000D01*
X118608072Y-64399000D01*
X118591008Y-64225746D01*
X118540472Y-64059150D01*
X118458405Y-63905614D01*
X118347962Y-63771038D01*
X118213386Y-63660595D01*
X118059850Y-63578528D01*
X117893254Y-63527992D01*
X117720000Y-63510928D01*
X116970000Y-63510928D01*
X116796746Y-63527992D01*
X116630150Y-63578528D01*
X116476614Y-63660595D01*
X116342038Y-63771038D01*
X116231595Y-63905614D01*
X116149528Y-64059150D01*
X116098992Y-64225746D01*
X116094429Y-64272071D01*
X115992854Y-64326364D01*
X115865709Y-64430709D01*
X115839559Y-64462574D01*
X115365537Y-64936595D01*
X115280262Y-64808972D01*
X115150028Y-64678738D01*
X114996889Y-64576414D01*
X114826729Y-64505932D01*
X114646089Y-64470000D01*
X114461911Y-64470000D01*
X114429902Y-64476367D01*
X114365194Y-64423263D01*
X114254880Y-64364298D01*
X114135182Y-64327988D01*
X114010700Y-64315728D01*
X112010700Y-64315728D01*
X111886218Y-64327988D01*
X111766520Y-64364298D01*
X111656206Y-64423263D01*
X111559515Y-64502615D01*
X111480163Y-64599306D01*
X111421198Y-64709620D01*
X111384888Y-64829318D01*
X111372628Y-64953800D01*
X111372628Y-65613000D01*
X111304435Y-65613000D01*
X111315072Y-65505000D01*
X111315072Y-63709000D01*
X112725982Y-63709000D01*
X112767000Y-63713040D01*
X112808018Y-63709000D01*
X112808019Y-63709000D01*
X112930689Y-63696918D01*
X113088087Y-63649172D01*
X113233146Y-63571636D01*
X113360291Y-63467291D01*
X113386446Y-63435421D01*
X115546061Y-61275807D01*
X115677740Y-61302000D01*
X115970260Y-61302000D01*
X116257158Y-61244932D01*
X116527411Y-61132990D01*
X116770632Y-60970475D01*
X116977475Y-60763632D01*
X117094000Y-60589240D01*
X117210525Y-60763632D01*
X117417368Y-60970475D01*
X117660589Y-61132990D01*
X117930842Y-61244932D01*
X118217740Y-61302000D01*
X118510260Y-61302000D01*
X118797158Y-61244932D01*
X119067411Y-61132990D01*
X119310632Y-60970475D01*
X119517475Y-60763632D01*
X119634000Y-60589240D01*
X119750525Y-60763632D01*
X119957368Y-60970475D01*
X120200589Y-61132990D01*
X120470842Y-61244932D01*
X120757740Y-61302000D01*
X121050260Y-61302000D01*
X121337158Y-61244932D01*
X121607411Y-61132990D01*
X121850632Y-60970475D01*
X122057475Y-60763632D01*
X122174000Y-60589240D01*
X122290525Y-60763632D01*
X122497368Y-60970475D01*
X122740589Y-61132990D01*
X123010842Y-61244932D01*
X123297740Y-61302000D01*
X123590260Y-61302000D01*
X123877158Y-61244932D01*
X124147411Y-61132990D01*
X124390632Y-60970475D01*
X124597475Y-60763632D01*
X124759990Y-60520411D01*
X124871932Y-60250158D01*
X124929000Y-59963260D01*
X124929000Y-59670740D01*
X124871932Y-59383842D01*
X124759990Y-59113589D01*
X124597475Y-58870368D01*
X124390632Y-58663525D01*
X124147411Y-58501010D01*
X124012190Y-58445000D01*
X131158723Y-58445000D01*
X131284202Y-58457303D01*
G37*
X131284202Y-58457303D02*
X131373849Y-58484370D01*
X131456537Y-58528335D01*
X131529106Y-58587522D01*
X131588804Y-58659684D01*
X131633341Y-58742054D01*
X131661034Y-58831515D01*
X131674000Y-58954879D01*
X131674001Y-59911572D01*
X131674000Y-59911582D01*
X131674001Y-61562572D01*
X131674000Y-61562582D01*
X131674000Y-63327998D01*
X131515000Y-63327998D01*
X131642666Y-63168877D01*
X131579128Y-62985582D01*
X131469658Y-62812948D01*
X131328612Y-62664987D01*
X131161410Y-62547386D01*
X130974478Y-62464664D01*
X130775000Y-62420000D01*
X130475000Y-62420000D01*
X130475000Y-63328000D01*
X130495000Y-63328000D01*
X130495000Y-63582000D01*
X130475000Y-63582000D01*
X130475000Y-64490000D01*
X130775000Y-64490000D01*
X130974478Y-64445336D01*
X131161410Y-64362614D01*
X131328612Y-64245013D01*
X131469658Y-64097052D01*
X131579128Y-63924418D01*
X131642666Y-63741123D01*
X131515000Y-63582002D01*
X131674000Y-63582002D01*
X131674000Y-68771133D01*
X130496155Y-67593287D01*
X130432086Y-67438611D01*
X130329762Y-67285472D01*
X130199528Y-67155238D01*
X130046389Y-67052914D01*
X129876229Y-66982432D01*
X129695589Y-66946500D01*
X129511411Y-66946500D01*
X129330771Y-66982432D01*
X129160611Y-67052914D01*
X129007472Y-67155238D01*
X128877238Y-67285472D01*
X128774914Y-67438611D01*
X128704432Y-67608771D01*
X128668500Y-67789411D01*
X128668500Y-67973589D01*
X128704432Y-68154229D01*
X128774914Y-68324389D01*
X128877238Y-68477528D01*
X129007472Y-68607762D01*
X129160611Y-68710086D01*
X129315287Y-68774155D01*
X130797011Y-70255879D01*
X130797010Y-71265991D01*
X130797010Y-71404928D01*
X130775000Y-71400000D01*
X130475000Y-71400000D01*
X130475000Y-72308000D01*
X130495000Y-72308000D01*
X130495000Y-72471000D01*
X130463911Y-72471000D01*
X130283271Y-72506932D01*
X130150324Y-72562000D01*
X129181002Y-72562000D01*
X129053334Y-72721123D01*
X129116872Y-72904418D01*
X129226342Y-73077052D01*
X129367388Y-73225013D01*
X129534590Y-73342614D01*
X129621000Y-73380853D01*
X129621000Y-73498089D01*
X129627802Y-73532286D01*
X129563614Y-73566595D01*
X129429038Y-73677038D01*
X129318595Y-73811614D01*
X129236528Y-73965150D01*
X129185992Y-74131746D01*
X129168928Y-74305000D01*
X129168928Y-75555000D01*
X129185992Y-75728254D01*
X129214490Y-75822200D01*
X129120028Y-75727738D01*
X128966889Y-75625414D01*
X128893978Y-75595214D01*
X128892000Y-75215750D01*
X128733250Y-75057000D01*
X127671500Y-75057000D01*
X127671500Y-76068845D01*
X127624932Y-76181271D01*
X127589000Y-76361911D01*
X127589000Y-76546089D01*
X127624932Y-76726729D01*
X127689000Y-76881405D01*
X127689001Y-77121367D01*
X127661498Y-77172820D01*
X127625188Y-77292518D01*
X127612928Y-77417000D01*
X127612928Y-77686172D01*
X127569889Y-77657414D01*
X127399729Y-77586932D01*
X127219089Y-77551000D01*
X127034911Y-77551000D01*
X126854271Y-77586932D01*
X126684111Y-77657414D01*
X126530972Y-77759738D01*
X126400738Y-77889972D01*
X126298414Y-78043111D01*
X126227932Y-78213271D01*
X126192000Y-78393911D01*
X126192000Y-78578089D01*
X126227932Y-78758729D01*
X126298414Y-78928889D01*
X126400738Y-79082028D01*
X126530972Y-79212262D01*
X126673700Y-79307629D01*
X126662928Y-79417000D01*
X126662928Y-80317000D01*
X126675188Y-80441482D01*
X126711498Y-80561180D01*
X126754344Y-80641339D01*
X126684038Y-80699038D01*
X126573595Y-80833613D01*
X126491528Y-80987149D01*
X126440992Y-81153745D01*
X126423928Y-81326999D01*
X126423928Y-81844665D01*
X126328311Y-81854082D01*
X126210930Y-81889689D01*
X126170913Y-81901828D01*
X126025854Y-81979364D01*
X125949532Y-82042000D01*
X125898709Y-82083709D01*
X125872562Y-82115569D01*
X125652072Y-82336060D01*
X125652072Y-80901000D01*
X125636929Y-80747255D01*
X125592084Y-80599418D01*
X125549000Y-80518814D01*
X125549000Y-78132018D01*
X125553040Y-78091000D01*
X125546033Y-78019854D01*
X125536918Y-77927311D01*
X125489172Y-77769913D01*
X125411636Y-77624854D01*
X125380514Y-77586932D01*
X125333439Y-77529570D01*
X125333437Y-77529568D01*
X125307291Y-77497709D01*
X125275431Y-77471562D01*
X125192072Y-77388203D01*
X125192072Y-77168500D01*
X125175248Y-76997684D01*
X125125423Y-76833433D01*
X125044512Y-76682058D01*
X125024901Y-76658161D01*
X125084537Y-76585494D01*
X125143502Y-76475180D01*
X125179812Y-76355482D01*
X125192072Y-76231000D01*
X125189000Y-75991750D01*
X125030250Y-75833000D01*
X124206000Y-75833000D01*
X124206000Y-75853000D01*
X123952000Y-75853000D01*
X123952000Y-75833000D01*
X123932000Y-75833000D01*
X123932000Y-75805000D01*
X126193928Y-75805000D01*
X126206188Y-75929482D01*
X126242498Y-76049180D01*
X126301463Y-76159494D01*
X126380815Y-76256185D01*
X126477506Y-76335537D01*
X126587820Y-76394502D01*
X126707518Y-76430812D01*
X126832000Y-76443072D01*
X127258750Y-76440000D01*
X127417500Y-76281250D01*
X127417500Y-75057000D01*
X126355750Y-75057000D01*
X126197000Y-75215750D01*
X126193928Y-75805000D01*
X123932000Y-75805000D01*
X123932000Y-75579000D01*
X123952000Y-75579000D01*
X123952000Y-74704750D01*
X124206000Y-74704750D01*
X124206000Y-75579000D01*
X125030250Y-75579000D01*
X125189000Y-75420250D01*
X125192072Y-75181000D01*
X125179812Y-75056518D01*
X125143502Y-74936820D01*
X125084537Y-74826506D01*
X125005185Y-74729815D01*
X124908494Y-74650463D01*
X124798180Y-74591498D01*
X124678482Y-74555188D01*
X124554000Y-74542928D01*
X124364750Y-74546000D01*
X124206000Y-74704750D01*
X123952000Y-74704750D01*
X123793250Y-74546000D01*
X123604000Y-74542928D01*
X123479518Y-74555188D01*
X123359820Y-74591498D01*
X123249506Y-74650463D01*
X123217073Y-74677080D01*
X123181502Y-74559820D01*
X123122537Y-74449506D01*
X123043185Y-74352815D01*
X122946494Y-74273463D01*
X122836180Y-74214498D01*
X122716482Y-74178188D01*
X122592000Y-74165928D01*
X122077750Y-74169000D01*
X121919000Y-74327750D01*
X121919000Y-75327000D01*
X121939000Y-75327000D01*
X121939000Y-75581000D01*
X121919000Y-75581000D01*
X121919000Y-75601000D01*
X121665000Y-75601000D01*
X121665000Y-75581000D01*
X121645000Y-75581000D01*
X121645000Y-75327000D01*
X121665000Y-75327000D01*
X121665000Y-74327750D01*
X121506250Y-74169000D01*
X120992000Y-74165928D01*
X120867518Y-74178188D01*
X120747820Y-74214498D01*
X120637506Y-74273463D01*
X120540815Y-74352815D01*
X120461463Y-74449506D01*
X120402498Y-74559820D01*
X120384546Y-74619000D01*
X119899454Y-74619000D01*
X119881502Y-74559820D01*
X119822537Y-74449506D01*
X119743185Y-74352815D01*
X119646494Y-74273463D01*
X119536180Y-74214498D01*
X119416482Y-74178188D01*
X119292000Y-74165928D01*
X117692000Y-74165928D01*
X117567518Y-74178188D01*
X117447820Y-74214498D01*
X117337506Y-74273463D01*
X117240815Y-74352815D01*
X117161463Y-74449506D01*
X117102498Y-74559820D01*
X117084546Y-74619000D01*
X117049196Y-74619000D01*
X117031567Y-74609577D01*
X116867316Y-74559752D01*
X116696500Y-74542928D01*
X116221500Y-74542928D01*
X116050684Y-74559752D01*
X115886433Y-74609577D01*
X115735058Y-74690488D01*
X115643000Y-74766038D01*
X115643000Y-73023290D01*
X115735972Y-73116262D01*
X115889111Y-73218586D01*
X116059271Y-73289068D01*
X116239911Y-73325000D01*
X116424089Y-73325000D01*
X116604729Y-73289068D01*
X116774889Y-73218586D01*
X116928028Y-73116262D01*
X117058262Y-72986028D01*
X117154818Y-72841522D01*
X117179981Y-72844000D01*
X117179982Y-72844000D01*
X117221000Y-72848040D01*
X117262018Y-72844000D01*
X120177133Y-72844000D01*
X121173558Y-73840426D01*
X121199709Y-73872291D01*
X121326854Y-73976636D01*
X121471913Y-74054172D01*
X121629311Y-74101918D01*
X121751981Y-74114000D01*
X121751983Y-74114000D01*
X121792999Y-74118040D01*
X121834015Y-74114000D01*
X126194236Y-74114000D01*
X126197000Y-74644250D01*
X126355750Y-74803000D01*
X127417500Y-74803000D01*
X127417500Y-74783000D01*
X127671500Y-74783000D01*
X127671500Y-74803000D01*
X128733250Y-74803000D01*
X128892000Y-74644250D01*
X128895072Y-74055000D01*
X128882812Y-73930518D01*
X128846502Y-73810820D01*
X128787537Y-73700506D01*
X128746935Y-73651033D01*
X128788068Y-73551729D01*
X128824000Y-73371089D01*
X128824000Y-73186911D01*
X128788068Y-73006271D01*
X128717586Y-72836111D01*
X128615262Y-72682972D01*
X128485028Y-72552738D01*
X128331889Y-72450414D01*
X128161729Y-72379932D01*
X127981089Y-72344000D01*
X127796911Y-72344000D01*
X127616271Y-72379932D01*
X127461596Y-72444000D01*
X125663937Y-72444000D01*
X125692666Y-72361123D01*
X125564998Y-72202000D01*
X124525000Y-72202000D01*
X124525000Y-72222000D01*
X124271000Y-72222000D01*
X124271000Y-72202000D01*
X124251000Y-72202000D01*
X124251000Y-72148877D01*
X129053334Y-72148877D01*
X129181002Y-72308000D01*
X130221000Y-72308000D01*
X130221000Y-71400000D01*
X129921000Y-71400000D01*
X129721522Y-71444664D01*
X129534590Y-71527386D01*
X129367388Y-71644987D01*
X129226342Y-71792948D01*
X129116872Y-71965582D01*
X129053334Y-72148877D01*
X124251000Y-72148877D01*
X124251000Y-71948000D01*
X124271000Y-71948000D01*
X124271000Y-71928000D01*
X124525000Y-71928000D01*
X124525000Y-71948000D01*
X125564998Y-71948000D01*
X125692666Y-71788877D01*
X125629128Y-71605582D01*
X125519658Y-71432948D01*
X125378612Y-71284987D01*
X125211410Y-71167386D01*
X125081322Y-71109819D01*
X125109964Y-71090681D01*
X125243681Y-70956964D01*
X125348741Y-70799731D01*
X125421108Y-70625022D01*
X125458000Y-70439552D01*
X125458000Y-70250448D01*
X125421108Y-70064978D01*
X125371411Y-69945000D01*
X125421108Y-69825022D01*
X125458000Y-69639552D01*
X125458000Y-69450448D01*
X125421108Y-69264978D01*
X125371411Y-69145000D01*
X125421108Y-69025022D01*
X125458000Y-68839552D01*
X125458000Y-68650448D01*
X125443589Y-68578000D01*
X126073465Y-68578000D01*
X126176111Y-68646586D01*
X126346271Y-68717068D01*
X126526911Y-68753000D01*
X126711089Y-68753000D01*
X126891729Y-68717068D01*
X127061889Y-68646586D01*
X127215028Y-68544262D01*
X127345262Y-68414028D01*
X127447586Y-68260889D01*
X127518068Y-68090729D01*
X127554000Y-67910089D01*
X127554000Y-67725911D01*
X127518068Y-67545271D01*
X127447586Y-67375111D01*
X127345262Y-67221972D01*
X127215028Y-67091738D01*
X127061889Y-66989414D01*
X126891729Y-66918932D01*
X126711089Y-66883000D01*
X126526911Y-66883000D01*
X126346271Y-66918932D01*
X126176111Y-66989414D01*
X126073465Y-67058000D01*
X125458000Y-67058000D01*
X125458000Y-67050448D01*
X125421108Y-66864978D01*
X125371411Y-66745000D01*
X125421108Y-66625022D01*
X125458000Y-66439552D01*
X125458000Y-66250448D01*
X125421108Y-66064978D01*
X125371411Y-65945000D01*
X125421108Y-65825022D01*
X125458000Y-65639552D01*
X125458000Y-65450448D01*
X125421108Y-65264978D01*
X125348741Y-65090269D01*
X125243681Y-64933036D01*
X125109964Y-64799319D01*
X125081322Y-64780181D01*
X125211410Y-64722614D01*
X125378612Y-64605013D01*
X125519658Y-64457052D01*
X125629128Y-64284418D01*
X125692666Y-64101123D01*
X125564998Y-63942000D01*
X124525000Y-63942000D01*
X124525000Y-63962000D01*
X124271000Y-63962000D01*
X124271000Y-63942000D01*
X124251000Y-63942000D01*
X124251000Y-63741123D01*
X129053334Y-63741123D01*
X129116872Y-63924418D01*
X129226342Y-64097052D01*
X129367388Y-64245013D01*
X129534590Y-64362614D01*
X129721522Y-64445336D01*
X129921000Y-64490000D01*
X130221000Y-64490000D01*
X130221000Y-63582000D01*
X129181002Y-63582000D01*
X129053334Y-63741123D01*
X124251000Y-63741123D01*
X124251000Y-63688000D01*
X124271000Y-63688000D01*
X124271000Y-62780000D01*
X124525000Y-62780000D01*
X124525000Y-63688000D01*
X125564998Y-63688000D01*
X125692666Y-63528877D01*
X125629128Y-63345582D01*
X125519658Y-63172948D01*
X125515778Y-63168877D01*
X129053334Y-63168877D01*
X129181002Y-63328000D01*
X130221000Y-63328000D01*
X130221000Y-62420000D01*
X129921000Y-62420000D01*
X129721522Y-62464664D01*
X129534590Y-62547386D01*
X129367388Y-62664987D01*
X129226342Y-62812948D01*
X129116872Y-62985582D01*
X129053334Y-63168877D01*
X125515778Y-63168877D01*
X125378612Y-63024987D01*
X125211410Y-62907386D01*
X125024478Y-62824664D01*
X124825000Y-62780000D01*
X124525000Y-62780000D01*
X124271000Y-62780000D01*
X123971000Y-62780000D01*
X123771522Y-62824664D01*
X123584590Y-62907386D01*
X123417388Y-63024987D01*
X123276342Y-63172948D01*
X123166872Y-63345582D01*
X123153208Y-63385000D01*
X123053448Y-63385000D01*
X122867978Y-63421892D01*
X122693269Y-63494259D01*
X122536036Y-63599319D01*
X122402319Y-63733036D01*
X122297259Y-63890269D01*
X122224892Y-64064978D01*
X122188000Y-64250448D01*
X122188000Y-64409160D01*
X122153171Y-64407108D01*
X122028433Y-64416406D01*
X121907905Y-64449859D01*
X121796220Y-64506184D01*
X121697670Y-64583215D01*
X121616041Y-64677992D01*
X121554471Y-64786873D01*
X121515325Y-64905674D01*
X121503000Y-65013250D01*
X121640275Y-65150525D01*
X121607463Y-65190506D01*
X121548498Y-65300820D01*
X121535247Y-65344503D01*
X121503000Y-65376750D01*
X121510259Y-65440107D01*
X121499928Y-65545000D01*
X121499928Y-65845000D01*
X121503868Y-65885000D01*
X121371974Y-65885000D01*
X121391008Y-65822254D01*
X121408072Y-65649000D01*
X121408072Y-64399000D01*
X121391008Y-64225746D01*
X121340472Y-64059150D01*
X121258405Y-63905614D01*
X121147962Y-63771038D01*
X121013386Y-63660595D01*
X120859850Y-63578528D01*
X120693254Y-63527992D01*
X120520000Y-63510928D01*
X119770000Y-63510928D01*
X119596746Y-63527992D01*
X119430150Y-63578528D01*
X119276614Y-63660595D01*
X119142038Y-63771038D01*
X119031595Y-63905614D01*
X118949528Y-64059150D01*
X118898992Y-64225746D01*
X118881928Y-64399000D01*
X118881928Y-65387000D01*
X118608072Y-65387000D01*
X118608072Y-64399000D01*
X118591008Y-64225746D01*
X118540472Y-64059150D01*
X118458405Y-63905614D01*
X118347962Y-63771038D01*
X118213386Y-63660595D01*
X118059850Y-63578528D01*
X117893254Y-63527992D01*
X117720000Y-63510928D01*
X116970000Y-63510928D01*
X116796746Y-63527992D01*
X116630150Y-63578528D01*
X116476614Y-63660595D01*
X116342038Y-63771038D01*
X116231595Y-63905614D01*
X116149528Y-64059150D01*
X116098992Y-64225746D01*
X116094429Y-64272071D01*
X115992854Y-64326364D01*
X115865709Y-64430709D01*
X115839559Y-64462574D01*
X115365537Y-64936595D01*
X115280262Y-64808972D01*
X115150028Y-64678738D01*
X114996889Y-64576414D01*
X114826729Y-64505932D01*
X114646089Y-64470000D01*
X114461911Y-64470000D01*
X114429902Y-64476367D01*
X114365194Y-64423263D01*
X114254880Y-64364298D01*
X114135182Y-64327988D01*
X114010700Y-64315728D01*
X112010700Y-64315728D01*
X111886218Y-64327988D01*
X111766520Y-64364298D01*
X111656206Y-64423263D01*
X111559515Y-64502615D01*
X111480163Y-64599306D01*
X111421198Y-64709620D01*
X111384888Y-64829318D01*
X111372628Y-64953800D01*
X111372628Y-65613000D01*
X111304435Y-65613000D01*
X111315072Y-65505000D01*
X111315072Y-63709000D01*
X112725982Y-63709000D01*
X112767000Y-63713040D01*
X112808018Y-63709000D01*
X112808019Y-63709000D01*
X112930689Y-63696918D01*
X113088087Y-63649172D01*
X113233146Y-63571636D01*
X113360291Y-63467291D01*
X113386446Y-63435421D01*
X115546061Y-61275807D01*
X115677740Y-61302000D01*
X115970260Y-61302000D01*
X116257158Y-61244932D01*
X116527411Y-61132990D01*
X116770632Y-60970475D01*
X116977475Y-60763632D01*
X117094000Y-60589240D01*
X117210525Y-60763632D01*
X117417368Y-60970475D01*
X117660589Y-61132990D01*
X117930842Y-61244932D01*
X118217740Y-61302000D01*
X118510260Y-61302000D01*
X118797158Y-61244932D01*
X119067411Y-61132990D01*
X119310632Y-60970475D01*
X119517475Y-60763632D01*
X119634000Y-60589240D01*
X119750525Y-60763632D01*
X119957368Y-60970475D01*
X120200589Y-61132990D01*
X120470842Y-61244932D01*
X120757740Y-61302000D01*
X121050260Y-61302000D01*
X121337158Y-61244932D01*
X121607411Y-61132990D01*
X121850632Y-60970475D01*
X122057475Y-60763632D01*
X122174000Y-60589240D01*
X122290525Y-60763632D01*
X122497368Y-60970475D01*
X122740589Y-61132990D01*
X123010842Y-61244932D01*
X123297740Y-61302000D01*
X123590260Y-61302000D01*
X123877158Y-61244932D01*
X124147411Y-61132990D01*
X124390632Y-60970475D01*
X124597475Y-60763632D01*
X124759990Y-60520411D01*
X124871932Y-60250158D01*
X124929000Y-59963260D01*
X124929000Y-59670740D01*
X124871932Y-59383842D01*
X124759990Y-59113589D01*
X124597475Y-58870368D01*
X124390632Y-58663525D01*
X124147411Y-58501010D01*
X124012190Y-58445000D01*
X131158723Y-58445000D01*
X131284202Y-58457303D01*
G36*
X129429038Y-76182962D02*
G01*
X129563614Y-76293405D01*
X129717150Y-76375472D01*
X129883746Y-76426008D01*
X130057000Y-76443072D01*
X130797010Y-76443072D01*
X130797011Y-80637527D01*
X130737387Y-80588595D01*
X130603840Y-80517212D01*
X130626812Y-80441482D01*
X130639072Y-80317000D01*
X130639072Y-79417000D01*
X130626812Y-79292518D01*
X130590502Y-79172820D01*
X130531537Y-79062506D01*
X130452185Y-78965815D01*
X130355494Y-78886463D01*
X130245180Y-78827498D01*
X130125482Y-78791188D01*
X130001000Y-78778928D01*
X129489095Y-78778928D01*
X129502185Y-78768185D01*
X129581537Y-78671494D01*
X129640502Y-78561180D01*
X129676812Y-78441482D01*
X129689072Y-78317000D01*
X129689072Y-77417000D01*
X129676812Y-77292518D01*
X129640502Y-77172820D01*
X129581537Y-77062506D01*
X129502185Y-76965815D01*
X129405494Y-76886463D01*
X129365712Y-76865199D01*
X129423068Y-76726729D01*
X129459000Y-76546089D01*
X129459000Y-76361911D01*
X129423068Y-76181271D01*
X129418398Y-76169998D01*
X129429038Y-76182962D01*
G37*
X129429038Y-76182962D02*
X129563614Y-76293405D01*
X129717150Y-76375472D01*
X129883746Y-76426008D01*
X130057000Y-76443072D01*
X130797010Y-76443072D01*
X130797011Y-80637527D01*
X130737387Y-80588595D01*
X130603840Y-80517212D01*
X130626812Y-80441482D01*
X130639072Y-80317000D01*
X130639072Y-79417000D01*
X130626812Y-79292518D01*
X130590502Y-79172820D01*
X130531537Y-79062506D01*
X130452185Y-78965815D01*
X130355494Y-78886463D01*
X130245180Y-78827498D01*
X130125482Y-78791188D01*
X130001000Y-78778928D01*
X129489095Y-78778928D01*
X129502185Y-78768185D01*
X129581537Y-78671494D01*
X129640502Y-78561180D01*
X129676812Y-78441482D01*
X129689072Y-78317000D01*
X129689072Y-77417000D01*
X129676812Y-77292518D01*
X129640502Y-77172820D01*
X129581537Y-77062506D01*
X129502185Y-76965815D01*
X129405494Y-76886463D01*
X129365712Y-76865199D01*
X129423068Y-76726729D01*
X129459000Y-76546089D01*
X129459000Y-76361911D01*
X129423068Y-76181271D01*
X129418398Y-76169998D01*
X129429038Y-76182962D01*
G36*
X118619000Y-77327000D02*
G01*
X118639000Y-77327000D01*
X118639000Y-77581000D01*
X118619000Y-77581000D01*
X118619000Y-77601000D01*
X118365000Y-77601000D01*
X118365000Y-77581000D01*
X117215750Y-77581000D01*
X117213750Y-77583000D01*
X116586000Y-77583000D01*
X116586000Y-77603000D01*
X116332000Y-77603000D01*
X116332000Y-77583000D01*
X116312000Y-77583000D01*
X116312000Y-77329000D01*
X116332000Y-77329000D01*
X116332000Y-77309000D01*
X116586000Y-77309000D01*
X116586000Y-77329000D01*
X117410250Y-77329000D01*
X117412250Y-77327000D01*
X118365000Y-77327000D01*
X118365000Y-77307000D01*
X118619000Y-77307000D01*
X118619000Y-77327000D01*
G37*
X118619000Y-77327000D02*
X118639000Y-77327000D01*
X118639000Y-77581000D01*
X118619000Y-77581000D01*
X118619000Y-77601000D01*
X118365000Y-77601000D01*
X118365000Y-77581000D01*
X117215750Y-77581000D01*
X117213750Y-77583000D01*
X116586000Y-77583000D01*
X116586000Y-77603000D01*
X116332000Y-77603000D01*
X116332000Y-77583000D01*
X116312000Y-77583000D01*
X116312000Y-77329000D01*
X116332000Y-77329000D01*
X116332000Y-77309000D01*
X116586000Y-77309000D01*
X116586000Y-77329000D01*
X117410250Y-77329000D01*
X117412250Y-77327000D01*
X118365000Y-77327000D01*
X118365000Y-77307000D01*
X118619000Y-77307000D01*
X118619000Y-77327000D01*
G36*
X117847000Y-67310000D02*
G01*
X117867000Y-67310000D01*
X117867000Y-67564000D01*
X117847000Y-67564000D01*
X117847000Y-69596000D01*
X117867000Y-69596000D01*
X117867000Y-69850000D01*
X117847000Y-69850000D01*
X117847000Y-70899250D01*
X118005750Y-71058000D01*
X118295000Y-71061072D01*
X118419482Y-71048812D01*
X118539180Y-71012502D01*
X118649494Y-70953537D01*
X118746185Y-70874185D01*
X118811658Y-70794406D01*
X118817038Y-70800962D01*
X118951613Y-70911405D01*
X119105149Y-70993472D01*
X119271745Y-71044008D01*
X119444999Y-71061072D01*
X120095001Y-71061072D01*
X120268255Y-71044008D01*
X120434851Y-70993472D01*
X120588387Y-70911405D01*
X120646150Y-70864000D01*
X120993465Y-70864000D01*
X121096111Y-70932586D01*
X121266271Y-71003068D01*
X121446911Y-71039000D01*
X121533341Y-71039000D01*
X121554471Y-71103127D01*
X121616041Y-71212008D01*
X121697670Y-71306785D01*
X121796220Y-71383816D01*
X121907905Y-71440141D01*
X122028433Y-71473594D01*
X122153171Y-71482892D01*
X122188000Y-71480840D01*
X122188000Y-71742161D01*
X122201890Y-71883192D01*
X122256784Y-72064153D01*
X122345927Y-72230928D01*
X122465893Y-72377107D01*
X122547402Y-72444000D01*
X122138868Y-72444000D01*
X121142446Y-71447579D01*
X121116291Y-71415709D01*
X120989146Y-71311364D01*
X120844087Y-71233828D01*
X120686689Y-71186082D01*
X120564019Y-71174000D01*
X120564018Y-71174000D01*
X120523000Y-71169960D01*
X120481982Y-71174000D01*
X117566868Y-71174000D01*
X117478654Y-71085786D01*
X117457510Y-71034740D01*
X117593000Y-70899250D01*
X117593000Y-69850000D01*
X116668750Y-69850000D01*
X116510000Y-70008750D01*
X116506928Y-70423000D01*
X116508504Y-70439000D01*
X116493911Y-70439000D01*
X116405000Y-70456686D01*
X116405000Y-67782867D01*
X116623865Y-67564002D01*
X116668748Y-67564002D01*
X116510000Y-67722750D01*
X116506928Y-68137000D01*
X116519188Y-68261482D01*
X116555498Y-68381180D01*
X116614463Y-68491494D01*
X116687098Y-68580000D01*
X116614463Y-68668506D01*
X116555498Y-68778820D01*
X116519188Y-68898518D01*
X116506928Y-69023000D01*
X116510000Y-69437250D01*
X116668750Y-69596000D01*
X117593000Y-69596000D01*
X117593000Y-67564000D01*
X117573000Y-67564000D01*
X117573000Y-67310000D01*
X117593000Y-67310000D01*
X117593000Y-67290000D01*
X117847000Y-67290000D01*
X117847000Y-67310000D01*
G37*
X117847000Y-67310000D02*
X117867000Y-67310000D01*
X117867000Y-67564000D01*
X117847000Y-67564000D01*
X117847000Y-69596000D01*
X117867000Y-69596000D01*
X117867000Y-69850000D01*
X117847000Y-69850000D01*
X117847000Y-70899250D01*
X118005750Y-71058000D01*
X118295000Y-71061072D01*
X118419482Y-71048812D01*
X118539180Y-71012502D01*
X118649494Y-70953537D01*
X118746185Y-70874185D01*
X118811658Y-70794406D01*
X118817038Y-70800962D01*
X118951613Y-70911405D01*
X119105149Y-70993472D01*
X119271745Y-71044008D01*
X119444999Y-71061072D01*
X120095001Y-71061072D01*
X120268255Y-71044008D01*
X120434851Y-70993472D01*
X120588387Y-70911405D01*
X120646150Y-70864000D01*
X120993465Y-70864000D01*
X121096111Y-70932586D01*
X121266271Y-71003068D01*
X121446911Y-71039000D01*
X121533341Y-71039000D01*
X121554471Y-71103127D01*
X121616041Y-71212008D01*
X121697670Y-71306785D01*
X121796220Y-71383816D01*
X121907905Y-71440141D01*
X122028433Y-71473594D01*
X122153171Y-71482892D01*
X122188000Y-71480840D01*
X122188000Y-71742161D01*
X122201890Y-71883192D01*
X122256784Y-72064153D01*
X122345927Y-72230928D01*
X122465893Y-72377107D01*
X122547402Y-72444000D01*
X122138868Y-72444000D01*
X121142446Y-71447579D01*
X121116291Y-71415709D01*
X120989146Y-71311364D01*
X120844087Y-71233828D01*
X120686689Y-71186082D01*
X120564019Y-71174000D01*
X120564018Y-71174000D01*
X120523000Y-71169960D01*
X120481982Y-71174000D01*
X117566868Y-71174000D01*
X117478654Y-71085786D01*
X117457510Y-71034740D01*
X117593000Y-70899250D01*
X117593000Y-69850000D01*
X116668750Y-69850000D01*
X116510000Y-70008750D01*
X116506928Y-70423000D01*
X116508504Y-70439000D01*
X116493911Y-70439000D01*
X116405000Y-70456686D01*
X116405000Y-67782867D01*
X116623865Y-67564002D01*
X116668748Y-67564002D01*
X116510000Y-67722750D01*
X116506928Y-68137000D01*
X116519188Y-68261482D01*
X116555498Y-68381180D01*
X116614463Y-68491494D01*
X116687098Y-68580000D01*
X116614463Y-68668506D01*
X116555498Y-68778820D01*
X116519188Y-68898518D01*
X116506928Y-69023000D01*
X116510000Y-69437250D01*
X116668750Y-69596000D01*
X117593000Y-69596000D01*
X117593000Y-67564000D01*
X117573000Y-67564000D01*
X117573000Y-67310000D01*
X117593000Y-67310000D01*
X117593000Y-67290000D01*
X117847000Y-67290000D01*
X117847000Y-67310000D01*
%TD*%
M02*
