M48
; DRILL file {KiCad (5.1.6)-1} date 08/27/20 20:14:35
; FORMAT={-:-/ absolute / metric / decimal}
; #@! TF.CreationDate,2020-08-27T20:14:35+02:00
; #@! TF.GenerationSoftware,Kicad,Pcbnew,(5.1.6)-1
; #@! TF.FileFunction,Plated,1,2,PTH
FMAT,2
METRIC
T1C0.300
T2C0.400
T3C0.500
T4C0.650
T5C1.000
%
G90
G05
T1
X91.862Y-84.503
X92.71Y-69.98
X93.574Y-71.323
X93.98Y-69.85
X94.361Y-66.675
X98.171Y-69.215
X98.679Y-66.548
X99.314Y-78.232
X105.918Y-62.738
X105.918Y-82.169
X106.807Y-67.183
X108.585Y-66.548
X108.864Y-76.835
X108.871Y-77.705
X110.49Y-70.993
X110.617Y-75.565
X110.617Y-78.38
X110.744Y-67.945
X110.744Y-69.215
X110.744Y-84.455
X111.126Y-73.024
X111.252Y-70.483
X111.379Y-66.548
X112.395Y-82.804
X112.395Y-84.328
X114.427Y-88.9
X114.554Y-65.405
X114.554Y-77.597
X115.633Y-83.248
X115.697Y-84.709
X116.332Y-72.39
X116.586Y-71.374
X117.221Y-83.439
X118.364Y-88.9
X119.634Y-76.581
X119.634Y-88.9
X119.761Y-79.121
X120.142Y-80.137
X120.142Y-83.82
X120.468Y-66.222
X120.777Y-71.247
X121.285Y-69.215
X121.412Y-68.072
X121.539Y-70.104
X125.603Y-78.74
X125.73Y-74.93
X126.619Y-67.818
X127.127Y-78.486
X127.889Y-73.279
X128.524Y-76.454
X128.778Y-84.836
X129.603Y-67.882
X130.556Y-73.406
X130.81Y-80.264
X131.699Y-84.582
T2
X93.574Y-72.898
X123.798Y-65.145
X123.798Y-66.745
X123.798Y-67.545
X123.798Y-68.345
X123.798Y-69.145
X123.798Y-70.745
X124.498Y-65.545
X124.498Y-66.345
X124.498Y-67.145
X124.498Y-68.745
X124.498Y-69.545
X124.498Y-70.345
T4
X93.447Y-75.159
X93.447Y-76.429
X101.473Y-62.103
X102.743Y-62.103
X104.013Y-62.103
T5
X90.424Y-59.817
X92.964Y-59.817
X95.504Y-59.817
X98.044Y-59.817
X100.584Y-59.817
X103.124Y-59.817
X105.664Y-59.817
X108.204Y-59.817
X110.744Y-59.817
X113.284Y-59.817
X115.824Y-59.817
X118.364Y-59.817
X120.904Y-59.817
X123.444Y-59.817
X89.715Y-79.573
X89.715Y-82.113
X89.715Y-84.653
X89.715Y-87.193
X89.715Y-89.733
X89.662Y-64.262
X89.662Y-66.802
X89.662Y-69.342
X89.662Y-71.882
X89.662Y-74.422
X89.662Y-76.962
T3
G00X124.698Y-63.815
M15
G01X124.098Y-63.815
M16
G05
G00X124.698Y-72.075
M15
G01X124.098Y-72.075
M16
G05
G00X130.648Y-63.455
M15
G01X130.048Y-63.455
M16
G05
G00X130.648Y-72.435
M15
G01X130.048Y-72.435
M16
G05
T0
M30
