%TF.GenerationSoftware,KiCad,Pcbnew,(5.1.6)-1*%
%TF.CreationDate,2020-08-27T20:14:34+02:00*%
%TF.ProjectId,ESP32_TFT_Board,45535033-325f-4544-9654-5f426f617264,rev?*%
%TF.SameCoordinates,Original*%
%TF.FileFunction,Soldermask,Bot*%
%TF.FilePolarity,Negative*%
%FSLAX46Y46*%
G04 Gerber Fmt 4.6, Leading zero omitted, Abs format (unit mm)*
G04 Created by KiCad (PCBNEW (5.1.6)-1) date 2020-08-27 20:14:34*
%MOMM*%
%LPD*%
G01*
G04 APERTURE LIST*
%ADD10O,1.100000X1.100000*%
%ADD11R,1.100000X1.100000*%
%ADD12O,1.800000X1.800000*%
%ADD13R,1.800000X1.800000*%
%ADD14R,1.700000X1.400000*%
%ADD15R,5.100000X5.100000*%
%ADD16R,2.100000X1.000000*%
%ADD17R,1.000000X2.100000*%
%ADD18R,0.900000X1.000000*%
%ADD19C,0.750000*%
%ADD20O,0.750000X1.050000*%
%ADD21O,1.500000X0.900000*%
%ADD22R,0.800000X0.400000*%
G04 APERTURE END LIST*
D10*
%TO.C,J7*%
X93446600Y-76428600D03*
D11*
X93446600Y-75158600D03*
%TD*%
D12*
%TO.C,J5*%
X89715340Y-89733120D03*
X89715340Y-87193120D03*
X89715340Y-84653120D03*
X89715340Y-82113120D03*
D13*
X89715340Y-79573120D03*
%TD*%
D12*
%TO.C,J4*%
X89662000Y-76962000D03*
X89662000Y-74422000D03*
X89662000Y-71882000D03*
X89662000Y-69342000D03*
X89662000Y-66802000D03*
D13*
X89662000Y-64262000D03*
%TD*%
D10*
%TO.C,J6*%
X101473000Y-62103000D03*
X102743000Y-62103000D03*
D11*
X104013000Y-62103000D03*
%TD*%
D14*
%TO.C,Y1*%
X121792000Y-75454000D03*
X118492000Y-75454000D03*
X118492000Y-77454000D03*
X121792000Y-77454000D03*
%TD*%
D15*
%TO.C,U3*%
X103514180Y-73969370D03*
D16*
X113010700Y-65403800D03*
X113011000Y-66676500D03*
X113013000Y-67944200D03*
X113011400Y-69213200D03*
X113009500Y-70482700D03*
X113011300Y-71753900D03*
X113013900Y-73023670D03*
X113012500Y-74292670D03*
X113012000Y-75565000D03*
X113012000Y-76835000D03*
X113012000Y-78105000D03*
X113012000Y-79375000D03*
X113012000Y-80645000D03*
X113012000Y-81915000D03*
D17*
X110227000Y-64505000D03*
X108957000Y-64505000D03*
X107687000Y-64505000D03*
X106417000Y-64505000D03*
X105147000Y-64505000D03*
X103877000Y-64505000D03*
X102607000Y-64505000D03*
X101337000Y-64505000D03*
X100067000Y-64505000D03*
X98797000Y-64505000D03*
D16*
X96012000Y-65405000D03*
X96012000Y-66675000D03*
X96012000Y-67945000D03*
X96012000Y-69215000D03*
X96012000Y-70485000D03*
X96012000Y-71755000D03*
X96012000Y-73025000D03*
X96012000Y-74295000D03*
X96012000Y-75565000D03*
X96012000Y-76835000D03*
X96012000Y-78075000D03*
X96002000Y-79375000D03*
X96012000Y-80645000D03*
X96012000Y-81915000D03*
%TD*%
%TO.C,U2*%
G36*
G01*
X115649000Y-85651000D02*
X115999000Y-85651000D01*
G75*
G02*
X116174000Y-85826000I0J-175000D01*
G01*
X116174000Y-87526000D01*
G75*
G02*
X115999000Y-87701000I-175000J0D01*
G01*
X115649000Y-87701000D01*
G75*
G02*
X115474000Y-87526000I0J175000D01*
G01*
X115474000Y-85826000D01*
G75*
G02*
X115649000Y-85651000I175000J0D01*
G01*
G37*
G36*
G01*
X116919000Y-85651000D02*
X117269000Y-85651000D01*
G75*
G02*
X117444000Y-85826000I0J-175000D01*
G01*
X117444000Y-87526000D01*
G75*
G02*
X117269000Y-87701000I-175000J0D01*
G01*
X116919000Y-87701000D01*
G75*
G02*
X116744000Y-87526000I0J175000D01*
G01*
X116744000Y-85826000D01*
G75*
G02*
X116919000Y-85651000I175000J0D01*
G01*
G37*
G36*
G01*
X118189000Y-85651000D02*
X118539000Y-85651000D01*
G75*
G02*
X118714000Y-85826000I0J-175000D01*
G01*
X118714000Y-87526000D01*
G75*
G02*
X118539000Y-87701000I-175000J0D01*
G01*
X118189000Y-87701000D01*
G75*
G02*
X118014000Y-87526000I0J175000D01*
G01*
X118014000Y-85826000D01*
G75*
G02*
X118189000Y-85651000I175000J0D01*
G01*
G37*
G36*
G01*
X119459000Y-85651000D02*
X119809000Y-85651000D01*
G75*
G02*
X119984000Y-85826000I0J-175000D01*
G01*
X119984000Y-87526000D01*
G75*
G02*
X119809000Y-87701000I-175000J0D01*
G01*
X119459000Y-87701000D01*
G75*
G02*
X119284000Y-87526000I0J175000D01*
G01*
X119284000Y-85826000D01*
G75*
G02*
X119459000Y-85651000I175000J0D01*
G01*
G37*
G36*
G01*
X120729000Y-85651000D02*
X121079000Y-85651000D01*
G75*
G02*
X121254000Y-85826000I0J-175000D01*
G01*
X121254000Y-87526000D01*
G75*
G02*
X121079000Y-87701000I-175000J0D01*
G01*
X120729000Y-87701000D01*
G75*
G02*
X120554000Y-87526000I0J175000D01*
G01*
X120554000Y-85826000D01*
G75*
G02*
X120729000Y-85651000I175000J0D01*
G01*
G37*
G36*
G01*
X121999000Y-85651000D02*
X122349000Y-85651000D01*
G75*
G02*
X122524000Y-85826000I0J-175000D01*
G01*
X122524000Y-87526000D01*
G75*
G02*
X122349000Y-87701000I-175000J0D01*
G01*
X121999000Y-87701000D01*
G75*
G02*
X121824000Y-87526000I0J175000D01*
G01*
X121824000Y-85826000D01*
G75*
G02*
X121999000Y-85651000I175000J0D01*
G01*
G37*
G36*
G01*
X123269000Y-85651000D02*
X123619000Y-85651000D01*
G75*
G02*
X123794000Y-85826000I0J-175000D01*
G01*
X123794000Y-87526000D01*
G75*
G02*
X123619000Y-87701000I-175000J0D01*
G01*
X123269000Y-87701000D01*
G75*
G02*
X123094000Y-87526000I0J175000D01*
G01*
X123094000Y-85826000D01*
G75*
G02*
X123269000Y-85651000I175000J0D01*
G01*
G37*
G36*
G01*
X124539000Y-85651000D02*
X124889000Y-85651000D01*
G75*
G02*
X125064000Y-85826000I0J-175000D01*
G01*
X125064000Y-87526000D01*
G75*
G02*
X124889000Y-87701000I-175000J0D01*
G01*
X124539000Y-87701000D01*
G75*
G02*
X124364000Y-87526000I0J175000D01*
G01*
X124364000Y-85826000D01*
G75*
G02*
X124539000Y-85651000I175000J0D01*
G01*
G37*
G36*
G01*
X124539000Y-80701000D02*
X124889000Y-80701000D01*
G75*
G02*
X125064000Y-80876000I0J-175000D01*
G01*
X125064000Y-82576000D01*
G75*
G02*
X124889000Y-82751000I-175000J0D01*
G01*
X124539000Y-82751000D01*
G75*
G02*
X124364000Y-82576000I0J175000D01*
G01*
X124364000Y-80876000D01*
G75*
G02*
X124539000Y-80701000I175000J0D01*
G01*
G37*
G36*
G01*
X123269000Y-80701000D02*
X123619000Y-80701000D01*
G75*
G02*
X123794000Y-80876000I0J-175000D01*
G01*
X123794000Y-82576000D01*
G75*
G02*
X123619000Y-82751000I-175000J0D01*
G01*
X123269000Y-82751000D01*
G75*
G02*
X123094000Y-82576000I0J175000D01*
G01*
X123094000Y-80876000D01*
G75*
G02*
X123269000Y-80701000I175000J0D01*
G01*
G37*
G36*
G01*
X121999000Y-80701000D02*
X122349000Y-80701000D01*
G75*
G02*
X122524000Y-80876000I0J-175000D01*
G01*
X122524000Y-82576000D01*
G75*
G02*
X122349000Y-82751000I-175000J0D01*
G01*
X121999000Y-82751000D01*
G75*
G02*
X121824000Y-82576000I0J175000D01*
G01*
X121824000Y-80876000D01*
G75*
G02*
X121999000Y-80701000I175000J0D01*
G01*
G37*
G36*
G01*
X120729000Y-80701000D02*
X121079000Y-80701000D01*
G75*
G02*
X121254000Y-80876000I0J-175000D01*
G01*
X121254000Y-82576000D01*
G75*
G02*
X121079000Y-82751000I-175000J0D01*
G01*
X120729000Y-82751000D01*
G75*
G02*
X120554000Y-82576000I0J175000D01*
G01*
X120554000Y-80876000D01*
G75*
G02*
X120729000Y-80701000I175000J0D01*
G01*
G37*
G36*
G01*
X119459000Y-80701000D02*
X119809000Y-80701000D01*
G75*
G02*
X119984000Y-80876000I0J-175000D01*
G01*
X119984000Y-82576000D01*
G75*
G02*
X119809000Y-82751000I-175000J0D01*
G01*
X119459000Y-82751000D01*
G75*
G02*
X119284000Y-82576000I0J175000D01*
G01*
X119284000Y-80876000D01*
G75*
G02*
X119459000Y-80701000I175000J0D01*
G01*
G37*
G36*
G01*
X118189000Y-80701000D02*
X118539000Y-80701000D01*
G75*
G02*
X118714000Y-80876000I0J-175000D01*
G01*
X118714000Y-82576000D01*
G75*
G02*
X118539000Y-82751000I-175000J0D01*
G01*
X118189000Y-82751000D01*
G75*
G02*
X118014000Y-82576000I0J175000D01*
G01*
X118014000Y-80876000D01*
G75*
G02*
X118189000Y-80701000I175000J0D01*
G01*
G37*
G36*
G01*
X116919000Y-80701000D02*
X117269000Y-80701000D01*
G75*
G02*
X117444000Y-80876000I0J-175000D01*
G01*
X117444000Y-82576000D01*
G75*
G02*
X117269000Y-82751000I-175000J0D01*
G01*
X116919000Y-82751000D01*
G75*
G02*
X116744000Y-82576000I0J175000D01*
G01*
X116744000Y-80876000D01*
G75*
G02*
X116919000Y-80701000I175000J0D01*
G01*
G37*
G36*
G01*
X115649000Y-80701000D02*
X115999000Y-80701000D01*
G75*
G02*
X116174000Y-80876000I0J-175000D01*
G01*
X116174000Y-82576000D01*
G75*
G02*
X115999000Y-82751000I-175000J0D01*
G01*
X115649000Y-82751000D01*
G75*
G02*
X115474000Y-82576000I0J175000D01*
G01*
X115474000Y-80876000D01*
G75*
G02*
X115649000Y-80701000I175000J0D01*
G01*
G37*
%TD*%
%TO.C,R4*%
G36*
G01*
X129315738Y-83077000D02*
X130272262Y-83077000D01*
G75*
G02*
X130544000Y-83348738I0J-271738D01*
G01*
X130544000Y-84055262D01*
G75*
G02*
X130272262Y-84327000I-271738J0D01*
G01*
X129315738Y-84327000D01*
G75*
G02*
X129044000Y-84055262I0J271738D01*
G01*
X129044000Y-83348738D01*
G75*
G02*
X129315738Y-83077000I271738J0D01*
G01*
G37*
G36*
G01*
X129315738Y-81027000D02*
X130272262Y-81027000D01*
G75*
G02*
X130544000Y-81298738I0J-271738D01*
G01*
X130544000Y-82005262D01*
G75*
G02*
X130272262Y-82277000I-271738J0D01*
G01*
X129315738Y-82277000D01*
G75*
G02*
X129044000Y-82005262I0J271738D01*
G01*
X129044000Y-81298738D01*
G75*
G02*
X129315738Y-81027000I271738J0D01*
G01*
G37*
%TD*%
%TO.C,R3*%
G36*
G01*
X128240262Y-82277000D02*
X127283738Y-82277000D01*
G75*
G02*
X127012000Y-82005262I0J271738D01*
G01*
X127012000Y-81298738D01*
G75*
G02*
X127283738Y-81027000I271738J0D01*
G01*
X128240262Y-81027000D01*
G75*
G02*
X128512000Y-81298738I0J-271738D01*
G01*
X128512000Y-82005262D01*
G75*
G02*
X128240262Y-82277000I-271738J0D01*
G01*
G37*
G36*
G01*
X128240262Y-84327000D02*
X127283738Y-84327000D01*
G75*
G02*
X127012000Y-84055262I0J271738D01*
G01*
X127012000Y-83348738D01*
G75*
G02*
X127283738Y-83077000I271738J0D01*
G01*
X128240262Y-83077000D01*
G75*
G02*
X128512000Y-83348738I0J-271738D01*
G01*
X128512000Y-84055262D01*
G75*
G02*
X128240262Y-84327000I-271738J0D01*
G01*
G37*
%TD*%
%TO.C,R2*%
G36*
G01*
X119145000Y-70201262D02*
X119145000Y-69244738D01*
G75*
G02*
X119416738Y-68973000I271738J0D01*
G01*
X120123262Y-68973000D01*
G75*
G02*
X120395000Y-69244738I0J-271738D01*
G01*
X120395000Y-70201262D01*
G75*
G02*
X120123262Y-70473000I-271738J0D01*
G01*
X119416738Y-70473000D01*
G75*
G02*
X119145000Y-70201262I0J271738D01*
G01*
G37*
G36*
G01*
X117095000Y-70201262D02*
X117095000Y-69244738D01*
G75*
G02*
X117366738Y-68973000I271738J0D01*
G01*
X118073262Y-68973000D01*
G75*
G02*
X118345000Y-69244738I0J-271738D01*
G01*
X118345000Y-70201262D01*
G75*
G02*
X118073262Y-70473000I-271738J0D01*
G01*
X117366738Y-70473000D01*
G75*
G02*
X117095000Y-70201262I0J271738D01*
G01*
G37*
%TD*%
%TO.C,R1*%
G36*
G01*
X119145000Y-67915262D02*
X119145000Y-66958738D01*
G75*
G02*
X119416738Y-66687000I271738J0D01*
G01*
X120123262Y-66687000D01*
G75*
G02*
X120395000Y-66958738I0J-271738D01*
G01*
X120395000Y-67915262D01*
G75*
G02*
X120123262Y-68187000I-271738J0D01*
G01*
X119416738Y-68187000D01*
G75*
G02*
X119145000Y-67915262I0J271738D01*
G01*
G37*
G36*
G01*
X117095000Y-67915262D02*
X117095000Y-66958738D01*
G75*
G02*
X117366738Y-66687000I271738J0D01*
G01*
X118073262Y-66687000D01*
G75*
G02*
X118345000Y-66958738I0J-271738D01*
G01*
X118345000Y-67915262D01*
G75*
G02*
X118073262Y-68187000I-271738J0D01*
G01*
X117366738Y-68187000D01*
G75*
G02*
X117095000Y-67915262I0J271738D01*
G01*
G37*
%TD*%
D18*
%TO.C,Q2*%
X128651000Y-77867000D03*
X127701000Y-79867000D03*
X129601000Y-79867000D03*
%TD*%
%TO.C,Q1*%
X128905000Y-87614000D03*
X129855000Y-85614000D03*
X127955000Y-85614000D03*
%TD*%
D13*
%TO.C,J3*%
X90424000Y-59817000D03*
D12*
X92964000Y-59817000D03*
X95504000Y-59817000D03*
X98044000Y-59817000D03*
X100584000Y-59817000D03*
X103124000Y-59817000D03*
X105664000Y-59817000D03*
X108204000Y-59817000D03*
X110744000Y-59817000D03*
X113284000Y-59817000D03*
X115824000Y-59817000D03*
X118364000Y-59817000D03*
X120904000Y-59817000D03*
X123444000Y-59817000D03*
%TD*%
D19*
%TO.C,J1*%
X124498000Y-65545000D03*
X124498000Y-66345000D03*
X124498000Y-67145000D03*
X124498000Y-68745000D03*
X124498000Y-69545000D03*
X124498000Y-70345000D03*
X123798000Y-65145000D03*
X123798000Y-66745000D03*
X123798000Y-67545000D03*
X123798000Y-68345000D03*
X123798000Y-69145000D03*
X123798000Y-70745000D03*
X123148000Y-64345000D03*
D20*
X123148000Y-71545000D03*
D21*
X130348000Y-63455000D03*
X130348000Y-72435000D03*
X124398000Y-72075000D03*
D22*
X122488000Y-70195000D03*
X122488000Y-68695000D03*
X122488000Y-69195000D03*
X122488000Y-69695000D03*
X122488000Y-70695000D03*
X122488000Y-68195000D03*
X122488000Y-67695000D03*
X122488000Y-67195000D03*
X122488000Y-66695000D03*
X122488000Y-66195000D03*
X122488000Y-65695000D03*
X122488000Y-65195000D03*
D21*
X124398000Y-63815000D03*
%TD*%
%TO.C,D1*%
G36*
G01*
X119470000Y-65679000D02*
X119470000Y-64369000D01*
G75*
G02*
X119740000Y-64099000I270000J0D01*
G01*
X120550000Y-64099000D01*
G75*
G02*
X120820000Y-64369000I0J-270000D01*
G01*
X120820000Y-65679000D01*
G75*
G02*
X120550000Y-65949000I-270000J0D01*
G01*
X119740000Y-65949000D01*
G75*
G02*
X119470000Y-65679000I0J270000D01*
G01*
G37*
G36*
G01*
X116670000Y-65679000D02*
X116670000Y-64369000D01*
G75*
G02*
X116940000Y-64099000I270000J0D01*
G01*
X117750000Y-64099000D01*
G75*
G02*
X118020000Y-64369000I0J-270000D01*
G01*
X118020000Y-65679000D01*
G75*
G02*
X117750000Y-65949000I-270000J0D01*
G01*
X116940000Y-65949000D01*
G75*
G02*
X116670000Y-65679000I0J270000D01*
G01*
G37*
%TD*%
%TO.C,C5*%
G36*
G01*
X128307000Y-74272544D02*
X128307000Y-75587456D01*
G75*
G02*
X128039456Y-75855000I-267544J0D01*
G01*
X127049544Y-75855000D01*
G75*
G02*
X126782000Y-75587456I0J267544D01*
G01*
X126782000Y-74272544D01*
G75*
G02*
X127049544Y-74005000I267544J0D01*
G01*
X128039456Y-74005000D01*
G75*
G02*
X128307000Y-74272544I0J-267544D01*
G01*
G37*
G36*
G01*
X131282000Y-74272544D02*
X131282000Y-75587456D01*
G75*
G02*
X131014456Y-75855000I-267544J0D01*
G01*
X130024544Y-75855000D01*
G75*
G02*
X129757000Y-75587456I0J267544D01*
G01*
X129757000Y-74272544D01*
G75*
G02*
X130024544Y-74005000I267544J0D01*
G01*
X131014456Y-74005000D01*
G75*
G02*
X131282000Y-74272544I0J-267544D01*
G01*
G37*
%TD*%
%TO.C,C3*%
G36*
G01*
X116196500Y-76881000D02*
X116721500Y-76881000D01*
G75*
G02*
X116984000Y-77143500I0J-262500D01*
G01*
X116984000Y-77768500D01*
G75*
G02*
X116721500Y-78031000I-262500J0D01*
G01*
X116196500Y-78031000D01*
G75*
G02*
X115934000Y-77768500I0J262500D01*
G01*
X115934000Y-77143500D01*
G75*
G02*
X116196500Y-76881000I262500J0D01*
G01*
G37*
G36*
G01*
X116196500Y-75131000D02*
X116721500Y-75131000D01*
G75*
G02*
X116984000Y-75393500I0J-262500D01*
G01*
X116984000Y-76018500D01*
G75*
G02*
X116721500Y-76281000I-262500J0D01*
G01*
X116196500Y-76281000D01*
G75*
G02*
X115934000Y-76018500I0J262500D01*
G01*
X115934000Y-75393500D01*
G75*
G02*
X116196500Y-75131000I262500J0D01*
G01*
G37*
%TD*%
%TO.C,C2*%
G36*
G01*
X124341500Y-76281000D02*
X123816500Y-76281000D01*
G75*
G02*
X123554000Y-76018500I0J262500D01*
G01*
X123554000Y-75393500D01*
G75*
G02*
X123816500Y-75131000I262500J0D01*
G01*
X124341500Y-75131000D01*
G75*
G02*
X124604000Y-75393500I0J-262500D01*
G01*
X124604000Y-76018500D01*
G75*
G02*
X124341500Y-76281000I-262500J0D01*
G01*
G37*
G36*
G01*
X124341500Y-78031000D02*
X123816500Y-78031000D01*
G75*
G02*
X123554000Y-77768500I0J262500D01*
G01*
X123554000Y-77143500D01*
G75*
G02*
X123816500Y-76881000I262500J0D01*
G01*
X124341500Y-76881000D01*
G75*
G02*
X124604000Y-77143500I0J-262500D01*
G01*
X124604000Y-77768500D01*
G75*
G02*
X124341500Y-78031000I-262500J0D01*
G01*
G37*
%TD*%
M02*
