%TF.GenerationSoftware,KiCad,Pcbnew,(5.1.6)-1*%
%TF.CreationDate,2020-08-27T20:14:33+02:00*%
%TF.ProjectId,ESP32_TFT_Board,45535033-325f-4544-9654-5f426f617264,rev?*%
%TF.SameCoordinates,Original*%
%TF.FileFunction,Paste,Top*%
%TF.FilePolarity,Positive*%
%FSLAX46Y46*%
G04 Gerber Fmt 4.6, Leading zero omitted, Abs format (unit mm)*
G04 Created by KiCad (PCBNEW (5.1.6)-1) date 2020-08-27 20:14:33*
%MOMM*%
%LPD*%
G01*
G04 APERTURE LIST*
%ADD10R,1.500000X1.500000*%
%ADD11R,1.500000X2.000000*%
%ADD12R,2.000000X1.500000*%
%ADD13R,2.000000X3.800000*%
%ADD14R,1.100000X1.050000*%
%ADD15R,2.250000X1.100000*%
G04 APERTURE END LIST*
%TO.C,R6*%
G36*
G01*
X116147001Y-68511000D02*
X115246999Y-68511000D01*
G75*
G02*
X114997000Y-68261001I0J249999D01*
G01*
X114997000Y-67610999D01*
G75*
G02*
X115246999Y-67361000I249999J0D01*
G01*
X116147001Y-67361000D01*
G75*
G02*
X116397000Y-67610999I0J-249999D01*
G01*
X116397000Y-68261001D01*
G75*
G02*
X116147001Y-68511000I-249999J0D01*
G01*
G37*
G36*
G01*
X116147001Y-70561000D02*
X115246999Y-70561000D01*
G75*
G02*
X114997000Y-70311001I0J249999D01*
G01*
X114997000Y-69660999D01*
G75*
G02*
X115246999Y-69411000I249999J0D01*
G01*
X116147001Y-69411000D01*
G75*
G02*
X116397000Y-69660999I0J-249999D01*
G01*
X116397000Y-70311001D01*
G75*
G02*
X116147001Y-70561000I-249999J0D01*
G01*
G37*
%TD*%
D10*
%TO.C,SW2*%
X130646000Y-86360000D03*
X122846000Y-86360000D03*
%TD*%
%TO.C,SW1*%
X119978000Y-86360000D03*
X112178000Y-86360000D03*
%TD*%
D11*
%TO.C,U4*%
X111902000Y-64517000D03*
X109902000Y-64517000D03*
X107902000Y-64517000D03*
X105902000Y-64517000D03*
X103902000Y-64517000D03*
X101902000Y-64517000D03*
X99902000Y-64517000D03*
X97902000Y-64517000D03*
X97902000Y-80517000D03*
X99902000Y-80517000D03*
X101902000Y-80517000D03*
X103902000Y-80517000D03*
X105902000Y-80517000D03*
X107902000Y-80517000D03*
X109902000Y-80517000D03*
X111902000Y-80517000D03*
%TD*%
D12*
%TO.C,U1*%
X123850000Y-75297000D03*
X123850000Y-79897000D03*
X123850000Y-77597000D03*
D13*
X130150000Y-77597000D03*
%TD*%
%TO.C,R10*%
G36*
G01*
X119830001Y-68257000D02*
X118929999Y-68257000D01*
G75*
G02*
X118680000Y-68007001I0J249999D01*
G01*
X118680000Y-67356999D01*
G75*
G02*
X118929999Y-67107000I249999J0D01*
G01*
X119830001Y-67107000D01*
G75*
G02*
X120080000Y-67356999I0J-249999D01*
G01*
X120080000Y-68007001D01*
G75*
G02*
X119830001Y-68257000I-249999J0D01*
G01*
G37*
G36*
G01*
X119830001Y-70307000D02*
X118929999Y-70307000D01*
G75*
G02*
X118680000Y-70057001I0J249999D01*
G01*
X118680000Y-69406999D01*
G75*
G02*
X118929999Y-69157000I249999J0D01*
G01*
X119830001Y-69157000D01*
G75*
G02*
X120080000Y-69406999I0J-249999D01*
G01*
X120080000Y-70057001D01*
G75*
G02*
X119830001Y-70307000I-249999J0D01*
G01*
G37*
%TD*%
%TO.C,R8*%
G36*
G01*
X115385001Y-73083000D02*
X114484999Y-73083000D01*
G75*
G02*
X114235000Y-72833001I0J249999D01*
G01*
X114235000Y-72182999D01*
G75*
G02*
X114484999Y-71933000I249999J0D01*
G01*
X115385001Y-71933000D01*
G75*
G02*
X115635000Y-72182999I0J-249999D01*
G01*
X115635000Y-72833001D01*
G75*
G02*
X115385001Y-73083000I-249999J0D01*
G01*
G37*
G36*
G01*
X115385001Y-75133000D02*
X114484999Y-75133000D01*
G75*
G02*
X114235000Y-74883001I0J249999D01*
G01*
X114235000Y-74232999D01*
G75*
G02*
X114484999Y-73983000I249999J0D01*
G01*
X115385001Y-73983000D01*
G75*
G02*
X115635000Y-74232999I0J-249999D01*
G01*
X115635000Y-74883001D01*
G75*
G02*
X115385001Y-75133000I-249999J0D01*
G01*
G37*
%TD*%
%TO.C,R7*%
G36*
G01*
X116889000Y-80956999D02*
X116889000Y-81857001D01*
G75*
G02*
X116639001Y-82107000I-249999J0D01*
G01*
X115988999Y-82107000D01*
G75*
G02*
X115739000Y-81857001I0J249999D01*
G01*
X115739000Y-80956999D01*
G75*
G02*
X115988999Y-80707000I249999J0D01*
G01*
X116639001Y-80707000D01*
G75*
G02*
X116889000Y-80956999I0J-249999D01*
G01*
G37*
G36*
G01*
X118939000Y-80956999D02*
X118939000Y-81857001D01*
G75*
G02*
X118689001Y-82107000I-249999J0D01*
G01*
X118038999Y-82107000D01*
G75*
G02*
X117789000Y-81857001I0J249999D01*
G01*
X117789000Y-80956999D01*
G75*
G02*
X118038999Y-80707000I249999J0D01*
G01*
X118689001Y-80707000D01*
G75*
G02*
X118939000Y-80956999I0J-249999D01*
G01*
G37*
%TD*%
%TO.C,R5*%
G36*
G01*
X117798000Y-79825001D02*
X117798000Y-78924999D01*
G75*
G02*
X118047999Y-78675000I249999J0D01*
G01*
X118698001Y-78675000D01*
G75*
G02*
X118948000Y-78924999I0J-249999D01*
G01*
X118948000Y-79825001D01*
G75*
G02*
X118698001Y-80075000I-249999J0D01*
G01*
X118047999Y-80075000D01*
G75*
G02*
X117798000Y-79825001I0J249999D01*
G01*
G37*
G36*
G01*
X115748000Y-79825001D02*
X115748000Y-78924999D01*
G75*
G02*
X115997999Y-78675000I249999J0D01*
G01*
X116648001Y-78675000D01*
G75*
G02*
X116898000Y-78924999I0J-249999D01*
G01*
X116898000Y-79825001D01*
G75*
G02*
X116648001Y-80075000I-249999J0D01*
G01*
X115997999Y-80075000D01*
G75*
G02*
X115748000Y-79825001I0J249999D01*
G01*
G37*
%TD*%
D14*
%TO.C,J2*%
X94895000Y-80518000D03*
D15*
X93345000Y-79043000D03*
X93345000Y-81993000D03*
%TD*%
%TO.C,D2*%
G36*
G01*
X118628000Y-72323000D02*
X118628000Y-73473000D01*
G75*
G02*
X118378000Y-73723000I-250000J0D01*
G01*
X117278000Y-73723000D01*
G75*
G02*
X117028000Y-73473000I0J250000D01*
G01*
X117028000Y-72323000D01*
G75*
G02*
X117278000Y-72073000I250000J0D01*
G01*
X118378000Y-72073000D01*
G75*
G02*
X118628000Y-72323000I0J-250000D01*
G01*
G37*
G36*
G01*
X121478000Y-72323000D02*
X121478000Y-73473000D01*
G75*
G02*
X121228000Y-73723000I-250000J0D01*
G01*
X120128000Y-73723000D01*
G75*
G02*
X119878000Y-73473000I0J250000D01*
G01*
X119878000Y-72323000D01*
G75*
G02*
X120128000Y-72073000I250000J0D01*
G01*
X121228000Y-72073000D01*
G75*
G02*
X121478000Y-72323000I0J-250000D01*
G01*
G37*
%TD*%
%TO.C,C4*%
G36*
G01*
X121989001Y-77909000D02*
X121088999Y-77909000D01*
G75*
G02*
X120839000Y-77659001I0J249999D01*
G01*
X120839000Y-77008999D01*
G75*
G02*
X121088999Y-76759000I249999J0D01*
G01*
X121989001Y-76759000D01*
G75*
G02*
X122239000Y-77008999I0J-249999D01*
G01*
X122239000Y-77659001D01*
G75*
G02*
X121989001Y-77909000I-249999J0D01*
G01*
G37*
G36*
G01*
X121989001Y-79959000D02*
X121088999Y-79959000D01*
G75*
G02*
X120839000Y-79709001I0J249999D01*
G01*
X120839000Y-79058999D01*
G75*
G02*
X121088999Y-78809000I249999J0D01*
G01*
X121989001Y-78809000D01*
G75*
G02*
X122239000Y-79058999I0J-249999D01*
G01*
X122239000Y-79709001D01*
G75*
G02*
X121989001Y-79959000I-249999J0D01*
G01*
G37*
%TD*%
%TO.C,C1*%
G36*
G01*
X121343000Y-81972999D02*
X121343000Y-82873001D01*
G75*
G02*
X121093001Y-83123000I-249999J0D01*
G01*
X120442999Y-83123000D01*
G75*
G02*
X120193000Y-82873001I0J249999D01*
G01*
X120193000Y-81972999D01*
G75*
G02*
X120442999Y-81723000I249999J0D01*
G01*
X121093001Y-81723000D01*
G75*
G02*
X121343000Y-81972999I0J-249999D01*
G01*
G37*
G36*
G01*
X123393000Y-81972999D02*
X123393000Y-82873001D01*
G75*
G02*
X123143001Y-83123000I-249999J0D01*
G01*
X122492999Y-83123000D01*
G75*
G02*
X122243000Y-82873001I0J249999D01*
G01*
X122243000Y-81972999D01*
G75*
G02*
X122492999Y-81723000I249999J0D01*
G01*
X123143001Y-81723000D01*
G75*
G02*
X123393000Y-81972999I0J-249999D01*
G01*
G37*
%TD*%
M02*
